<svg xmlns="http://www.w3.org/2000/svg" viewBox="0 0 102 102"><defs><style>.cls-1{fill:#8991a9;}</style></defs><title>Ресурс 3</title><g id="Слой_2" data-name="Слой 2"><g id="Слой_1-2" data-name="Слой 1"><path class="cls-1" d="M51,2A49,49,0,1,1,2,51,49.05,49.05,0,0,1,51,2m0-2a51,51,0,1,0,51,51A51,51,0,0,0,51,0Z"/><path class="cls-1" d="M41.67,58.52H30.08l-7.16,7.16V79.09H48.83V65.68Zm-7.85,18.9H24.59V66.86h9.23Zm-8-12.23,5-5h8.54l-5,5Zm17,12.23H39.94V71.59a1.39,1.39,0,0,1,2.78,0Zm4.44,0H44.38V71.59a3.06,3.06,0,1,0-6.11,0v5.83H35.49v-11l5.84-5.84,5.83,5.84Z"/><path class="cls-1" d="M26.26,68.53v6.11h5.89V68.53ZM30.48,73H27.93V70.2h2.55Z"/><path class="cls-1" d="M67.4,61.86V68h8.34V61.86Zm6.68,4.44h-5V63.52h5Z"/><path class="cls-1" d="M75.74,50.51V48l-7.16-7.16H68V37.61H63v3.23H58.86L68,26l9.91,14.3,1.37-.95L67.86,22.91,60.58,34.82l-6.3-7.15L42.5,43.7,30.93,32.22l-8.08,9.47,1.27,1.08L31,34.67,41.5,45.06l-4,5.45h-15v1.67H47.39V62.52h3.33v11H79.08V59l-3.34-3.34V52.18h3.73V50.51ZM64.62,39.28h1.67v2.78H64.62ZM63,42.51v1.22h5V42.57l4.94,4.94h-11l-5-5Zm11.13,6.67V54l-2.16-2.15H62.4V49.18ZM47.39,50.51H39.56L54.4,30.32l5.27,6L56.9,40.84H54.55L47.39,48Zm4.44,7.39L50.72,59v1.84H49.05V48.69l5.84-5.84,5.84,5.84v3.16H57.88l-.92.92A3,3,0,0,0,54.89,52,3.07,3.07,0,0,0,51.83,55Zm4-3.95L53.5,56.23V55a1.39,1.39,0,0,1,1.39-1.39A1.33,1.33,0,0,1,55.78,54Zm3.84,17.91H56.84V66a1.39,1.39,0,1,1,2.78,0Zm4.45,0H61.29V66a3.06,3.06,0,0,0-6.12,0v5.83H52.39V59.7l5.84-5.84,5.84,5.84Zm13.34,0H65.73V60.19H77.41ZM76.23,58.52h-11l-5-5h11Z"/><path class="cls-1" d="M42,22.93a4.17,4.17,0,1,0,4.17,4.17A4.17,4.17,0,0,0,42,22.93Zm0,6.68a2.51,2.51,0,1,1,2.5-2.51A2.51,2.51,0,0,1,42,29.61Z"/><rect class="cls-1" x="43.24" y="65.98" width="1.67" height="1.67" transform="translate(-34.34 50.73) rotate(-45)"/><rect class="cls-1" x="40.81" y="63.47" width="1.67" height="1.85" transform="translate(-33.34 48.31) rotate(-45)"/><rect class="cls-1" x="65.23" y="55.18" width="1.67" height="1.67"/><rect class="cls-1" x="68.57" y="55.18" width="2.78" height="1.67"/><rect class="cls-1" x="57.77" y="56.46" width="1.67" height="2.64" transform="translate(-23.69 58.36) rotate(-45)"/><rect class="cls-1" x="60.47" y="59.65" width="1.67" height="1.67" transform="translate(-24.81 61.07) rotate(-45)"/><rect class="cls-1" x="51.31" y="48.3" width="1.67" height="1.67" transform="translate(-19.47 51.26) rotate(-45)"/><rect class="cls-1" x="53.62" y="45.82" width="2.01" height="1.67" transform="translate(-16.99 52.29) rotate(-45)"/><rect class="cls-1" x="71.12" y="32.72" width="1.67" height="6.83" transform="translate(-7.77 47.44) rotate(-34.74)"/><rect class="cls-1" x="74.49" y="40.16" width="1.67" height="1.67" transform="translate(-9.94 50.23) rotate(-34.74)"/><rect class="cls-1" x="48.49" y="40.61" width="1.67" height="1.67" transform="translate(-13.28 56.65) rotate(-53.69)"/><rect class="cls-1" x="49.51" y="36.03" width="6.36" height="1.67" transform="translate(-8.22 57.49) rotate(-53.69)"/><rect class="cls-1" x="25.73" y="42.92" width="1.67" height="1.67" transform="translate(-23.96 35.54) rotate(-49.51)"/><rect class="cls-1" x="27.38" y="39.27" width="4.62" height="1.67" transform="translate(-20.09 36.64) rotate(-49.51)"/><rect class="cls-1" x="34.43" y="41.53" width="1.67" height="1.71" transform="translate(-19.66 37.55) rotate(-45.21)"/><rect class="cls-1" x="36.81" y="43.92" width="1.67" height="1.67" transform="translate(-20.64 39.94) rotate(-45.21)"/><rect class="cls-1" x="24.31" y="53.63" width="4.45" height="1.67"/><rect class="cls-1" x="32.32" y="55.52" width="2.11" height="1.67"/><rect class="cls-1" x="37.54" y="53.4" width="5" height="1.67"/><rect class="cls-1" x="52.78" y="74.98" width="5.34" height="1.67"/><rect class="cls-1" x="61.34" y="77.31" width="1.67" height="1.67"/><rect class="cls-1" x="65.79" y="75.64" width="4.45" height="1.67"/><rect class="cls-1" x="73.24" y="77.42" width="4.34" height="1.67"/></g></g></svg>