<?xml version="1.0" encoding="utf-8"?>
<!-- Generator: Adobe Illustrator 18.0.0, SVG Export Plug-In . SVG Version: 6.00 Build 0)  -->
<!DOCTYPE svg PUBLIC "-//W3C//DTD SVG 1.1//EN" "http://www.w3.org/Graphics/SVG/1.1/DTD/svg11.dtd">
<svg version="1.1" id="Layer_1" xmlns="http://www.w3.org/2000/svg" xmlns:xlink="http://www.w3.org/1999/xlink" x="0px" y="0px"
	 viewBox="0 0 710 710" enable-background="new 0 0 710 710" xml:space="preserve">
<path fill-rule="evenodd" clip-rule="evenodd" fill="#989999" d="M547.7,112h-10.6V92.5h10.6h19.4V112v54.2v19.4v409.7h-3.2h-16.2
	h-244v-19.4h119.6v-18.3h9.7v18.3h114.7V463.9H433v52h-9.7v-52v-9.7h9.7h114.7V185.6h-33.8v-19.4h33.8V112z M363.6,479h9.6v9.7h-9.6
	h-3.4h-16h-13V479h13V185.6h-42.2v-19.4h42.2h19.4h43.8v19.4h-43.8V479z M372.9,112h-30V92.5h30V112z M192.3,112h-10.6v54.2h13.7
	v19.4h-33.1V479h62.6h64.7v9.7h-64.7v9.7v77.4H262v19.4h-37.1h-19.4v-19.4v-77.4h-62.6v-9.7V479V166.2h19.4V112V92.5h19.4h10.6V112z
	"/>
<polygon fill-rule="evenodd" clip-rule="evenodd" fill="#989999" points="260.3,166.2 260.3,170.4 260.3,181.3 260.3,185.6 
	256.1,185.6 195.5,185.6 195.5,181.3 256.1,181.3 256.1,170.4 195.5,170.4 195.5,166.2 256.1,166.2 "/>
<polygon fill-rule="evenodd" clip-rule="evenodd" fill="#989999" points="449,185.6 449,181.3 449,170.4 449,166.2 453.2,166.2 
	513.9,166.2 513.9,170.4 453.2,170.4 453.2,181.3 513.9,181.3 513.9,185.6 453.2,185.6 "/>
<path fill-rule="evenodd" clip-rule="evenodd" fill="#989999" d="M537.1,92.5v4.3H372.9v-4.3H537.1z M537.1,107.7v4.3H372.9v-4.3
	H537.1z"/>
<path fill-rule="evenodd" clip-rule="evenodd" fill="#989999" d="M342.8,92.5v4.3H192.3v-4.3H342.8z M342.8,107.7v4.3H192.3v-4.3
	H342.8z"/>
<path fill="none" stroke="#989999" stroke-width="2.8346" stroke-miterlimit="10" d="M289.5,488.7c0-23,18.7-41.6,41.6-41.6v41.6"/>
<path fill="none" stroke="#989999" stroke-width="2.8346" stroke-miterlimit="10" d="M303.7,575.8c0,23-18.7,41.6-41.6,41.6v-41.6"
	/>
<path fill="none" stroke="#989999" stroke-width="2.8346" stroke-miterlimit="10" d="M423.3,516c23,0,41.6,18.6,41.6,41.6h-41.6"/>
<path fill="none" stroke="#989999" stroke-width="2.8346" stroke-miterlimit="10" d="M449,166.2c0,23-18.7,41.6-41.6,41.6v-41.6"/>
<path fill="none" stroke="#989999" stroke-width="2.8346" stroke-miterlimit="10" d="M260.3,166.2c0,23,18.6,41.6,41.6,41.6v-41.6"
	/>
<g>
	<path fill-rule="evenodd" clip-rule="evenodd" fill="#818282" d="M484.5,281.6h-56.3c-0.8,0-1.4,0.7-1.4,1.4v25.6
		c0,0.8,0.7,1.4,1.4,1.4h56.3c0.8,0,1.4-0.7,1.4-1.4V283C486,282.2,485.3,281.6,484.5,281.6L484.5,281.6z M483.1,307.2h-53.4v-22.7
		h53.4V307.2z"/>
	<path fill-rule="evenodd" clip-rule="evenodd" fill="#818282" d="M489.4,271.4h-29v-7.3h13.9c0.4,0,0.8-0.2,1.1-0.5
		c0.3-0.3,0.4-0.7,0.3-1.2l-5.5-30.1c-0.1-0.7-0.7-1.2-1.4-1.2H444c-0.7,0-1.3,0.5-1.4,1.2l-5.5,30.1c-0.1,0.4,0,0.9,0.3,1.2
		c0.3,0.3,0.7,0.5,1.1,0.5h13.9v7.3h-29c-0.8,0-1.4,0.7-1.4,1.4v4.7v0.1v36.5c0,0.8,0.6,1.4,1.4,1.4h1.9v5.9c0,0.8,0.6,1.4,1.4,1.4
		h4.8c0.8,0,1.4-0.6,1.4-1.4v-5.9h46.7v5.9c0,0.8,0.6,1.4,1.4,1.4h4.9c0.8,0,1.4-0.6,1.4-1.4v-5.9h1.9c0.8,0,1.4-0.7,1.4-1.4v-36.4
		v-0.1v-4.8C490.8,272,490.2,271.4,489.4,271.4L489.4,271.4z M453.8,261.2h-13.6l5-27.2h22.4l5,27.2h-13.6c-0.8,0-1.4,0.6-1.4,1.4
		v8.7h-2.3v-8.7C455.2,261.9,454.6,261.2,453.8,261.2L453.8,261.2z M453.8,274.3h5.1h29v1.9h-63.2v-1.9H453.8z M486,312.6
		c-0.8,0-1.4,0.6-1.4,1.4v5.9h-2v-5.9c0-0.8-0.6-1.4-1.4-1.4h-49.6c-0.8,0-1.4,0.6-1.4,1.4v5.9h-2v-5.9c0-0.8-0.6-1.4-1.4-1.4h-1.9
		V279h63.2v33.6H486z"/>
	<path fill-rule="evenodd" clip-rule="evenodd" fill="#818282" d="M449.4,297.2h14c0.8,0,1.4-0.7,1.4-1.4s-0.7-1.4-1.4-1.4h-14
		c-0.8,0-1.4,0.6-1.4,1.4S448.6,297.2,449.4,297.2L449.4,297.2z"/>
	<path fill="#818282" d="M456.4,207.3c19.2,0,36.7,7.8,49.2,20.4c12.6,12.6,20.4,30,20.4,49.2c0,19.2-7.8,36.7-20.4,49.3
		c-12.6,12.6-30,20.4-49.2,20.4c-19.2,0-36.7-7.8-49.3-20.4c-12.6-12.6-20.4-30-20.4-49.3c0-19.2,7.8-36.6,20.4-49.2
		C419.7,215.1,437.1,207.3,456.4,207.3L456.4,207.3z M501.9,231.5c-11.7-11.7-27.7-18.9-45.5-18.9s-33.9,7.2-45.5,18.9
		C399.2,243.1,392,259.2,392,277c0,17.8,7.2,33.9,18.9,45.5c11.6,11.6,27.7,18.9,45.5,18.9s33.8-7.2,45.5-18.9
		c11.7-11.7,18.9-27.8,18.9-45.5C520.7,259.2,513.5,243.1,501.9,231.5L501.9,231.5z"/>
</g>
<g>
	<path fill-rule="evenodd" clip-rule="evenodd" fill="#818282" d="M294.1,262.8v-8c0-3.6-2.9-6.5-6.5-6.5H262
		c-2.8,0-5.5,0.9-7.7,2.7c-2.2-1.7-4.9-2.7-7.7-2.7h-25.7c-3.6,0-6.5,2.9-6.5,6.5v8c-4.5,0.8-8,4.7-8,9.4c0,4.7,3.5,8.7,8,9.4v24
		h11.2v-3.2H283v3.2h11.2v-24c4.5-0.8,8-4.7,8-9.4C302.1,267.5,298.6,263.5,294.1,262.8L294.1,262.8z M217.6,254.8
		c0-1.8,1.5-3.3,3.3-3.3h25.7c2.5,0,4.8,1,6.5,2.7l1.1,1.1l1.1-1.1c1.8-1.8,4.1-2.7,6.6-2.7h25.7c1.8,0,3.3,1.5,3.3,3.3v8
		c-0.1,0-0.1,0-0.1,0c-0.5,0.1-1,0.2-1.4,0.4c-0.1,0-0.2,0.1-0.3,0.1c-0.5,0.2-0.9,0.4-1.3,0.6c-0.1,0-0.1,0.1-0.2,0.1
		c-0.5,0.3-0.9,0.6-1.2,0.9c0,0,0,0,0,0c-0.4,0.3-0.7,0.7-1.1,1c0,0.1-0.1,0.1-0.1,0.1c-0.3,0.4-0.6,0.8-0.9,1.2
		c0,0.1-0.1,0.1-0.1,0.2c-0.3,0.4-0.5,0.9-0.6,1.3c0,0.1-0.1,0.2-0.1,0.3c-0.2,0.5-0.3,0.9-0.4,1.4c0,0.1,0,0.1,0,0.2
		c-0.1,0.5-0.2,1-0.2,1.6v4.8h-23.4c-1.8,0-3.4,0.7-4.6,1.9l-0.6,0.6l-0.6-0.6c-1.2-1.2-2.9-1.9-4.6-1.9h-23.5v-4.8
		c0-0.6-0.1-1.1-0.1-1.6c0-0.1,0-0.1,0-0.2c-0.1-0.5-0.3-1-0.4-1.4c0-0.1-0.1-0.2-0.1-0.3c-0.2-0.4-0.4-0.9-0.6-1.3
		c0-0.1-0.1-0.1-0.1-0.2c-0.3-0.4-0.5-0.8-0.9-1.2c0,0-0.1-0.1-0.1-0.1c-0.3-0.4-0.7-0.7-1.1-1.1c0,0,0,0,0,0
		c-0.4-0.3-0.8-0.6-1.2-0.9c-0.1,0-0.1-0.1-0.1-0.1c-0.4-0.3-0.9-0.5-1.3-0.6c-0.1,0-0.2-0.1-0.3-0.1c-0.5-0.1-0.9-0.3-1.4-0.4
		c0,0-0.1,0-0.1,0V254.8z M283,285h-57.4v-4.8h23.5c0.9,0,1.7,0.3,2.4,1l2.9,2.9l2.9-2.9c0.7-0.6,1.5-1,2.4-1H283V285z M217.6,302.5
		v-22.3v-1.6v-6.4c0-0.9-0.7-1.6-1.6-1.6s-1.6,0.7-1.6,1.6v6.2c-2.7-0.7-4.8-3.2-4.8-6.2c0-3.5,2.9-6.4,6.4-6.4
		c3.5,0,6.4,2.9,6.4,6.4v4.8v8v3.2v14.3H217.6z M255.9,299.3v-4.8c0-0.9-0.7-1.6-1.6-1.6s-1.6,0.7-1.6,1.6v4.8h-27.1v-11.2H283v11.2
		H255.9z M294.1,278.4v-6.2c0-0.9-0.7-1.6-1.6-1.6c-0.9,0-1.6,0.7-1.6,1.6v6.4v1.6v22.3h-4.8v-14.3V285v-8v-4.8
		c0-3.5,2.9-6.4,6.4-6.4s6.4,2.9,6.4,6.4C298.9,275.2,296.9,277.7,294.1,278.4L294.1,278.4z"/>
	<path fill-rule="evenodd" clip-rule="evenodd" fill="#818282" d="M265.9,270.1c0.3,0.3,0.7,0.5,1.1,0.5s0.8-0.1,1.1-0.5l1.4-1.5
		c0.7,0.3,1.4,0.5,2.2,0.5c0.7,0,1.5-0.2,2.2-0.5l1.5,1.5c0.3,0.3,0.7,0.5,1.1,0.5c0.4,0,0.8-0.1,1.1-0.5c0.6-0.6,0.6-1.6,0-2.3
		l-1.4-1.4c0.7-1.4,0.7-3,0-4.4l1.4-1.4c0.6-0.6,0.6-1.6,0-2.3c-0.6-0.6-1.6-0.6-2.2,0l-1.5,1.5c-1.4-0.7-3-0.7-4.4,0l-1.4-1.5
		c-0.6-0.6-1.6-0.6-2.3,0c-0.6,0.6-0.6,1.6,0,2.3l1.5,1.4c-0.7,1.4-0.7,3,0,4.4l-1.5,1.5C265.3,268.5,265.3,269.5,265.9,270.1
		L265.9,270.1z M273.1,263c0.7,0.7,0.7,1.8,0,2.5c-0.7,0.7-1.8,0.7-2.5,0c-0.7-0.7-0.7-1.8,0-2.5c0.3-0.3,0.8-0.5,1.3-0.5
		S272.7,262.6,273.1,263L273.1,263z"/>
	<path fill-rule="evenodd" clip-rule="evenodd" fill="#818282" d="M230.8,270.1c0.3,0.3,0.7,0.5,1.1,0.5c0.4,0,0.8-0.1,1.1-0.5
		l1.5-1.5c0.7,0.3,1.4,0.5,2.2,0.5c0.8,0,1.5-0.2,2.2-0.5l1.4,1.5c0.3,0.3,0.7,0.5,1.1,0.5c0.4,0,0.8-0.1,1.1-0.5
		c0.6-0.6,0.6-1.6,0-2.3l-1.5-1.4c0.7-1.4,0.7-3,0-4.4l1.5-1.4c0.6-0.6,0.6-1.6,0-2.3c-0.6-0.6-1.6-0.6-2.3,0l-1.4,1.5
		c-1.4-0.7-3-0.7-4.4,0l-1.5-1.5c-0.6-0.6-1.6-0.6-2.2,0c-0.6,0.6-0.6,1.6,0,2.3l1.5,1.4c-0.7,1.4-0.7,3,0,4.4l-1.5,1.5
		C230.2,268.5,230.2,269.5,230.8,270.1L230.8,270.1z M238,263c0.7,0.7,0.7,1.8,0,2.5c-0.7,0.7-1.8,0.7-2.5,0c-0.7-0.7-0.7-1.8,0-2.5
		c0.3-0.3,0.8-0.5,1.2-0.5C237.2,262.4,237.7,262.6,238,263L238,263z"/>
	<path fill-rule="evenodd" clip-rule="evenodd" fill="#818282" d="M254.3,269c0.9,0,1.6-0.7,1.6-1.6v-1.6c0-0.9-0.7-1.6-1.6-1.6
		s-1.6,0.7-1.6,1.6v1.6C252.7,268.3,253.4,269,254.3,269L254.3,269z"/>
	<path fill-rule="evenodd" clip-rule="evenodd" fill="#818282" d="M254.3,275.4c0.9,0,1.6-0.7,1.6-1.6v-1.6c0-0.9-0.7-1.6-1.6-1.6
		s-1.6,0.7-1.6,1.6v1.6C252.7,274.7,253.4,275.4,254.3,275.4L254.3,275.4z"/>
	<path fill-rule="evenodd" clip-rule="evenodd" fill="#818282" d="M254.3,262.6c0.9,0,1.6-0.7,1.6-1.6v-1.6c0-0.9-0.7-1.6-1.6-1.6
		s-1.6,0.7-1.6,1.6v1.6C252.7,261.9,253.4,262.6,254.3,262.6L254.3,262.6z"/>
	<path fill="#818282" d="M254.3,207.3c19.2,0,36.7,7.8,49.3,20.4c12.6,12.6,20.4,30,20.4,49.2c0,19.2-7.8,36.7-20.4,49.3
		c-12.6,12.6-30,20.4-49.3,20.4c-19.2,0-36.7-7.8-49.2-20.4c-12.6-12.6-20.4-30-20.4-49.3c0-19.2,7.8-36.6,20.4-49.2
		C217.6,215.1,235.1,207.3,254.3,207.3L254.3,207.3z M299.8,231.5c-11.7-11.7-27.7-18.9-45.5-18.9s-33.8,7.2-45.5,18.9
		s-18.9,27.8-18.9,45.5c0,17.8,7.2,33.9,18.9,45.5c11.7,11.6,27.7,18.9,45.5,18.9s33.8-7.2,45.5-18.9c11.7-11.7,18.9-27.8,18.9-45.5
		C318.6,259.2,311.4,243.1,299.8,231.5L299.8,231.5z"/>
</g>
<g>
	<rect x="195.4" y="170.4" fill-rule="evenodd" clip-rule="evenodd" fill="#AFDBF1" width="60.7" height="10.9"/>
</g>
<g>
	<rect x="453.2" y="170.4" fill-rule="evenodd" clip-rule="evenodd" fill="#AFDBF1" width="60.7" height="10.9"/>
</g>
<g>
	<rect x="192.3" y="96.8" fill-rule="evenodd" clip-rule="evenodd" fill="#AFDBF1" width="150.5" height="10.9"/>
</g>
<g>
	<rect x="372.9" y="96.8" fill-rule="evenodd" clip-rule="evenodd" fill="#AFDBF1" width="164.2" height="10.9"/>
</g>
</svg>
