<?xml version="1.0" encoding="utf-8"?>
<!-- Generator: Adobe Illustrator 18.0.0, SVG Export Plug-In . SVG Version: 6.00 Build 0)  -->
<!DOCTYPE svg PUBLIC "-//W3C//DTD SVG 1.1//EN" "http://www.w3.org/Graphics/SVG/1.1/DTD/svg11.dtd">
<svg version="1.1" id="Layer_1" xmlns="http://www.w3.org/2000/svg" xmlns:xlink="http://www.w3.org/1999/xlink" x="0px" y="0px"
	 viewBox="0 0 710 710" enable-background="new 0 0 710 710" xml:space="preserve">
<g>
	<path fill-rule="evenodd" clip-rule="evenodd" fill="#818282" d="M226.2,509.9c2.4,0,4.3-2,4.3-4.3c0-1.9-1.2-3.5-2.9-4.1v-0.3
		c0-0.8-0.6-1.4-1.4-1.4c-0.8,0-1.4,0.6-1.4,1.4v0.3c-1.7,0.6-2.9,2.2-2.9,4.1C221.9,508,223.8,509.9,226.2,509.9L226.2,509.9z
		 M226.2,504c0.9,0,1.6,0.7,1.6,1.6c0,0.9-0.7,1.6-1.6,1.6c-0.9,0-1.6-0.7-1.6-1.6C224.7,504.7,225.4,504,226.2,504L226.2,504z"/>
	<path fill-rule="evenodd" clip-rule="evenodd" fill="#818282" d="M211.5,509.9c2.4,0,4.3-2,4.3-4.3c0-1.9-1.2-3.5-2.9-4.1v-0.3
		c0-0.8-0.6-1.4-1.4-1.4c-0.8,0-1.4,0.6-1.4,1.4v0.3c-1.7,0.6-2.9,2.2-2.9,4.1C207.2,508,209.2,509.9,211.5,509.9L211.5,509.9z
		 M211.5,504c0.9,0,1.6,0.7,1.6,1.6c0,0.9-0.7,1.6-1.6,1.6c-0.9,0-1.6-0.7-1.6-1.6C209.9,504.7,210.7,504,211.5,504L211.5,504z"/>
	<path fill-rule="evenodd" clip-rule="evenodd" fill="#818282" d="M255.6,509.9c2.4,0,4.3-2,4.3-4.3c0-1.9-1.2-3.5-2.9-4.1v-0.3
		c0-0.8-0.6-1.4-1.4-1.4c-0.8,0-1.4,0.6-1.4,1.4v0.3c-1.7,0.6-2.9,2.2-2.9,4.1C251.3,508,253.2,509.9,255.6,509.9L255.6,509.9z
		 M255.6,504c0.9,0,1.6,0.7,1.6,1.6c0,0.9-0.7,1.6-1.6,1.6c-0.9,0-1.6-0.7-1.6-1.6C254.1,504.7,254.8,504,255.6,504L255.6,504z"/>
	<path fill-rule="evenodd" clip-rule="evenodd" fill="#818282" d="M240.9,509.9c2.4,0,4.3-2,4.3-4.3c0-1.9-1.2-3.5-2.9-4.1v-0.3
		c0-0.8-0.6-1.4-1.4-1.4c-0.8,0-1.4,0.6-1.4,1.4v0.3c-1.7,0.6-2.9,2.2-2.9,4.1C236.6,508,238.5,509.9,240.9,509.9L240.9,509.9z
		 M240.9,504c0.9,0,1.6,0.7,1.6,1.6c0,0.9-0.7,1.6-1.6,1.6c-0.9,0-1.6-0.7-1.6-1.6C239.4,504.7,240.1,504,240.9,504L240.9,504z"/>
	<path fill-rule="evenodd" clip-rule="evenodd" fill="#818282" d="M255.6,524.8h-44.1c-0.8,0-1.4,0.6-1.4,1.4s0.6,1.4,1.4,1.4h44.1
		c0.8,0,1.4-0.6,1.4-1.4S256.4,524.8,255.6,524.8L255.6,524.8z"/>
	<path fill-rule="evenodd" clip-rule="evenodd" fill="#818282" d="M260,518.9h-52.9c-1.6,0-2.8,1.3-2.8,2.9v41.2
		c0,1.6,1.3,2.8,2.8,2.8H260c1.6,0,2.8-1.3,2.8-2.8v-41.2C262.9,520.2,261.6,518.9,260,518.9L260,518.9z M260.1,562.9
		C260.1,562.9,260.1,563,260.1,562.9l-53,0.1c-0.1,0-0.1-0.1-0.1-0.1v-41.2c0-0.1,0-0.1,0.1-0.1H260c0.1,0,0.1,0,0.1,0.1V562.9z"/>
	<path fill-rule="evenodd" clip-rule="evenodd" fill="#818282" d="M255.6,530.7h-44.1c-0.8,0-1.4,0.6-1.4,1.4v26.4
		c0,0.8,0.6,1.4,1.4,1.4h44.1c0.8,0,1.4-0.6,1.4-1.4v-26.4C257,531.3,256.4,530.7,255.6,530.7L255.6,530.7z M254.3,557.1h-41.4
		v-23.7h41.4V557.1z"/>
	<path fill-rule="evenodd" clip-rule="evenodd" fill="#818282" d="M265.9,495.4h-3v-1.6c0-1.6-1.3-2.9-2.8-2.9h-20.6
		c-1.6,0-2.9,1.3-2.9,2.9v1.6h-6.1v-1.6c0-1.6-1.3-2.9-2.8-2.9h-20.6c-1.6,0-2.8,1.3-2.8,2.9v1.6h-3c-1.6,0-2.9,1.3-2.9,2.8v75
		c0,1.6,1.3,2.8,2.9,2.8h2.9c1.6,0,2.9-1.3,2.9-2.8v-1.6h53.1v1.6c0,1.6,1.3,2.8,2.8,2.8h2.9c1.6,0,2.9-1.3,2.9-2.8v-75
		C268.8,496.7,267.5,495.4,265.9,495.4L265.9,495.4z M239.4,493.8c0-0.1,0-0.1,0.1-0.1H260c0.1,0,0.1,0.1,0.1,0.1v1.6h-20.7V493.8z
		 M207,493.8c0-0.1,0-0.1,0.1-0.1h20.6c0.1,0,0.1,0.1,0.1,0.1v1.6H207V493.8z M201.2,498.1h64.7c0.1,0,0.1,0,0.1,0.1V513h-64.9
		v-14.8C201.1,498.2,201.2,498.1,201.2,498.1L201.2,498.1z M265.9,573.3H263c0,0-0.1-0.1-0.1-0.1v-2.9c0-0.8-0.6-1.4-1.4-1.4h-55.9
		c-0.8,0-1.4,0.6-1.4,1.4v2.9c0,0-0.1,0.1-0.1,0.1h-2.9c-0.1,0-0.1-0.1-0.1-0.1v-57.4H266L265.9,573.3
		C266,573.2,266,573.3,265.9,573.3L265.9,573.3z"/>
	<path fill="#818282" d="M233.6,463.9c19.2,0,36.7,7.8,49.3,20.4c12.6,12.6,20.4,30,20.4,49.3c0,19.2-7.8,36.6-20.4,49.2
		c-12.6,12.6-30,20.4-49.3,20.4c-19.2,0-36.6-7.8-49.2-20.4c-12.6-12.6-20.4-30-20.4-49.2c0-19.2,7.8-36.7,20.4-49.3
		C196.9,471.6,214.3,463.9,233.6,463.9L233.6,463.9z M279.1,488c-11.7-11.6-27.8-18.8-45.5-18.8s-33.8,7.2-45.5,18.8
		c-11.7,11.7-18.9,27.8-18.9,45.5c0,17.7,7.2,33.8,18.9,45.5c11.7,11.7,27.7,18.9,45.5,18.9s33.9-7.2,45.5-18.9
		c11.6-11.7,18.8-27.8,18.8-45.5C297.9,515.8,290.7,499.7,279.1,488L279.1,488z"/>
</g>
<polygon fill-rule="evenodd" clip-rule="evenodd" fill="#989999" points="204.2,63.2 223.7,63.2 223.7,89.4 282.6,89.4 282.6,108.7 
	223.7,108.7 223.7,204.8 204.2,204.8 "/>
<polygon fill-rule="evenodd" clip-rule="evenodd" fill="#989999" points="600.4,89.4 619.8,89.4 619.8,108.7 619.8,572.6 619.8,592 
	600.4,592 587.2,592 587.2,572.6 600.4,572.6 600.4,447 581.8,447 581.8,437.3 600.4,437.3 600.4,108.7 559.2,108.7 559.2,89.4 "/>
<polygon fill-rule="evenodd" clip-rule="evenodd" fill="#989999" points="204.2,315.9 223.7,315.9 223.7,427.6 223.7,437.3 
	377.2,437.3 377.2,447 223.7,447 204.2,447 129.1,447 129.1,482.3 109.7,482.3 109.7,447 84,447 84,427.6 204.2,427.6 "/>
<polygon fill-rule="evenodd" clip-rule="evenodd" fill="#989999" points="109.7,582.5 129.1,582.5 129.1,627.4 340.7,627.4 
	340.7,517.4 340.7,507.7 350.4,507.7 409.7,507.7 409.7,517.4 350.4,517.4 350.4,627.4 486.5,627.4 486.5,592 486.5,572.6 
	486.5,517.4 451.3,517.4 451.3,507.7 486.5,507.7 496.2,507.7 496.2,517.4 496.2,572.6 505.9,572.6 545.6,572.6 545.6,592 
	505.9,592 505.9,627.4 505.9,646.8 486.5,646.8 129.1,646.8 109.7,646.8 109.7,627.4 "/>
<path fill-rule="evenodd" clip-rule="evenodd" fill="#989999" d="M282.6,108.7v-4.3h98.1v4.3H282.6z M282.6,93.6v-4.3h98.1v4.3
	H282.6z"/>
<polygon fill-rule="evenodd" clip-rule="evenodd" fill="#989999" points="380.7,108.7 380.7,89.4 460.5,89.4 460.5,108.7 442,108.7 
	442,437.3 540.1,437.3 540.1,447 418.8,447 418.8,437.3 432.3,437.3 432.3,108.7 "/>
<path fill-rule="evenodd" clip-rule="evenodd" fill="#989999" d="M460.5,108.7v-4.3h98.6v4.3H460.5z M460.5,93.6v-4.3h98.6v4.3
	H460.5z"/>
<path fill-rule="evenodd" clip-rule="evenodd" fill="#989999" d="M129.1,582.5h-4.3V482.3h4.3V582.5z M114,582.5h-4.3V482.3h4.3
	V582.5z"/>
<path fill-rule="evenodd" clip-rule="evenodd" fill="#989999" d="M99.1,82.6v-4.3l0,0h105.1v4.3H103.4v344.9h-4.3V82.6z M88.2,427.6
	H84V63.2h2.1h2.1h116v4.3h-116V427.6z"/>
<polygon fill-rule="evenodd" clip-rule="evenodd" fill="#989999" points="223.7,274.3 219.4,274.3 208.5,274.3 204.2,274.3 
	204.2,270 204.2,204.8 208.5,204.8 208.5,270 219.4,270 219.4,204.8 223.7,204.8 223.7,270 "/>
<path fill="none" stroke="#989999" stroke-width="2.8346" stroke-miterlimit="10" d="M377.2,447c0-23,18.7-41.6,41.6-41.6V447"/>
<path fill="none" stroke="#989999" stroke-width="2.8346" stroke-miterlimit="10" d="M540.1,447c0-23,18.7-41.6,41.6-41.6V447"/>
<path fill="none" stroke="#989999" stroke-width="2.8346" stroke-miterlimit="10" d="M409.7,507.7c0,23,18.6,41.6,41.6,41.6v-41.6"
	/>
<path fill="none" stroke="#989999" stroke-width="2.8346" stroke-miterlimit="10" d="M545.6,572.6c0,23,18.7,41.6,41.6,41.6v-41.6"
	/>
<path fill="none" stroke="#989999" stroke-width="2.8346" stroke-miterlimit="10" d="M204.2,274.3c23,0,41.6,18.6,41.6,41.6h-41.6"
	/>
<g>
	<path fill-rule="evenodd" clip-rule="evenodd" fill="#818282" d="M549.8,281.6h-56.3c-0.8,0-1.4,0.7-1.4,1.4v25.6
		c0,0.8,0.6,1.4,1.4,1.4h56.3c0.8,0,1.4-0.7,1.4-1.4V283C551.2,282.2,550.5,281.6,549.8,281.6L549.8,281.6z M548.3,307.2h-53.4
		v-22.7h53.4V307.2z"/>
	<path fill-rule="evenodd" clip-rule="evenodd" fill="#818282" d="M554.6,271.4h-29v-7.3h13.9c0.4,0,0.9-0.2,1.1-0.5
		c0.3-0.3,0.4-0.8,0.3-1.2l-5.5-30.1c-0.1-0.7-0.7-1.2-1.4-1.2h-24.8c-0.7,0-1.3,0.5-1.4,1.2l-5.5,30.1c-0.1,0.4,0,0.9,0.3,1.2
		c0.3,0.3,0.7,0.5,1.1,0.5h13.9v7.3h-29c-0.8,0-1.4,0.7-1.4,1.4v4.7v0.1v36.5c0,0.8,0.7,1.4,1.4,1.4h1.9v5.9c0,0.8,0.6,1.4,1.4,1.4
		h4.9c0.8,0,1.4-0.6,1.4-1.4v-5.9H545v5.9c0,0.8,0.7,1.4,1.4,1.4h4.8c0.8,0,1.4-0.6,1.4-1.4v-5.9h1.9c0.8,0,1.4-0.7,1.4-1.4v-36.5v0
		v-4.8C556.1,272,555.4,271.4,554.6,271.4L554.6,271.4z M519.1,261.2h-13.6l5-27.2h22.4l5,27.2h-13.6c-0.8,0-1.4,0.6-1.4,1.4v8.7
		h-2.2v-8.7C520.5,261.9,519.8,261.2,519.1,261.2L519.1,261.2z M519.1,274.3h5.1h29v1.9h-63.1v-1.9H519.1z M551.3,312.6
		c-0.8,0-1.4,0.6-1.4,1.4v5.9h-2v-5.9c0-0.8-0.7-1.4-1.4-1.4h-49.6c-0.8,0-1.4,0.6-1.4,1.4v5.9h-2v-5.9c0-0.8-0.7-1.4-1.4-1.4h-1.9
		V279h63.1v33.6H551.3z"/>
	<path fill-rule="evenodd" clip-rule="evenodd" fill="#818282" d="M514.6,297.2h14.1c0.8,0,1.4-0.7,1.4-1.4s-0.6-1.4-1.4-1.4h-14.1
		c-0.8,0-1.4,0.6-1.4,1.4S513.8,297.2,514.6,297.2L514.6,297.2z"/>
	<path fill="#818282" d="M521.6,207.3c19.2,0,36.7,7.8,49.3,20.4c12.6,12.6,20.4,30,20.4,49.2c0,19.2-7.8,36.7-20.4,49.3
		c-12.6,12.6-30,20.4-49.3,20.4c-19.2,0-36.7-7.8-49.2-20.4c-12.6-12.6-20.4-30-20.4-49.3c0-19.2,7.8-36.6,20.4-49.2
		C485,215.1,502.4,207.3,521.6,207.3L521.6,207.3z M567.1,231.5c-11.6-11.7-27.7-18.9-45.5-18.9c-17.8,0-33.8,7.2-45.5,18.9
		c-11.7,11.7-18.9,27.8-18.9,45.5c0,17.8,7.2,33.9,18.9,45.5c11.7,11.6,27.7,18.8,45.5,18.8c17.8,0,33.9-7.2,45.5-18.8
		c11.7-11.7,18.9-27.8,18.9-45.5C586,259.2,578.8,243.1,567.1,231.5L567.1,231.5z"/>
</g>
<g>
	<path fill-rule="evenodd" clip-rule="evenodd" fill="#818282" d="M342.7,270.1c0.3,0.3,0.7,0.5,1.1,0.5c0.4,0,0.8-0.1,1.1-0.5
		l1.5-1.5c0.7,0.3,1.4,0.5,2.2,0.5c0.8,0,1.5-0.2,2.2-0.5l1.5,1.5c0.3,0.3,0.7,0.5,1.1,0.5c0.4,0,0.8-0.1,1.1-0.5
		c0.6-0.6,0.6-1.6,0-2.3l-1.4-1.4c0.7-1.4,0.7-3,0-4.4l1.4-1.4c0.6-0.6,0.6-1.6,0-2.3c-0.6-0.6-1.6-0.6-2.2,0l-1.5,1.5
		c-1.4-0.7-3-0.7-4.4,0l-1.5-1.5c-0.6-0.6-1.6-0.6-2.3,0c-0.6,0.6-0.6,1.6,0,2.3l1.5,1.4c-0.7,1.4-0.7,3,0,4.4l-1.5,1.5
		C342.1,268.5,342.1,269.5,342.7,270.1L342.7,270.1z M349.9,263c0.7,0.7,0.7,1.8,0,2.5c-0.7,0.7-1.8,0.7-2.6,0
		c-0.7-0.7-0.7-1.8,0-2.5c0.4-0.3,0.8-0.5,1.3-0.5C349.1,262.4,349.5,262.6,349.9,263L349.9,263z"/>
	<path fill-rule="evenodd" clip-rule="evenodd" fill="#818282" d="M331.1,269c0.9,0,1.6-0.7,1.6-1.6v-1.6c0-0.9-0.7-1.6-1.6-1.6
		c-0.9,0-1.6,0.7-1.6,1.6v1.6C329.5,268.3,330.2,269,331.1,269L331.1,269z"/>
	<path fill-rule="evenodd" clip-rule="evenodd" fill="#818282" d="M331.1,275.4c0.9,0,1.6-0.7,1.6-1.6v-1.6c0-0.9-0.7-1.6-1.6-1.6
		c-0.9,0-1.6,0.7-1.6,1.6v1.6C329.5,274.7,330.2,275.4,331.1,275.4L331.1,275.4z"/>
	<path fill-rule="evenodd" clip-rule="evenodd" fill="#818282" d="M331.1,262.6c0.9,0,1.6-0.7,1.6-1.6v-1.6c0-0.9-0.7-1.6-1.6-1.6
		c-0.9,0-1.6,0.7-1.6,1.6v1.6C329.5,261.9,330.2,262.6,331.1,262.6L331.1,262.6z"/>
	<g>
		<path fill-rule="evenodd" clip-rule="evenodd" fill="#818282" d="M370.9,262.8v-8c0-3.6-2.9-6.5-6.5-6.5h-25.7
			c-2.8,0-5.5,0.9-7.7,2.7c-2.2-1.7-4.9-2.7-7.7-2.7h-25.7c-3.6,0-6.5,2.9-6.5,6.5v8c-4.5,0.8-8,4.7-8,9.4s3.5,8.7,8,9.4v24.1h11.2
			v-3.2h57.4v3.2h11.1v-24.1c4.5-0.7,8-4.7,8-9.4S375.5,263.5,370.9,262.8L370.9,262.8z M294.4,254.8c0-1.8,1.5-3.3,3.3-3.3h25.7
			c2.5,0,4.8,1,6.6,2.7l1.1,1.1l1.1-1.1c1.8-1.8,4.1-2.7,6.6-2.7h25.7c1.8,0,3.3,1.5,3.3,3.3v8c0,0-0.1,0-0.1,0
			c-0.5,0.1-1,0.2-1.4,0.4c-0.1,0-0.2,0.1-0.2,0.1c-0.5,0.2-0.9,0.4-1.3,0.6c-0.1,0-0.1,0.1-0.2,0.1c-0.4,0.3-0.9,0.6-1.2,0.9
			c0,0,0,0,0,0c-0.4,0.3-0.7,0.7-1.1,1c0,0-0.1,0.1-0.1,0.1c-0.3,0.4-0.6,0.8-0.9,1.2c0,0.1-0.1,0.1-0.1,0.2
			c-0.3,0.4-0.5,0.9-0.6,1.3c0,0.1-0.1,0.2-0.1,0.3c-0.2,0.5-0.3,0.9-0.4,1.4c0,0.1,0,0.1,0,0.2c-0.1,0.5-0.1,1-0.1,1.6v4.8h-23.5
			c-1.8,0-3.4,0.7-4.6,1.9l-0.6,0.6l-0.6-0.6c-1.2-1.2-2.9-1.9-4.6-1.9h-23.5v-4.8c0-0.6-0.1-1.1-0.1-1.6c0-0.1,0-0.1,0-0.2
			c-0.1-0.5-0.2-1-0.4-1.4c0-0.1-0.1-0.2-0.1-0.3c-0.2-0.5-0.4-0.9-0.6-1.3c-0.1-0.1-0.1-0.1-0.1-0.2c-0.3-0.4-0.5-0.8-0.9-1.2
			c0,0-0.1-0.1-0.1-0.1c-0.3-0.4-0.7-0.7-1.1-1.1l0,0c-0.4-0.3-0.8-0.6-1.2-0.9c-0.1,0-0.1-0.1-0.2-0.1c-0.4-0.3-0.9-0.5-1.3-0.6
			c-0.1,0-0.2-0.1-0.2-0.1c-0.5-0.2-0.9-0.3-1.4-0.4c0,0-0.1,0-0.1,0V254.8z M359.8,285h-57.4v-4.8h23.5c0.9,0,1.7,0.3,2.4,1
			l2.9,2.9l2.9-2.9c0.6-0.6,1.4-1,2.4-1h23.5V285z M294.4,302.5v-22.3v-1.6v-6.4c0-0.9-0.7-1.6-1.6-1.6c-0.9,0-1.6,0.7-1.6,1.6v6.2
			c-2.7-0.7-4.8-3.2-4.8-6.2c0-3.5,2.8-6.4,6.4-6.4c3.5,0,6.4,2.9,6.4,6.4v4.8v8v3.2v14.3H294.4z M332.7,299.3v-4.8
			c0-0.9-0.7-1.6-1.6-1.6c-0.9,0-1.6,0.7-1.6,1.6v4.8h-27.1v-11.2h57.4v11.2H332.7z M370.9,278.4v-6.2c0-0.9-0.7-1.6-1.6-1.6
			c-0.9,0-1.6,0.7-1.6,1.6v6.4v1.6v22.3H363v-14.3V285v-8v-4.8c0-3.5,2.9-6.4,6.4-6.4c3.5,0,6.4,2.9,6.4,6.4
			C375.7,275.2,373.7,277.7,370.9,278.4L370.9,278.4z"/>
		<path fill-rule="evenodd" clip-rule="evenodd" fill="#818282" d="M307.6,270.1c0.3,0.3,0.7,0.5,1.1,0.5s0.8-0.1,1.1-0.5l1.4-1.5
			c0.7,0.3,1.4,0.5,2.2,0.5c0.7,0,1.5-0.2,2.2-0.5l1.5,1.5c0.3,0.3,0.7,0.5,1.1,0.5c0.4,0,0.8-0.1,1.1-0.5c0.6-0.6,0.6-1.6,0-2.3
			l-1.5-1.4c0.7-1.4,0.7-3,0-4.4l1.5-1.4c0.6-0.6,0.6-1.6,0-2.3c-0.6-0.6-1.6-0.6-2.2,0l-1.5,1.5c-1.4-0.7-3-0.7-4.4,0l-1.4-1.5
			c-0.6-0.6-1.6-0.6-2.3,0c-0.6,0.6-0.6,1.6,0,2.3l1.5,1.4c-0.7,1.4-0.7,3,0,4.4l-1.5,1.5C307,268.5,307,269.5,307.6,270.1
			L307.6,270.1z M314.8,263c0.7,0.7,0.7,1.8,0,2.5c-0.7,0.7-1.8,0.7-2.5,0c-0.7-0.7-0.7-1.8,0-2.5c0.3-0.3,0.8-0.5,1.3-0.5
			C314,262.4,314.5,262.6,314.8,263L314.8,263z"/>
		<path fill="#818282" d="M331.1,207.3c19.2,0,36.7,7.8,49.3,20.4c12.6,12.6,20.4,30,20.4,49.2c0,19.2-7.8,36.7-20.4,49.3
			c-12.6,12.6-30,20.4-49.3,20.4c-19.2,0-36.7-7.8-49.2-20.4c-12.6-12.6-20.4-30-20.4-49.3c0-19.2,7.8-36.6,20.4-49.2
			C294.4,215.1,311.9,207.3,331.1,207.3L331.1,207.3z M376.6,231.5c-11.6-11.7-27.7-18.9-45.5-18.9s-33.8,7.2-45.5,18.9
			c-11.7,11.7-18.9,27.8-18.9,45.5c0,17.8,7.2,33.9,18.9,45.5c11.7,11.6,27.7,18.8,45.5,18.8s33.9-7.2,45.5-18.8
			c11.7-11.7,18.9-27.8,18.9-45.5C395.4,259.2,388.2,243.1,376.6,231.5L376.6,231.5z"/>
	</g>
</g>
<g>
	<rect x="208.5" y="204.6" fill-rule="evenodd" clip-rule="evenodd" fill="#AFDBF1" width="10.9" height="65.4"/>
</g>
<g>
	<rect x="114" y="482.3" fill-rule="evenodd" clip-rule="evenodd" fill="#AFDBF1" width="10.9" height="100.1"/>
</g>
<polygon fill-rule="evenodd" clip-rule="evenodd" fill="#AFDBF1" points="204.2,67.4 99.1,67.4 88.2,67.4 88.2,67.4 88.2,78.3 
	88.2,78.3 88.2,427.6 99.1,427.6 99.1,78.3 204.2,78.3 "/>
<g>
	<rect x="460.4" y="93.6" fill-rule="evenodd" clip-rule="evenodd" fill="#AFDBF1" width="98.8" height="10.9"/>
</g>
<g>
	<rect x="282.6" y="93.6" fill-rule="evenodd" clip-rule="evenodd" fill="#AFDBF1" width="98.1" height="10.9"/>
</g>
</svg>
