<?xml version="1.0" encoding="utf-8"?>
<!-- Generator: Adobe Illustrator 21.1.0, SVG Export Plug-In . SVG Version: 6.00 Build 0)  -->
<svg version="1.1" id="Layer_1" xmlns="http://www.w3.org/2000/svg" xmlns:xlink="http://www.w3.org/1999/xlink" x="0px" y="0px"
	 viewBox="0 0 1000 700" enable-background="new 0 0 1000 700" xml:space="preserve">
<path fill="#F5F5F5" d="M400,406.7v-35.6h-22.4v-2.5l-16.4-0.1v6.6h-78.8L282,546.3h141.1V409.4L400,406.7z M318.2,525.1h-23.9v-6.8
	h23.9V525.1z M411,525.1h-23.9v-6.8H411V525.1z"/>
<path fill="#F5F5F5" d="M633.2,375.1v-6.6l-16.8,0.1v2.5h-16.7v35.6l-23.8,2.7v136.9H719l0.1-171.2H633.2z M611.8,525.1h-23.6v-6.8
	h23.6V525.1z M704.5,525.1h-23.7v-6.8h23.7V525.1z"/>
<polygon fill="#AFDBF1" points="951.5,419.1 951.4,525.4 920.8,525.6 914.2,518.5 849.2,518.5 795.5,518.4 795.5,375 799.2,375 
	799.2,368.5 817.7,368.5 817.6,375 822.6,375 829.4,355.2 946.1,355.2 946.1,412.5 "/>
<polygon fill="#EAEAEA" points="765.6,518.5 740.5,518.3 740.8,520.4 740.7,523.2 740.5,525.1 765.6,525.2 790.3,525.2 790.3,546 
	723.7,546 723.7,419.5 768.2,419.5 768.2,416.8 762.5,416.8 762.5,401.3 759.6,401.3 759.6,416.8 723.7,416.8 723.7,375.3 
	759.6,375.3 759.6,384.7 762.5,384.7 762.5,375.3 762.5,369.3 762.5,368.5 784.3,368.5 784.3,368.5 784.3,375.3 790.3,375.3 
	790.3,518.5 "/>
<polygon fill="#A3CED8" points="52.9,412.7 52.9,355.5 169.6,355.5 176.4,375.3 183.4,375.3 183.4,368.5 199.7,368.5 199.7,375.3 
	203.4,375.3 203.4,518.5 149.7,518.5 84.8,518.5 78.1,525.5 47.4,525.5 47.4,419.4 "/>
<polygon fill="#AFDBF1" points="47.7,284.6 47.7,178.5 78.4,178.5 85.1,185.5 150,185.5 203.7,185.5 203.7,328.7 200,328.7 
	200,335.5 183.7,335.5 183.7,328.7 176.6,328.7 169.9,348.5 53.1,348.5 53.1,291.3 "/>
<polygon fill="#A3CED8" points="951.4,284.6 951.4,178.5 920.8,178.5 914.1,185.5 849.1,185.5 795.4,185.5 795.4,328.7 801.1,328.7 
	801.1,335.5 817.3,335.5 817.3,328.7 822.5,328.7 829.3,348.5 946,348.5 946.1,291.4 "/>
<path fill="#EAEAEA" d="M789.1,287.1v41.6H753v-9.5h-2.6v9.5v6v0.5h-20.3v-6.8h-6V156h65.4v22.6h-24.6v6.8h24.6v99.1h-42.8v2.6h3.9
	v15.6h2.6v-15.6L789.1,287.1L789.1,287.1z M764.5,183.4v-2.6v-2h-23.9v2v2.6v2h23.9V183.4z"/>
<path fill="#F5F5F5" d="M717.3,185.4v143.2h-6v6.8h-20.8v-0.5v-6v-9.5h-2.6v9.5H650v-41.6h37.9v15.6h2.6v-15.6h4.8v-2.6h-45.5V156.2
	h67.7v22.6h-26.1v6.8L717.3,185.4L717.3,185.4z M691.1,183.4v-2.6v-2h-23.9v2v2.6v2h23.9V183.4z"/>
<polygon fill="#EAEAEA" points="582.5,335.5 582.5,328.7 576.4,328.7 576.4,156 576.4,156 642.8,156 642.8,156 642.8,178.6 
	618.1,178.6 618.1,178.6 594.2,178.6 594.2,180.7 594.2,183.4 594.2,185.4 618.1,185.4 618.1,185.4 642.8,185.4 642.8,284.5 
	598.6,284.5 598.6,287.1 601.9,287.1 601.9,302.7 604.5,302.7 604.5,287.1 642.8,287.1 642.8,328.7 604.5,328.7 604.5,319.3 
	601.9,319.3 601.9,328.7 601.9,334.7 601.9,335.5 "/>
<polygon fill="#F5F5F5" points="569.6,185.4 569.6,328.7 563.6,328.7 563.6,335.5 563.6,335.5 544,335.5 544,334.7 544,328.7 
	544,319.3 541.1,319.3 541.1,328.7 503.3,328.7 503.3,287.1 541.1,287.1 541.1,302.7 544,302.7 544,287.1 547.4,287.1 547.4,284.5 
	503.3,284.5 503.3,156 569.6,156 569.6,178.6 544.8,178.6 520.9,178.6 520.9,180.7 520.9,183.4 520.9,185.4 544.8,185.4 "/>
<path fill="#EAEAEA" d="M496.5,287.1v41.6h-38.3v-9.5h-2.6v9.5v6v0.5l0,0h-19.5v-6.8h-6V156h66.5h0.1v22.6h-24.9v6.8h24.9v99.1
	h-44.4v2.6h3.5v15.6h2.6v-15.6L496.5,287.1L496.5,287.1L496.5,287.1z M471.4,183.4v-2.6v-2h-23.9v2v2.6v2h23.9V183.4z"/>
<path fill="#F5F5F5" d="M423.1,185.4v143.2h-6v6.8l0,0h-19.6l0,0v-0.5v-6v-9.5h-2.6v9.5h-38.1v-41.6h38.1v15.6h2.6v-15.6h3.4v-2.6
	h-44.3V156.2h66.5v22.6h-24.9v6.8L423.1,185.4L423.1,185.4z M398.2,183.4v-2.6v-2h-24v2v2.6v2h24V183.4z"/>
<path fill="#EAEAEA" d="M289.6,335.5v-6.8h-6V156H350h0.1v22.6h-24.9v6.8h24.9v98.9h-44.3v2.6h4.3v15.6h2.6V287H350v41.6h-37.1v-9.5
	H310v15.5v0.5L289.6,335.5L289.6,335.5z M324.9,183.4v-2.6v-2h-23.9v2v2.6v2h23.9V183.4z"/>
<polygon fill="#F5F5F5" points="276.8,185.4 276.8,328.7 270.8,328.7 270.8,335.5 270.8,335.5 248.9,335.5 248.9,334.7 248.9,328.7 
	248.9,319.3 246.1,319.3 246.1,328.7 210.2,328.7 210.2,287.1 246.1,287.1 246.1,302.7 248.9,302.7 248.9,287.1 254.6,287.1 
	254.6,284.5 210.2,284.5 210.2,156 276.8,156 276.8,178.6 252.1,178.6 228.2,178.6 228.2,180.7 228.2,183.4 228.2,185.4 
	252.1,185.4 "/>
<rect x="104" y="178.7" fill="none" stroke="#777777" stroke-width="0.5" stroke-linecap="round" stroke-linejoin="round" stroke-miterlimit="10" width="30" height="6.8"/>
<rect x="104" y="180.8" fill="none" stroke="#777777" stroke-width="0.5" stroke-linecap="round" stroke-linejoin="round" stroke-miterlimit="10" width="30" height="2.6"/>
<rect x="159.4" y="178.7" fill="none" stroke="#777777" stroke-width="0.5" stroke-linecap="round" stroke-linejoin="round" stroke-miterlimit="10" width="29.5" height="6.8"/>
<rect x="159.4" y="180.8" fill="none" stroke="#777777" stroke-width="0.5" stroke-linecap="round" stroke-linejoin="round" stroke-miterlimit="10" width="29.5" height="2.6"/>
<rect x="228.2" y="178.7" fill="none" stroke="#777777" stroke-width="0.5" stroke-linecap="round" stroke-linejoin="round" stroke-miterlimit="10" width="23.9" height="6.8"/>
<rect x="228.2" y="180.8" fill="none" stroke="#777777" stroke-width="0.5" stroke-linecap="round" stroke-linejoin="round" stroke-miterlimit="10" width="23.9" height="2.6"/>
<rect x="210.2" y="149.4" fill="none" stroke="#777777" stroke-width="0.5" stroke-linecap="round" stroke-linejoin="round" stroke-miterlimit="10" width="66.4" height="6.8"/>
<rect x="210.2" y="151.4" fill="none" stroke="#777777" stroke-width="0.5" stroke-linecap="round" stroke-linejoin="round" stroke-miterlimit="10" width="66.4" height="2.6"/>
<rect x="283.4" y="149.4" fill="none" stroke="#777777" stroke-width="0.5" stroke-linecap="round" stroke-linejoin="round" stroke-miterlimit="10" width="66.4" height="6.8"/>
<rect x="283.4" y="151.4" fill="none" stroke="#777777" stroke-width="0.5" stroke-linecap="round" stroke-linejoin="round" stroke-miterlimit="10" width="66.4" height="2.6"/>
<rect x="356.6" y="149.4" fill="none" stroke="#777777" stroke-width="0.5" stroke-linecap="round" stroke-linejoin="round" stroke-miterlimit="10" width="66.5" height="6.8"/>
<rect x="356.6" y="151.4" fill="none" stroke="#777777" stroke-width="0.5" stroke-linecap="round" stroke-linejoin="round" stroke-miterlimit="10" width="66.5" height="2.6"/>
<rect x="429.9" y="149.4" fill="none" stroke="#777777" stroke-width="0.5" stroke-linecap="round" stroke-linejoin="round" stroke-miterlimit="10" width="66.5" height="6.8"/>
<rect x="429.9" y="151.4" fill="none" stroke="#777777" stroke-width="0.5" stroke-linecap="round" stroke-linejoin="round" stroke-miterlimit="10" width="66.5" height="2.6"/>
<rect x="503.1" y="149.4" fill="none" stroke="#777777" stroke-width="0.5" stroke-linecap="round" stroke-linejoin="round" stroke-miterlimit="10" width="66.4" height="6.8"/>
<rect x="503.1" y="151.4" fill="none" stroke="#777777" stroke-width="0.5" stroke-linecap="round" stroke-linejoin="round" stroke-miterlimit="10" width="66.4" height="2.6"/>
<rect x="576.4" y="149.4" fill="none" stroke="#777777" stroke-width="0.5" stroke-linecap="round" stroke-linejoin="round" stroke-miterlimit="10" width="66.4" height="6.8"/>
<rect x="576.4" y="151.4" fill="none" stroke="#777777" stroke-width="0.5" stroke-linecap="round" stroke-linejoin="round" stroke-miterlimit="10" width="66.4" height="2.6"/>
<rect x="649.6" y="149.4" fill="none" stroke="#777777" stroke-width="0.5" stroke-linecap="round" stroke-linejoin="round" stroke-miterlimit="10" width="67.7" height="6.8"/>
<rect x="649.6" y="151.4" fill="none" stroke="#777777" stroke-width="0.5" stroke-linecap="round" stroke-linejoin="round" stroke-miterlimit="10" width="67.7" height="2.6"/>
<rect x="724" y="149.4" fill="none" stroke="#777777" stroke-width="0.5" stroke-linecap="round" stroke-linejoin="round" stroke-miterlimit="10" width="65.4" height="6.8"/>
<rect x="724" y="151.4" fill="none" stroke="#777777" stroke-width="0.5" stroke-linecap="round" stroke-linejoin="round" stroke-miterlimit="10" width="65.4" height="2.6"/>
<rect x="951.4" y="178.5" fill="none" stroke="#777777" stroke-width="0.5" stroke-linecap="round" stroke-linejoin="round" stroke-miterlimit="10" width="6.8" height="106.1"/>
<rect x="953.4" y="178.5" fill="none" stroke="#777777" stroke-width="0.5" stroke-linecap="round" stroke-linejoin="round" stroke-miterlimit="10" width="2.6" height="106.1"/>
<rect x="945.9" y="302.3" fill="none" stroke="#777777" stroke-width="0.5" stroke-linecap="round" stroke-linejoin="round" stroke-miterlimit="10" width="6.8" height="29.9"/>
<rect x="948" y="302.3" fill="none" stroke="#777777" stroke-width="0.5" stroke-linecap="round" stroke-linejoin="round" stroke-miterlimit="10" width="2.6" height="29.9"/>
<rect x="945.9" y="371.7" fill="none" stroke="#777777" stroke-width="0.5" stroke-linecap="round" stroke-linejoin="round" stroke-miterlimit="10" width="6.8" height="30"/>
<rect x="948" y="371.7" fill="none" stroke="#777777" stroke-width="0.5" stroke-linecap="round" stroke-linejoin="round" stroke-miterlimit="10" width="2.6" height="30"/>
<rect x="914.2" y="215.1" fill="none" stroke="#777777" stroke-width="0.5" stroke-linecap="round" stroke-linejoin="round" stroke-miterlimit="10" width="6.8" height="23.6"/>
<rect x="916.2" y="215.1" fill="none" stroke="#777777" stroke-width="0.5" stroke-linecap="round" stroke-linejoin="round" stroke-miterlimit="10" width="2.6" height="23.6"/>
<rect x="914.2" y="465" fill="none" stroke="#777777" stroke-width="0.5" stroke-linecap="round" stroke-linejoin="round" stroke-miterlimit="10" width="6.8" height="23.6"/>
<rect x="916.2" y="465" fill="none" stroke="#777777" stroke-width="0.5" stroke-linecap="round" stroke-linejoin="round" stroke-miterlimit="10" width="2.6" height="23.6"/>
<rect x="78.2" y="215.1" fill="none" stroke="#777777" stroke-width="0.5" stroke-linecap="round" stroke-linejoin="round" stroke-miterlimit="10" width="6.8" height="23.6"/>
<rect x="80.2" y="215.1" fill="none" stroke="#777777" stroke-width="0.5" stroke-linecap="round" stroke-linejoin="round" stroke-miterlimit="10" width="2.6" height="23.6"/>
<rect x="78.2" y="465" fill="none" stroke="#777777" stroke-width="0.5" stroke-linecap="round" stroke-linejoin="round" stroke-miterlimit="10" width="6.8" height="23.6"/>
<rect x="80.2" y="465" fill="none" stroke="#777777" stroke-width="0.5" stroke-linecap="round" stroke-linejoin="round" stroke-miterlimit="10" width="2.6" height="23.6"/>
<rect x="40.9" y="178.5" fill="none" stroke="#777777" stroke-width="0.5" stroke-linecap="round" stroke-linejoin="round" stroke-miterlimit="10" width="6.8" height="106.1"/>
<rect x="42.9" y="178.5" fill="none" stroke="#777777" stroke-width="0.5" stroke-linecap="round" stroke-linejoin="round" stroke-miterlimit="10" width="2.6" height="106.1"/>
<rect x="46.5" y="302.3" fill="none" stroke="#777777" stroke-width="0.5" stroke-linecap="round" stroke-linejoin="round" stroke-miterlimit="10" width="6.8" height="29.9"/>
<rect x="48.5" y="302.3" fill="none" stroke="#777777" stroke-width="0.5" stroke-linecap="round" stroke-linejoin="round" stroke-miterlimit="10" width="2.6" height="29.9"/>
<rect x="46.5" y="371.7" fill="none" stroke="#777777" stroke-width="0.5" stroke-linecap="round" stroke-linejoin="round" stroke-miterlimit="10" width="6.8" height="30"/>
<rect x="48.5" y="371.7" fill="none" stroke="#777777" stroke-width="0.5" stroke-linecap="round" stroke-linejoin="round" stroke-miterlimit="10" width="2.6" height="30"/>
<rect x="301.1" y="178.7" fill="none" stroke="#777777" stroke-width="0.5" stroke-linecap="round" stroke-linejoin="round" stroke-miterlimit="10" width="23.9" height="6.8"/>
<rect x="301.1" y="180.8" fill="none" stroke="#777777" stroke-width="0.5" stroke-linecap="round" stroke-linejoin="round" stroke-miterlimit="10" width="23.9" height="2.6"/>
<rect x="374.2" y="178.7" fill="none" stroke="#777777" stroke-width="0.5" stroke-linecap="round" stroke-linejoin="round" stroke-miterlimit="10" width="23.9" height="6.8"/>
<rect x="374.2" y="180.8" fill="none" stroke="#777777" stroke-width="0.5" stroke-linecap="round" stroke-linejoin="round" stroke-miterlimit="10" width="23.9" height="2.6"/>
<rect x="447.4" y="178.7" fill="none" stroke="#777777" stroke-width="0.5" stroke-linecap="round" stroke-linejoin="round" stroke-miterlimit="10" width="23.9" height="6.8"/>
<rect x="447.4" y="180.8" fill="none" stroke="#777777" stroke-width="0.5" stroke-linecap="round" stroke-linejoin="round" stroke-miterlimit="10" width="23.9" height="2.6"/>
<rect x="520.8" y="178.7" fill="none" stroke="#777777" stroke-width="0.5" stroke-linecap="round" stroke-linejoin="round" stroke-miterlimit="10" width="23.9" height="6.8"/>
<rect x="520.8" y="180.8" fill="none" stroke="#777777" stroke-width="0.5" stroke-linecap="round" stroke-linejoin="round" stroke-miterlimit="10" width="23.9" height="2.6"/>
<polygon fill="none" stroke="#777777" stroke-width="0.5" stroke-linecap="round" stroke-linejoin="round" stroke-miterlimit="10" points="
	951.4,419.7 951.4,525.4 920.8,525.4 920.8,532.2 958.1,532.2 958.1,532.2 958.1,525.4 958.1,419.7 "/>
<rect x="594.1" y="178.7" fill="none" stroke="#777777" stroke-width="0.5" stroke-linecap="round" stroke-linejoin="round" stroke-miterlimit="10" width="23.9" height="6.8"/>
<rect x="594.1" y="180.8" fill="none" stroke="#777777" stroke-width="0.5" stroke-linecap="round" stroke-linejoin="round" stroke-miterlimit="10" width="23.9" height="2.6"/>
<rect x="667.1" y="178.7" fill="none" stroke="#777777" stroke-width="0.5" stroke-linecap="round" stroke-linejoin="round" stroke-miterlimit="10" width="23.9" height="6.8"/>
<rect x="667.1" y="180.8" fill="none" stroke="#777777" stroke-width="0.5" stroke-linecap="round" stroke-linejoin="round" stroke-miterlimit="10" width="23.9" height="2.6"/>
<rect x="740.5" y="178.7" fill="none" stroke="#777777" stroke-width="0.5" stroke-linecap="round" stroke-linejoin="round" stroke-miterlimit="10" width="23.9" height="6.8"/>
<rect x="740.5" y="180.8" fill="none" stroke="#777777" stroke-width="0.5" stroke-linecap="round" stroke-linejoin="round" stroke-miterlimit="10" width="23.9" height="2.6"/>
<rect x="810.2" y="178.7" fill="none" stroke="#777777" stroke-width="0.5" stroke-linecap="round" stroke-linejoin="round" stroke-miterlimit="10" width="29.5" height="6.8"/>
<rect x="810.2" y="180.8" fill="none" stroke="#777777" stroke-width="0.5" stroke-linecap="round" stroke-linejoin="round" stroke-miterlimit="10" width="29.5" height="2.6"/>
<rect x="210.1" y="546.3" fill="none" stroke="#777777" stroke-width="0.5" stroke-linecap="round" stroke-linejoin="round" stroke-miterlimit="10" width="66.7" height="6.8"/>
<rect x="210.1" y="548.5" fill="none" stroke="#777777" stroke-width="0.5" stroke-linecap="round" stroke-linejoin="round" stroke-miterlimit="10" width="66.7" height="2.6"/>
<rect x="283.6" y="546.3" fill="none" stroke="#777777" stroke-width="0.5" stroke-linecap="round" stroke-linejoin="round" stroke-miterlimit="10" width="66.3" height="6.8"/>
<rect x="283.6" y="548.5" fill="none" stroke="#777777" stroke-width="0.5" stroke-linecap="round" stroke-linejoin="round" stroke-miterlimit="10" width="66.3" height="2.6"/>
<rect x="352.9" y="546.3" fill="none" stroke="#777777" stroke-width="0.5" stroke-linecap="round" stroke-linejoin="round" stroke-miterlimit="10" width="70.2" height="6.8"/>
<rect x="352.9" y="548.5" fill="none" stroke="#777777" stroke-width="0.5" stroke-linecap="round" stroke-linejoin="round" stroke-miterlimit="10" width="70.2" height="2.6"/>
<rect x="576.9" y="546.3" fill="none" stroke="#777777" stroke-width="0.5" stroke-linecap="round" stroke-linejoin="round" stroke-miterlimit="10" width="69.9" height="6.8"/>
<rect x="576.9" y="548.5" fill="none" stroke="#777777" stroke-width="0.5" stroke-linecap="round" stroke-linejoin="round" stroke-miterlimit="10" width="69.9" height="2.6"/>
<rect x="649.7" y="546.3" fill="none" stroke="#777777" stroke-width="0.5" stroke-linecap="round" stroke-linejoin="round" stroke-miterlimit="10" width="67.5" height="6.8"/>
<rect x="649.7" y="548.5" fill="none" stroke="#777777" stroke-width="0.5" stroke-linecap="round" stroke-linejoin="round" stroke-miterlimit="10" width="67.5" height="2.6"/>
<rect x="724.1" y="546.3" fill="none" stroke="#777777" stroke-width="0.5" stroke-linecap="round" stroke-linejoin="round" stroke-miterlimit="10" width="65.1" height="6.8"/>
<rect x="724.1" y="548.5" fill="none" stroke="#777777" stroke-width="0.5" stroke-linecap="round" stroke-linejoin="round" stroke-miterlimit="10" width="65.1" height="2.6"/>
<rect x="159.4" y="518.3" fill="none" stroke="#777777" stroke-width="0.5" stroke-linecap="round" stroke-linejoin="round" stroke-miterlimit="10" width="29.5" height="6.8"/>
<rect x="159.4" y="520.5" fill="none" stroke="#777777" stroke-width="0.5" stroke-linecap="round" stroke-linejoin="round" stroke-miterlimit="10" width="29.5" height="2.6"/>
<rect x="104" y="518.3" fill="none" stroke="#777777" stroke-width="0.5" stroke-linecap="round" stroke-linejoin="round" stroke-miterlimit="10" width="30" height="6.8"/>
<rect x="104" y="520.5" fill="none" stroke="#777777" stroke-width="0.5" stroke-linecap="round" stroke-linejoin="round" stroke-miterlimit="10" width="30" height="2.6"/>
<rect x="294.5" y="518.3" fill="none" stroke="#777777" stroke-width="0.5" stroke-linecap="round" stroke-linejoin="round" stroke-miterlimit="10" width="23.7" height="6.8"/>
<rect x="294.5" y="520.5" fill="none" stroke="#777777" stroke-width="0.5" stroke-linecap="round" stroke-linejoin="round" stroke-miterlimit="10" width="23.7" height="2.6"/>
<rect x="387.1" y="518.3" fill="none" stroke="#777777" stroke-width="0.5" stroke-linecap="round" stroke-linejoin="round" stroke-miterlimit="10" width="23.9" height="6.8"/>
<rect x="387.1" y="520.5" fill="none" stroke="#777777" stroke-width="0.5" stroke-linecap="round" stroke-linejoin="round" stroke-miterlimit="10" width="23.9" height="2.6"/>
<rect x="588.2" y="518.3" fill="none" stroke="#777777" stroke-width="0.5" stroke-linecap="round" stroke-linejoin="round" stroke-miterlimit="10" width="23.6" height="6.8"/>
<rect x="588.2" y="520.5" fill="none" stroke="#777777" stroke-width="0.5" stroke-linecap="round" stroke-linejoin="round" stroke-miterlimit="10" width="23.6" height="2.6"/>
<rect x="680.8" y="518.3" fill="none" stroke="#777777" stroke-width="0.5" stroke-linecap="round" stroke-linejoin="round" stroke-miterlimit="10" width="23.7" height="6.8"/>
<rect x="680.8" y="520.5" fill="none" stroke="#777777" stroke-width="0.5" stroke-linecap="round" stroke-linejoin="round" stroke-miterlimit="10" width="23.7" height="2.6"/>
<rect x="740.5" y="518.3" fill="none" stroke="#777777" stroke-width="0.5" stroke-linecap="round" stroke-linejoin="round" stroke-miterlimit="10" width="23.9" height="6.8"/>
<rect x="810.2" y="518.3" fill="none" stroke="#777777" stroke-width="0.5" stroke-linecap="round" stroke-linejoin="round" stroke-miterlimit="10" width="29.5" height="6.8"/>
<rect x="810.2" y="520.5" fill="none" stroke="#777777" stroke-width="0.5" stroke-linecap="round" stroke-linejoin="round" stroke-miterlimit="10" width="29.5" height="2.6"/>
<rect x="865.4" y="518.3" fill="none" stroke="#777777" stroke-width="0.5" stroke-linecap="round" stroke-linejoin="round" stroke-miterlimit="10" width="29.5" height="6.8"/>
<rect x="865.4" y="520.5" fill="none" stroke="#777777" stroke-width="0.5" stroke-linecap="round" stroke-linejoin="round" stroke-miterlimit="10" width="29.5" height="2.6"/>
<rect x="865.4" y="178.7" fill="none" stroke="#777777" stroke-width="0.5" stroke-linecap="round" stroke-linejoin="round" stroke-miterlimit="10" width="29.5" height="6.8"/>
<rect x="865.4" y="180.8" fill="none" stroke="#777777" stroke-width="0.5" stroke-linecap="round" stroke-linejoin="round" stroke-miterlimit="10" width="29.5" height="2.6"/>
<polygon fill="none" stroke="#777777" stroke-width="0.5" stroke-linecap="round" stroke-linejoin="round" stroke-miterlimit="10" points="
	956.1,419.7 953.4,419.7 953.4,527.4 920.8,527.4 920.8,530.2 956.1,530.2 956.1,530.2 956.1,530.2 "/>
<polygon fill="none" stroke="#777777" stroke-width="0.5" stroke-linecap="round" stroke-linejoin="round" stroke-miterlimit="10" points="
	47.7,419 47.7,525.3 78.2,525.3 78.2,532 40.9,532 40.9,532 40.9,525.3 40.9,419 "/>
<polygon fill="none" stroke="#777777" stroke-width="0.5" stroke-linecap="round" stroke-linejoin="round" stroke-miterlimit="10" points="
	42.9,419 45.6,419 45.6,527.4 78.2,527.4 78.2,530 42.9,530 42.9,530 42.9,530 "/>
<rect x="495.4" y="391.4" fill="#999999" width="22.4" height="21.1"/>
<rect x="495.4" y="427.1" fill="#999999" width="22.4" height="44.6"/>
<g>
	<path fill="#999999" d="M973.4,411.8l5.4-2c0.6-0.1,1.4-0.4,1.9-0.6l0,0c-0.5-0.1-1.2-0.4-1.9-0.6l-5.4-1.7V405l6.5,2.5
		c3.1,1.2,4.6,2,5.6,3.1c0.6,0.8,1.1,1.6,1.1,2l-1.4,0.4c-0.1-0.4-0.4-0.8-0.8-1.4c-0.4-0.4-1.1-1.1-1.9-1.4
		c-0.1-0.1-0.4-0.1-0.4-0.1s-0.1,0-0.4,0.1l-8.1,3.2L973.4,411.8L973.4,411.8z"/>
	<path fill="#999999" d="M973.4,396.8h9.1v1.7h-7.7v3.1h2.4c2.5,0,4.3,0.1,4.9,1.4c0.4,0.4,0.5,0.8,0.5,1.7l-1.2,0.1
		c-0.1-0.4-0.1-0.6-0.4-0.8c-0.6-0.8-1.9-0.8-3.9-0.8h-3.9L973.4,396.8L973.4,396.8z"/>
	<path fill="#999999" d="M981.4,394.5c-0.6,0-1.2-0.5-1.2-1.2c0-0.6,0.5-1.2,1.2-1.2s1.2,0.4,1.2,1.2
		C982.6,394.2,982.1,394.5,981.4,394.5z"/>
	<path fill="#999999" d="M976.8,375.8c-1.7,0.1-3.7,0.1-5.4,0.1v0.1c1.4,0.4,3.1,0.8,4.8,1.6l6.1,2.3v1.2l-6,2
		c-1.7,0.6-3.5,1.2-4.8,1.4l0,0c1.6,0,3.6,0.1,5.6,0.1l5.4,0.4v1.6l-12.4-0.8v-2l6.1-2.3c1.6-0.5,2.9-0.8,4.3-1.2v-0.1
		c-1.2-0.4-2.6-0.6-4.3-1.4l-6.1-2.3v-2l12.4-0.8v1.6L976.8,375.8z"/>
	<path fill="#999999" d="M981.4,371.8c-0.6,0-1.2-0.5-1.2-1.2c0-0.6,0.5-1.2,1.2-1.2s1.2,0.4,1.2,1.2
		C982.6,371.5,982.1,371.8,981.4,371.8z"/>
	<path fill="#999999" d="M969.9,357h1.4v5.1h11.1v1.7h-12.4V357L969.9,357z"/>
	<path fill="#999999" d="M977.9,349.1c3.2,0,4.8,2.3,4.8,4.4c0,2.5-1.7,4.3-4.6,4.3c-3.1,0-4.8-2-4.8-4.4
		C973.1,351,975.1,349.1,977.9,349.1z M977.9,356.3c2,0,3.5-1.2,3.5-2.6c0-1.6-1.4-2.6-3.6-2.6c-1.6,0-3.5,0.6-3.5,2.6
		C974.4,355.4,976.1,356.3,977.9,356.3z"/>
	<path fill="#999999" d="M976.2,347.1c-1.2,0-2,0-2.9,0.1v-1.4l1.6-0.1l0,0c-1.2-0.6-1.7-1.7-1.7-3.2c0-2.3,1.9-3.7,4.6-3.7
		c3.2,0,4.8,2,4.8,4.1c0,1.2-0.5,2.3-1.4,2.6l0,0h4.8v1.7L976.2,347.1L976.2,347.1z M978.6,345.5c0.1,0,0.5,0,0.6-0.1
		c1.2-0.4,2-1.2,2-2.5c0-1.7-1.4-2.6-3.6-2.6c-1.7,0-3.2,0.8-3.2,2.6c0,1.2,0.8,2.3,2,2.5c0.1,0.1,0.4,0.1,0.6,0.1H978.6z"/>
	<path fill="#999999" d="M973.4,335h3.1c-0.1-0.4-0.1-1.1-0.1-1.4c0-2,0.6-4.1,3.1-4.1c0.8,0,1.6,0.4,2,0.8c0.8,1.1,1.1,2.5,1.1,3.9
		c0,0.8-0.1,1.7-0.1,2.4h-9.1L973.4,335L973.4,335z M981.1,335c0-0.4,0.1-0.6,0.1-1.2c0-1.2-0.4-2.6-2-2.6s-1.9,1.7-1.9,2.9
		c0,0.4,0,0.8,0.1,1.2L981.1,335L981.1,335z"/>
	<path fill="#999999" d="M973.4,325.7h3.9v-0.4l-3.9-3.5v-2l4.1,3.9c0.1-1.4,1.2-2.4,2.6-3.1c0.6-0.1,1.4-0.5,2.3-0.8v1.7
		c-0.4,0.1-1.2,0.5-1.9,0.8c-1.4,0.6-2.3,1.4-2.3,3.1v0.4h3.9v1.7h-9.1v-1.7h0.1v-0.1L973.4,325.7L973.4,325.7z"/>
	<path fill="#999999" d="M977.9,310.5c3.2,0,4.8,2.3,4.8,4.4c0,2.5-1.7,4.3-4.6,4.3c-3.1,0-4.8-2-4.8-4.4
		C973.1,312,975.1,310.5,977.9,310.5z M977.9,317.4c2,0,3.5-1.2,3.5-2.6c0-1.6-1.4-2.6-3.6-2.6c-1.6,0-3.5,0.6-3.5,2.6
		C974.4,316.7,976.1,317.4,977.9,317.4z"/>
	<path fill="#999999" d="M973.4,302.7h1.4v3.9h7.7v1.7h-9.1V302.7L973.4,302.7z"/>
	<path fill="#999999" d="M977.9,293.4c3.2,0,4.8,2.3,4.8,4.4c0,2.5-1.7,4.3-4.6,4.3c-3.1,0-4.8-2-4.8-4.4
		C973.1,295.1,975.1,293.4,977.9,293.4z M977.9,300.3c2,0,3.5-1.2,3.5-2.6c0-1.4-1.4-2.6-3.6-2.6c-1.6,0-3.5,0.6-3.5,2.6
		C974.4,299.7,976.1,300.3,977.9,300.3z"/>
</g>
<g>
	<path fill="#999999" d="M441.7,568.5l2,5.4c0.1,0.6,0.4,1.4,0.6,1.9l0,0c0.1-0.5,0.4-1.2,0.6-1.9l1.7-5.4h1.7l-2.5,6.5
		c-1.2,3.1-2,4.6-3.1,5.6c-0.8,0.6-1.6,1.1-2,1.1l-0.4-1.4c0.4-0.1,0.8-0.4,1.4-0.8c0.4-0.4,1.1-1.1,1.4-1.9
		c0.1-0.1,0.1-0.4,0.1-0.4c0-0.1,0-0.1-0.1-0.4l-3.2-8.1C439.7,568.5,441.7,568.5,441.7,568.5z"/>
	<path fill="#999999" d="M456.5,568.5v9.1h-1.7v-7.7h-3.1v2.4c0,2.5-0.1,4.3-1.4,4.9c-0.4,0.4-0.8,0.5-1.7,0.5l-0.1-1.2
		c0.4-0.1,0.6-0.1,0.8-0.4c0.8-0.6,0.8-1.9,0.8-3.9v-3.6L456.5,568.5L456.5,568.5z"/>
	<path fill="#999999" d="M458.6,576.7c0-0.6,0.5-1.2,1.2-1.2c0.7,0,1.2,0.5,1.2,1.2s-0.4,1.2-1.2,1.2
		C459.1,577.7,458.6,577.1,458.6,576.7z"/>
	<path fill="#999999" d="M468.6,565.1v5.6h0.5l4.3-5.6h2l-4.8,5.7c2,0.4,2.9,1.6,3.6,3.2c0.5,1.2,0.8,2.5,1.4,3.6h-1.7
		c-0.4-0.8-0.8-2-1.2-3.1c-0.6-1.7-1.4-2.6-3.6-2.6h-0.5v5.7H467v-12.4L468.6,565.1L468.6,565.1L468.6,565.1L468.6,565.1z"/>
	<path fill="#999999" d="M477.3,568.5l2,5.4c0.1,0.6,0.4,1.4,0.6,1.9l0,0c0.1-0.5,0.4-1.2,0.6-1.9l1.7-5.4h1.7l-2.5,6.5
		c-1.2,3.1-2,4.6-3.1,5.6c-0.8,0.6-1.6,1.1-2,1.1l-0.4-1.4c0.4-0.1,0.8-0.4,1.4-0.8c0.4-0.4,1.1-1.1,1.4-1.9
		c0.1-0.1,0.1-0.4,0.1-0.4c0-0.1,0-0.1-0.1-0.4l-3.2-8.1C475.4,568.5,477.3,568.5,477.3,568.5z"/>
	<path fill="#999999" d="M487.9,564.8c0.1,0.8,0.4,1.4,1.2,1.4s1.2-0.6,1.2-1.4h1.2c-0.1,1.6-1.1,2.3-2.5,2.3
		c-1.7,0-2.3-1.1-2.4-2.3H487.9z M486.9,568.5v3.7c0,1.4,0,2.4-0.1,3.6h0.1c0.5-1.2,0.8-1.7,1.4-2.6l2.6-4.6h2v9.1h-1.6v-3.7
		c0-1.4,0-2.3,0.1-3.7h-0.1c-0.6,1.2-0.8,1.9-1.4,2.6c-0.8,1.4-1.9,3.1-2.6,4.8h-1.9v-9.1C485.4,568.5,486.9,568.5,486.9,568.5z"/>
	<path fill="#999999" d="M502.5,565.4c-0.5,0.1-1.2,0.4-1.9,0.4c-1.4,0.1-2.5,0.6-3.2,1.7c-0.6,0.8-0.8,2-1.1,3.1h0.1
		c0.6-1.4,1.9-2,3.1-2c2.3,0,3.7,1.6,3.7,4.4c0,2.9-1.6,4.8-4.1,4.8c-3.2,0-4.3-3.1-4.3-6c0-2,0.4-3.7,1.4-4.9
		c0.8-1.2,2.3-1.9,3.7-2.3c0.6-0.1,1.7-0.4,2.3-0.5L502.5,565.4z M499.3,569.8c-0.8,0-1.7,0.5-2,1.2c-0.4,0.5-0.4,1.2-0.4,2
		c0,1.4,0.6,3.6,2.5,3.6c1.7,0,2.5-1.7,2.5-3.5C501.9,571.7,501.1,569.8,499.3,569.8z"/>
	<path fill="#999999" d="M515.1,568.5v9.1h-1.7v-9.1H515.1z M507.1,568.5v3.1c0.4-0.1,0.8-0.1,1.4-0.1c2,0,3.9,0.8,3.9,3.1
		c0,0.8-0.4,1.6-0.8,2c-1.1,0.8-2.5,1.1-3.6,1.1c-0.8,0-1.7-0.1-2.4-0.1v-9.1h1.6L507.1,568.5L507.1,568.5z M507.1,576.3
		c0.4,0,0.6,0.1,1.2,0.1c1.2,0,2.5-0.5,2.5-2c0-1.4-1.4-1.9-2.5-1.9c-0.5,0-0.8,0-1.2,0.1V576.3L507.1,576.3z"/>
	<path fill="#999999" d="M519.4,568.5v7.7h3.1v-7.7h1.7v7.7h3.1v-7.7h1.7v9.1h-11.1v-9.1H519.4z"/>
	<path fill="#999999" d="M532.5,573.3c0,2.3,1.4,3.1,3.1,3.1c1.2,0,1.9-0.1,2.5-0.5l0.4,1.2c-0.6,0.4-1.6,0.5-3.1,0.5
		c-2.6,0-4.4-1.9-4.4-4.6c0-2.6,1.6-4.8,4.3-4.8c2.9,0,3.7,2.5,3.7,4.3c0,0.4,0,0.6-0.1,0.6h-6.3L532.5,573.3L532.5,573.3
		L532.5,573.3z M537.3,572.2c0-1.1-0.4-2.6-2.3-2.6c-1.7,0-2.4,1.6-2.5,2.6H537.3z"/>
	<path fill="#999999" d="M540.9,568.6c0.6-0.1,1.7-0.1,2.9-0.1c1.6,0,4.1,0.1,4.1,2.3c0,1.2-0.8,1.7-1.9,2l0,0
		c1.4,0.1,2.3,0.8,2.3,2.3c0,2.4-3.1,2.6-4.8,2.6c-1.1,0-2-0.1-2.5-0.1v-8.9H540.9z M542.5,572.2h1.2c1.2,0,2.5-0.4,2.5-1.4
		c0-0.8-0.8-1.4-2.4-1.4c-0.5,0-0.8,0-1.2,0.1L542.5,572.2L542.5,572.2z M542.5,576.5c0.5,0.1,0.8,0.1,1.4,0.1
		c1.2,0,2.6-0.4,2.6-1.6s-1.4-1.6-2.9-1.6h-1.2v3.1L542.5,576.5L542.5,576.5z"/>
	<path fill="#999999" d="M555.3,577.5l-0.1-1.2H555c-0.5,0.6-1.4,1.4-2.6,1.4c-1.9,0-2.6-1.2-2.6-2.5c0-2.3,2-3.5,5.4-3.2v-0.1
		c0-0.6-0.1-2-2-2c-0.8,0-1.7,0.4-2.4,0.6l-0.4-1.1c0.6-0.5,1.9-0.8,3.1-0.8c2.6,0,3.5,1.9,3.5,3.7v3.5c0,0.8,0,1.6,0.1,2.3
		L555.3,577.5L555.3,577.5z M555.1,572.8c-1.7,0-3.7,0.4-3.7,2c0,1.1,0.6,1.6,1.6,1.6c1.2,0,2-0.6,2.3-1.6c0.1-0.1,0.1-0.4,0.1-0.5
		L555.1,572.8L555.1,572.8z"/>
</g>
<g>
	<path fill="#999999" d="M432.5,122.3l2,5.4c0.1,0.6,0.4,1.4,0.6,1.9l0,0c0.1-0.5,0.4-1.2,0.6-1.9l1.7-5.4h1.7l-2.5,6.5
		c-1.2,3.1-2,4.6-3.1,5.6c-0.8,0.6-1.6,1.1-2,1.1l-0.4-1.4c0.4-0.1,0.8-0.4,1.4-0.8c0.4-0.4,1.1-1.1,1.4-1.9
		c0.1-0.1,0.1-0.4,0.1-0.4c0-0.1,0-0.1-0.1-0.4l-3.2-8.1L432.5,122.3L432.5,122.3z"/>
	<path fill="#999999" d="M447.3,122.3v9.1h-1.7v-7.7h-3.1v2.4c0,2.5-0.1,4.3-1.4,4.9c-0.4,0.4-0.8,0.5-1.7,0.5l-0.1-1.2
		c0.4-0.1,0.6-0.1,0.8-0.4c0.8-0.6,0.8-1.9,0.8-3.9v-3.6L447.3,122.3L447.3,122.3z"/>
	<path fill="#999999" d="M449.6,130.5c0-0.6,0.5-1.2,1.2-1.2c0.7,0,1.2,0.5,1.2,1.2c0,0.7-0.4,1.2-1.2,1.2
		C450.1,131.5,449.6,131,449.6,130.5z"/>
	<path fill="#999999" d="M458,118.8c0.6-0.1,1.9-0.4,3.1-0.4c1.7,0,2.6,0.4,3.5,0.8c0.6,0.5,1.1,1.2,1.1,2.3c0,1.2-0.8,2.3-2.3,2.6
		l0,0c1.2,0.4,2.5,1.2,2.5,3.1c0,1.1-0.4,1.9-1.1,2.5c-0.8,0.8-2.3,1.2-4.3,1.2c-1.2,0-2-0.1-2.5-0.1V118.8L458,118.8z M459.4,124.2
		h1.4c1.7,0,2.6-0.8,2.6-2c0-1.4-1.2-2-2.6-2c-0.6,0-1.2,0.1-1.4,0.1V124.2L459.4,124.2z M459.4,130c0.4,0.1,0.8,0.1,1.4,0.1
		c1.7,0,3.2-0.6,3.2-2.5c0-1.7-1.4-2.4-3.2-2.4h-1.4V130z"/>
	<path fill="#999999" d="M476,126.7c0,3.2-2.3,4.8-4.4,4.8c-2.5,0-4.3-1.7-4.3-4.6c0-3.1,2-4.8,4.4-4.8
		C474.4,122,476,123.9,476,126.7z M468.9,126.8c0,2,1.2,3.5,2.6,3.5c1.6,0,2.6-1.4,2.6-3.6c0-1.6-0.6-3.5-2.6-3.5
		C469.7,123.3,468.9,125.1,468.9,126.8z"/>
	<path fill="#999999" d="M478.1,125.1c0-1.2,0-2-0.1-2.9h1.4l0.1,1.6l0,0c0.6-1.2,1.7-1.7,3.2-1.7c2.3,0,3.7,1.9,3.7,4.6
		c0,3.2-2,4.8-4.1,4.8c-1.2,0-2.3-0.5-2.6-1.4l0,0v4.8h-1.7L478.1,125.1L478.1,125.1z M479.9,127.8c0,0.1,0,0.5,0.1,0.6
		c0.4,1.2,1.2,2,2.5,2c1.7,0,2.6-1.4,2.6-3.6c0-1.7-0.8-3.2-2.6-3.2c-1.2,0-2.3,0.8-2.5,2c-0.1,0.1-0.1,0.4-0.1,0.6V127.8z"/>
	<path fill="#999999" d="M496.9,126.7c0,3.2-2.3,4.8-4.4,4.8c-2.5,0-4.3-1.7-4.3-4.6c0-3.1,2-4.8,4.4-4.8
		C495.1,122,496.9,123.9,496.9,126.7z M489.7,126.8c0,2,1.2,3.5,2.6,3.5c1.4,0,2.6-1.4,2.6-3.6c0-1.6-0.6-3.5-2.6-3.5
		C490.5,123.3,489.7,125.1,489.7,126.8z"/>
	<path fill="#999999" d="M500.6,122.3v7.7h3.1v-7.7h1.6v7.7h3.1v-7.7h1.7v9.1H499v-9.1H500.6z"/>
	<path fill="#999999" d="M514.2,122.3v3.7c0,1.4,0,2.4-0.1,3.6h0.1c0.5-1.2,0.8-1.7,1.4-2.6l2.6-4.6h1.9v9.1h-1.6v-3.7
		c0-1.4,0-2.3,0.1-3.7h-0.1c-0.6,1.2-0.8,1.9-1.4,2.6c-0.8,1.4-1.9,3.1-2.6,4.8h-1.9v-9.1H514.2L514.2,122.3z"/>
	<path fill="#999999" d="M529.7,122.3v9.1H528v-7.7h-3.1v2.4c0,2.5-0.1,4.3-1.4,4.9c-0.4,0.4-0.8,0.5-1.7,0.5l-0.1-1.2
		c0.4-0.1,0.6-0.1,0.8-0.4c0.8-0.6,0.8-1.9,0.8-3.9v-3.6L529.7,122.3L529.7,122.3z"/>
	<path fill="#999999" d="M540.6,126.7c0,3.2-2.3,4.8-4.4,4.8c-2.5,0-4.3-1.7-4.3-4.6c0-3.1,2-4.8,4.4-4.8S540.6,123.9,540.6,126.7z
		 M533.6,126.8c0,2,1.2,3.5,2.6,3.5s2.6-1.4,2.6-3.6c0-1.6-0.6-3.5-2.6-3.5C534.4,123.3,533.6,125.1,533.6,126.8z"/>
	<path fill="#999999" d="M542.5,122.5c0.6-0.1,1.7-0.1,2.9-0.1c1.6,0,4.1,0.1,4.1,2.3c0,1.2-0.8,1.7-1.9,2l0,0
		c1.4,0.1,2.3,0.8,2.3,2.3c0,2.4-3.1,2.6-4.8,2.6c-1.1,0-2-0.1-2.5-0.1v-8.9H542.5z M544.2,126h1.2c1.2,0,2.5-0.4,2.5-1.4
		c0-0.8-0.8-1.4-2.4-1.4c-0.5,0-0.8,0-1.2,0.1L544.2,126L544.2,126z M544.1,130.3c0.5,0.1,0.8,0.1,1.4,0.1c1.2,0,2.6-0.4,2.6-1.6
		c0-1.4-1.4-1.6-2.9-1.6h-1.2L544.1,130.3L544.1,130.3z"/>
	<path fill="#999999" d="M556.9,131.3l-0.1-1.2h-0.1c-0.5,0.6-1.4,1.4-2.6,1.4c-1.9,0-2.6-1.2-2.6-2.5c0-2.3,2-3.5,5.4-3.2v-0.1
		c0-0.6-0.1-2-2-2c-0.8,0-1.7,0.4-2.4,0.6l-0.4-1.1c0.6-0.5,1.9-0.8,3.1-0.8c2.6,0,3.5,1.9,3.5,3.7v3.5c0,0.8,0,1.6,0.1,2.3
		L556.9,131.3L556.9,131.3z M556.8,126.7c-1.7,0-3.7,0.4-3.7,2c0,1.1,0.6,1.6,1.6,1.6c1.2,0,2-0.6,2.3-1.6c0.1-0.1,0.1-0.4,0.1-0.5
		L556.8,126.7L556.8,126.7z"/>
</g>
<g>
	<path fill="none" stroke="#777777" stroke-width="0.5" stroke-miterlimit="10" d="M127.1,291.3c0-10.1,8.3-18.4,18.4-18.4v18.4"/>
</g>
<g>
	<path fill="none" stroke="#777777" stroke-width="0.5" stroke-miterlimit="10" d="M78.2,238.7c10.1,0,18.4,8.3,18.4,18.4H78.2"/>
</g>
<g>
	<path fill="none" stroke="#777777" stroke-width="0.5" stroke-miterlimit="10" d="M78.2,465c10.1,0,18.4-8.3,18.4-18.4H78.2"/>
</g>
<g>
	<path fill="none" stroke="#777777" stroke-width="0.5" stroke-miterlimit="10" d="M670.6,402c10.1,0,18.4-8.3,18.4-18.4h-18.4"/>
</g>
<g>
	<path fill="none" stroke="#777777" stroke-width="0.5" stroke-miterlimit="10" d="M329.1,402c-10.1,0-18.4-8.3-18.4-18.4h18.4"/>
</g>
<g>
	<path fill="none" stroke="#777777" stroke-width="0.5" stroke-miterlimit="10" d="M920.8,465c-10.1,0-18.4-8.3-18.4-18.4h18.4"/>
</g>
<g>
	<path fill="none" stroke="#777777" stroke-width="0.5" stroke-miterlimit="10" d="M228.2,178.6c0,10.1-8.3,18.4-18.4,18.4v-18.4"/>
</g>
<g>
	<path fill="none" stroke="#777777" stroke-width="0.5" stroke-miterlimit="10" d="M301.1,178.6c0,10.1-8.3,18.4-18.4,18.4v-18.4"/>
</g>
<g>
	<path fill="none" stroke="#777777" stroke-width="0.5" stroke-miterlimit="10" d="M374.2,178.6c0,10.1-8.3,18.4-18.4,18.4v-18.4"/>
</g>
<g>
	<path fill="none" stroke="#777777" stroke-width="0.5" stroke-miterlimit="10" d="M447.3,178.6c0,10.1-8.3,18.4-18.4,18.4v-18.4"/>
</g>
<g>
	<path fill="none" stroke="#777777" stroke-width="0.5" stroke-miterlimit="10" d="M520.8,178.6c0,10.1-8.3,18.4-18.4,18.4v-18.4"/>
</g>
<g>
	<path fill="none" stroke="#777777" stroke-width="0.5" stroke-miterlimit="10" d="M594.1,178.6c0,10.1-8.3,18.4-18.4,18.4v-18.4"/>
</g>
<g>
	<path fill="none" stroke="#777777" stroke-width="0.5" stroke-miterlimit="10" d="M667.1,178.6c0,10.1-8.3,18.4-18.4,18.4v-18.4"/>
</g>
<g>
	<path fill="none" stroke="#777777" stroke-width="0.5" stroke-miterlimit="10" d="M740.5,178.6c0,10.1-8.3,18.4-18.4,18.4v-18.4"/>
</g>
<g>
	<path fill="none" stroke="#777777" stroke-width="0.5" stroke-miterlimit="10" d="M336.8,525c0-10.1-8.3-18.4-18.4-18.4V525"/>
</g>
<g>
	<path fill="none" stroke="#777777" stroke-width="0.5" stroke-miterlimit="10" d="M386.8,525c0-10.1-8.3-18.4-18.4-18.4V525"/>
</g>
<g>
	<path fill="none" stroke="#777777" stroke-width="0.5" stroke-miterlimit="10" d="M630.2,525c0-10.1-8.3-18.4-18.4-18.4V525"/>
</g>
<g>
	<path fill="none" stroke="#777777" stroke-width="0.5" stroke-miterlimit="10" d="M680.8,525c0-10.1-8.3-18.4-18.4-18.4V525"/>
</g>
<g>
	<path fill="none" stroke="#777777" stroke-width="0.5" stroke-miterlimit="10" d="M740.5,525c0-10.1-8.3-18.4-18.4-18.4V525"/>
</g>
<g>
	<path fill="none" stroke="#777777" stroke-width="0.5" stroke-miterlimit="10" d="M920.9,238.7c-10.1,0-18.4,8.3-18.4,18.4h18.4"/>
</g>
<g>
	<path fill="none" stroke="#777777" stroke-width="0.5" stroke-miterlimit="10" d="M156.1,311.3c0,9.1-7.4,16.3-16.3,16.3v-16.3"/>
</g>
<g>
	<path fill="none" stroke="#777777" stroke-width="0.5" stroke-miterlimit="10" d="M254.5,328.7c0,9.1,7.4,16.3,16.3,16.3v-16.3"/>
</g>
<g>
	<path fill="none" stroke="#777777" stroke-width="0.5" stroke-miterlimit="10" d="M254.5,287.3c0-9.1,7.4-16.3,16.3-16.3v16.3"/>
</g>
<g>
	<path fill="none" stroke="#777777" stroke-width="0.5" stroke-miterlimit="10" d="M305.9,328.7c0,9.1-7.4,16.3-16.3,16.3v-16.3"/>
</g>
<g>
	<path fill="none" stroke="#777777" stroke-width="0.5" stroke-miterlimit="10" d="M249.1,302.8c-9.1,0-16.3,7.4-16.3,16.3h16.3"/>
</g>
<g>
	<path fill="none" stroke="#777777" stroke-width="0.5" stroke-miterlimit="10" d="M310.1,302.8c9.1,0,16.3,7.4,16.3,16.3h-16.3"/>
</g>
<g>
	<path fill="none" stroke="#777777" stroke-width="0.5" stroke-miterlimit="10" d="M397.6,302.8c-9.1,0-16.3,7.4-16.3,16.3h16.3"/>
</g>
<g>
	<path fill="none" stroke="#777777" stroke-width="0.5" stroke-miterlimit="10" d="M455.6,302.8c9.1,0,16.3,7.4,16.3,16.3h-16.3"/>
</g>
<g>
	<path fill="none" stroke="#777777" stroke-width="0.5" stroke-miterlimit="10" d="M544,302.8c-9.1,0-16.3,7.4-16.3,16.3H544"/>
</g>
<g>
	<path fill="none" stroke="#777777" stroke-width="0.5" stroke-miterlimit="10" d="M601.9,302.8c9.1,0,16.3,7.4,16.3,16.3h-16.3"/>
</g>
<g>
	<path fill="none" stroke="#777777" stroke-width="0.5" stroke-miterlimit="10" d="M690.4,302.8c-9.1,0-16.3,7.4-16.3,16.3h16.3"/>
</g>
<g>
	<path fill="none" stroke="#777777" stroke-width="0.5" stroke-miterlimit="10" d="M750.5,302.8c9.1,0,16.3,7.4,16.3,16.3h-16.3"/>
</g>
<g>
	<path fill="none" stroke="#777777" stroke-width="0.5" stroke-miterlimit="10" d="M305.9,287.3c0-9.1-7.4-16.3-16.3-16.3v16.3"/>
</g>
<g>
	<path fill="none" stroke="#777777" stroke-width="0.5" stroke-miterlimit="10" d="M400.9,328.7c0,9.1,7.4,16.3,16.3,16.3v-16.3"/>
</g>
<g>
	<path fill="none" stroke="#777777" stroke-width="0.5" stroke-miterlimit="10" d="M400.9,287.3c0-9.1,7.4-16.3,16.3-16.3v16.3"/>
</g>
<g>
	<path fill="none" stroke="#777777" stroke-width="0.5" stroke-miterlimit="10" d="M452.2,328.7c0,9.1-7.4,16.3-16.3,16.3v-16.3"/>
</g>
<g>
	<path fill="none" stroke="#777777" stroke-width="0.5" stroke-miterlimit="10" d="M452.2,287.3c0-9.1-7.4-16.3-16.3-16.3v16.3"/>
</g>
<g>
	<path fill="none" stroke="#777777" stroke-width="0.5" stroke-miterlimit="10" d="M547.4,328.7c0,9.1,7.4,16.3,16.3,16.3v-16.3"/>
</g>
<g>
	<path fill="none" stroke="#777777" stroke-width="0.5" stroke-miterlimit="10" d="M547.4,287.3c0-9.1,7.4-16.3,16.3-16.3v16.3"/>
</g>
<g>
	<path fill="none" stroke="#777777" stroke-width="0.5" stroke-miterlimit="10" d="M598.8,328.7c0,9.1-7.4,16.3-16.3,16.3v-16.3"/>
</g>
<g>
	<path fill="none" stroke="#777777" stroke-width="0.5" stroke-miterlimit="10" d="M598.8,287.3c0-9.1-7.4-16.3-16.3-16.3v16.3"/>
</g>
<g>
	<path fill="none" stroke="#777777" stroke-width="0.5" stroke-miterlimit="10" d="M179.7,291.3c0-10.1,8.3-18.4,18.4-18.4v18.4"/>
</g>
<g>
	<path fill="none" stroke="#777777" stroke-width="0.5" stroke-miterlimit="10" d="M127.1,412.3c0,10.1,8.3,18.4,18.4,18.4v-18.4"/>
</g>
<g>
	<path fill="none" stroke="#777777" stroke-width="0.5" stroke-miterlimit="10" d="M156.1,392.3c0-9.1-7.4-16.3-16.3-16.3v16.3"/>
</g>
<g>
	<path fill="none" stroke="#777777" stroke-width="0.5" stroke-miterlimit="10" d="M377.6,371.1c0-9.1-7.4-16.3-16.3-16.3v16.3"/>
</g>
<g>
	<path fill="none" stroke="#777777" stroke-width="0.5" stroke-miterlimit="10" d="M553.1,371.1c0-9.1-7.4-16.3-16.3-16.3v16.3"/>
</g>
<g>
	<path fill="none" stroke="#777777" stroke-width="0.5" stroke-miterlimit="10" d="M540.8,477.4c0,9.1,7.4,16.3,16.3,16.3v-16.3"/>
</g>
<g>
	<path fill="none" stroke="#777777" stroke-width="0.5" stroke-miterlimit="10" d="M523.4,511.6c0,9.1,7.4,16.3,16.3,16.3v-16.3"/>
</g>
<g>
	<path fill="none" stroke="#777777" stroke-width="0.5" stroke-miterlimit="10" d="M466.1,511.5c0,9.1,7.4,16.3,16.3,16.3v-16.3"/>
</g>
<g>
	<path fill="none" stroke="#777777" stroke-width="0.5" stroke-miterlimit="10" d="M616.5,371.1c0-9.1,7.4-16.3,16.3-16.3v16.3"/>
</g>
<g>
	<path fill="none" stroke="#777777" stroke-width="0.5" stroke-miterlimit="10" d="M377.6,409.4c0-9.1-7.4-16.3-16.3-16.3v16.3"/>
</g>
<g>
	<path fill="none" stroke="#777777" stroke-width="0.5" stroke-miterlimit="10" d="M200,375.3c0-9.1-7.4-16.3-16.3-16.3v16.3"/>
</g>
<g>
	<path fill="none" stroke="#777777" stroke-width="0.5" stroke-miterlimit="10" d="M179.7,412.3c0,10.1,8.3,18.4,18.4,18.4v-18.4"/>
</g>
<g>
	<path fill="none" stroke="#777777" stroke-width="0.5" stroke-miterlimit="10" d="M871.1,291.3c0-10.1-8.3-18.4-18.4-18.4v18.4"/>
</g>
<g>
	<path fill="none" stroke="#777777" stroke-width="0.5" stroke-miterlimit="10" d="M842.1,311.3c0,9.1,7.4,16.3,16.3,16.3v-16.3"/>
</g>
<g>
	<path fill="none" stroke="#777777" stroke-width="0.5" stroke-miterlimit="10" d="M818.5,291.3c0-10.1-8.3-18.4-18.4-18.4v18.4"/>
</g>
<g>
	<path fill="none" stroke="#777777" stroke-width="0.5" stroke-miterlimit="10" d="M871.1,413.5c0,10.1-8.3,18.4-18.4,18.4v-18.4"/>
</g>
<g>
	<path fill="none" stroke="#777777" stroke-width="0.5" stroke-miterlimit="10" d="M842.1,392.3c0-9.1,7.4-16.3,16.3-16.3v16.3"/>
</g>
<g>
	<path fill="none" stroke="#777777" stroke-width="0.5" stroke-miterlimit="10" d="M818.5,413.5c0,10.1-8.3,18.4-18.4,18.4v-18.4"/>
</g>
<rect x="249.1" y="284.6" fill="#999999" width="4.3" height="2.6"/>
<rect x="270.8" y="284.5" fill="#999999" width="18.6" height="2.6"/>
<rect x="417.3" y="284.5" fill="#999999" width="18.6" height="2.6"/>
<rect x="563.7" y="284.5" fill="#999999" width="18.6" height="2.6"/>
<rect x="390.9" y="328.7" fill="#999999" width="10" height="6.8"/>
<rect x="199.7" y="368.5" fill="#999999" width="40.6" height="6.6"/>
<rect x="173.7" y="368.5" fill="#999999" width="10" height="6.8"/>
<g>
	<polygon fill="#EAEAEA" points="276.9,416.8 276.9,375.3 241.1,375.3 241.1,384.7 238.2,384.7 238.2,375.3 238.2,369.3 
		238.2,368.5 216.4,368.5 216.4,375.3 210.4,375.3 210.4,518.5 235.1,518.5 258.9,518.5 258.9,518.6 259.1,518.6 259.1,525.3 
		235.3,525.3 235.3,525.2 235.1,525.2 210.4,525.2 210.4,546 276.9,546 276.9,419.5 232.5,419.5 232.5,416.8 238.2,416.8 
		238.2,401.3 241.1,401.3 241.1,416.8 	"/>
	<polygon fill="#EAEAEA" points="276.9,416.8 276.9,375.3 241.1,375.3 241.1,384.7 238.2,384.7 238.2,375.3 238.2,369.3 
		238.2,368.5 216.4,368.5 216.4,375.3 210.4,375.3 210.4,518.5 235.1,518.5 258.9,518.5 258.9,518.6 259.1,518.6 259.1,525.3 
		235.3,525.3 235.3,525.2 235.1,525.2 210.4,525.2 210.4,546 276.9,546 276.9,419.5 232.5,419.5 232.5,416.8 238.2,416.8 
		238.2,401.3 241.1,401.3 241.1,416.8 	"/>
</g>
<g>
	<path fill="none" stroke="#777777" stroke-width="0.5" stroke-miterlimit="10" d="M200,328.7c0,9.1-7.4,16.3-16.3,16.3v-16.3"/>
</g>
<rect x="173.7" y="328.7" fill="#999999" width="10" height="6.8"/>
<g>
	<path fill="none" stroke="#777777" stroke-width="0.5" stroke-miterlimit="10" d="M801.1,375.1c0-9.1,7.4-16.3,16.3-16.3v16.3"/>
</g>
<rect x="817.1" y="368.5" fill="#999999" width="10" height="6.8"/>
<rect x="792.7" y="368.5" fill="#999999" width="8.3" height="6.6"/>
<g>
	<path fill="none" stroke="#777777" stroke-width="0.5" stroke-miterlimit="10" d="M801.1,328.8c0,9.1,7.4,16.3,16.3,16.3v-16.3"/>
</g>
<rect x="817.4" y="328.6" fill="#999999" width="10" height="6.8"/>
<rect x="452.2" y="328.7" fill="#999999" width="10" height="6.8"/>
<rect x="537.4" y="328.7" fill="#999999" width="10" height="6.8"/>
<rect x="598.8" y="328.7" fill="#999999" width="10" height="6.8"/>
<g>
	<path fill="none" stroke="#777777" stroke-width="0.5" stroke-miterlimit="10" d="M695.1,328.7c0,9.1,7.4,16.3,16.3,16.3v-16.3"/>
</g>
<g>
	<path fill="none" stroke="#777777" stroke-width="0.5" stroke-miterlimit="10" d="M695.1,287.3c0-9.1,7.4-16.3,16.3-16.3v16.3"/>
</g>
<g>
	<path fill="none" stroke="#777777" stroke-width="0.5" stroke-miterlimit="10" d="M746.5,328.7c0,9.1-7.4,16.3-16.3,16.3v-16.3"/>
</g>
<g>
	<path fill="none" stroke="#777777" stroke-width="0.5" stroke-miterlimit="10" d="M746.5,287.3c0-9.1-7.4-16.3-16.3-16.3v16.3"/>
</g>
<rect x="711.4" y="284.5" fill="#999999" width="18.6" height="2.6"/>
<rect x="685.1" y="328.7" fill="#999999" width="10" height="6.8"/>
<rect x="746.5" y="328.7" fill="#999999" width="10" height="6.8"/>
<g>
	<path fill="none" stroke="#777777" stroke-width="0.5" stroke-miterlimit="10" d="M621.3,406.8c0,9.1,7.4,16.3,16.3,16.3v-16.3"/>
</g>
<polygon fill="#999999" points="203.7,288.6 198.5,288.6 198.5,291.3 203.7,291.3 203.7,328.7 200,328.7 200,335.5 237.1,335.5 
	249.1,335.5 254.5,335.5 254.5,328.7 249.1,328.7 249.1,319.3 246.2,319.3 246.2,328.7 237.1,328.7 210.4,328.7 210.4,287.3 
	246.2,287.3 246.2,302.8 249.1,302.8 249.1,287.3 254.5,287.3 254.5,284.6 210.4,284.6 210.4,149.4 203.7,149.4 203.7,178.7 
	189.1,178.7 189.1,185.5 203.7,185.5 "/>
<polygon fill="#999999" points="46.6,302.3 53.1,302.3 53.1,291.3 84.9,291.3 85.1,291.3 127.3,291.3 127.3,288.5 85.1,288.5 
	85.1,284.5 85.1,257.1 78.4,257.1 78.4,284.5 41.1,284.5 41.1,291.3 46.6,291.3 "/>
<polygon fill="#999999" points="85.1,488.7 78.4,488.7 78.4,518.3 78.4,525 78.4,532.2 85.1,532.2 85.1,525 104.1,525 104.1,518.3 
	85.1,518.3 "/>
<polygon fill="#999999" points="920.9,257.1 914.4,257.1 914.4,288.5 870.9,288.5 870.9,291.3 914.4,291.3 914.5,291.3 946.1,291.3 
	946.1,302.3 952.6,302.3 952.6,291.3 958.5,291.3 958.5,284.5 920.9,284.5 "/>
<polygon fill="#999999" points="914.4,518.3 895.3,518.3 895.3,525 914.4,525 914.4,532.2 920.9,532.2 920.9,488.7 914.4,488.7 "/>
<polygon fill="#999999" points="352.9,409.4 361.6,409.4 361.6,406.7 352.9,406.7 351.9,406.7 350,406.7 350,518.3 336.8,518.3 
	336.8,525 350,525 350,553.3 352.9,553.3 352.9,525 368.4,525 368.4,518.3 352.9,518.3 "/>
<polygon fill="#999999" points="649.3,404.2 646.4,404.2 646.4,406.7 637.7,406.7 637.7,409.4 646.4,409.4 646.9,518.3 630.4,518.3 
	630.4,525 646.9,525 646.9,553.1 649.7,553.1 649.7,525 662.6,525 662.6,518.3 649.6,518.3 "/>
<polygon fill="#999999" points="792.1,416.3 800,416.3 800,413.5 792.1,413.5 792.1,404.3 789.3,404.3 789.3,518.3 764.4,518.3 
	764.4,525 789.3,525 789.3,553.3 796,553.3 796,525 810.4,525 810.4,518.3 792.1,518.3 "/>
<polygon fill="#999999" points="952.6,401.5 946.1,401.5 946.1,413 920.9,413 920.9,412.7 914.4,412.7 914.4,413.5 871.1,413.5 
	871.1,416.3 914.4,416.3 914.4,447 920.9,447 920.9,419.7 958.4,419.7 958.4,413 952.6,413 "/>
<polygon fill="#999999" points="207.5,412.2 198.2,412.2 198.2,415.1 207.5,415.1 207.5,518.3 189.1,518.3 189.1,525 203.7,525 
	203.7,553.4 210.4,553.4 210.4,404.3 207.5,404.3 "/>
<path fill="#999999" d="M600.4,371.1h16.1v-2.6H553v2.6h17.5v106.3h-13.2v2.6h13.2v31.5h-30.6v6.8h30.6v6.6h0.1v28.1h6.8V525H588
	l0-6.8h-10.6V409.3h44v-2.6h-21.1L600.4,371.1L600.4,371.1z M597.1,406.7H577v-35.6h20.1V406.7z"/>
<polygon fill="#999999" points="361.1,368.5 276.8,368.5 276.9,544.2 276.8,550.8 282.4,551.1 282.4,525 294.5,525 294.5,518.3 
	282.4,518.3 282.4,418.5 329.1,418.5 329.1,417.5 329.1,415.7 329.1,402 326.4,402 326.4,415.7 282.4,415.7 282.4,375.1 
	326.4,375.1 326.4,383.7 329.1,383.7 329.1,375.1 361.1,375.1 "/>
<polygon fill="#999999" points="310.1,302.8 312.8,302.8 312.8,287.3 350,287.3 350,328.7 317.1,328.7 312.8,328.7 312.8,319.3 
	310.1,319.3 310.1,328.7 306,328.7 306,335.5 310.1,335.5 317.1,335.5 397.6,335.5 397.6,334.8 397.6,328.7 397.6,319.3 
	394.8,319.3 394.8,328.7 356.8,328.7 356.8,287.3 394.8,287.3 394.8,302.8 397.6,302.8 397.6,287.3 400.9,287.3 400.9,284.6 
	356.8,284.6 356.8,149.4 350,149.4 350,178.7 325.1,178.7 325.1,185.5 350,185.5 350,284.6 305.9,284.6 305.9,287.3 310.1,287.3 "/>
<polygon fill="#999999" points="455.6,302.8 458.2,302.8 458.2,287.3 496.6,287.3 496.6,328.7 458.2,328.7 458.2,319.3 455.6,319.3 
	455.6,328.7 455.6,334.8 455.6,335.5 544,335.5 544,334.8 544,328.7 544,319.3 541.3,319.3 541.3,328.7 503.3,328.7 503.3,287.3 
	541.3,287.3 541.3,302.8 544,302.8 544,287.3 547.4,287.3 547.4,284.6 503.3,284.6 503.3,149.4 496.6,149.4 496.6,178.7 
	471.4,178.7 471.4,185.5 496.6,185.5 496.6,284.6 452.2,284.6 452.2,287.3 455.6,287.3 "/>
<polygon fill="#999999" points="601.9,302.8 604.5,302.8 604.5,287.3 642.9,287.3 642.9,328.7 604.5,328.7 604.5,319.3 601.9,319.3 
	601.9,328.7 601.9,334.8 601.9,335.5 690.2,335.5 690.2,334.8 690.2,328.7 690.2,319.3 687.6,319.3 687.6,328.7 649.7,328.7 
	649.7,287.3 687.6,287.3 687.6,302.8 690.2,302.8 690.2,287.3 695.1,287.3 695.1,284.6 649.7,284.6 649.7,149.4 642.9,149.4 
	642.9,178.7 618.1,178.7 618.1,185.5 642.9,185.5 642.9,284.6 598.8,284.6 598.8,287.3 601.9,287.3 "/>
<polygon fill="#999999" points="152.8,185.5 159.6,185.5 159.6,178.7 134.1,178.7 134.1,185.5 150,185.5 150,288.5 145.7,288.5 
	145.7,291.3 179.9,291.3 179.9,288.5 152.8,288.5 "/>
<polygon fill="#999999" points="877.1,311.3 875.1,311.3 858.4,311.3 858.4,314.2 875.1,314.2 875.1,348.5 829.6,348.5 829.6,314.2 
	842.1,314.2 842.1,311.3 829.6,311.3 823.3,311.3 822.9,311.3 822.9,348.5 822.9,355.3 822.9,392.2 823.3,392.2 829.6,392.2 
	842.1,392.2 842.1,389.4 829.6,389.4 829.6,355.3 875.1,355.3 875.1,389.4 858.4,389.4 858.4,392.2 875.1,392.2 877.1,392.2 
	878,392.2 878,355.3 946.1,355.3 946.1,371.7 952.6,371.7 952.6,355.3 952.6,348.5 952.6,332.2 946.1,332.2 946.1,348.5 878,348.5 
	878,311.3 "/>
<polygon fill="#999999" points="84.9,412.2 53.1,412.2 53.1,401.5 46.6,401.5 46.6,412.2 41.1,412.2 41.1,419 46.6,419 46.6,419.3 
	53.1,419.3 53.1,419 78.4,419 78.4,447 85.1,447 85.1,419 85.1,415.1 127.1,415.1 127.1,412.2 85.1,412.2 "/>
<polygon fill="#999999" points="145.9,415.1 150,415.1 150,518.3 134,518.3 134,525 159.6,525 159.6,518.3 152.8,518.3 152.8,415.1 
	179.7,415.1 179.7,412.2 145.9,412.2 "/>
<polygon fill="#999999" points="140.1,314 140.1,311.3 121.6,311.3 121.6,311.4 121.6,314 121.6,348.5 53.1,348.5 53.1,332.2 
	46.6,332.2 46.6,371.7 53.1,371.7 53.1,355.3 121.6,355.3 121.6,389.5 121.6,392.2 140.1,392.2 140.1,389.5 124.4,389.5 
	124.4,355.3 169.9,355.3 169.9,389.5 156.2,389.5 156.2,392.2 169.9,392.2 176.6,392.2 176.6,355.3 176.6,348.5 176.6,311.3 
	156.2,311.3 156.2,314 169.9,314 169.9,348.5 124.4,348.5 124.4,314 "/>
<polygon fill="#999999" points="914.4,171.7 914.4,172.8 914.4,178.5 914.4,178.7 895.1,178.7 895.1,185.5 914.4,185.5 914.4,191.7 
	914.4,215.4 920.9,215.4 920.9,191.7 920.9,185.5 920.9,181 920.9,178.7 920.9,178.5 958.5,178.5 958.5,171.7 "/>
<polygon fill="#999999" points="852.6,288.5 849.6,288.5 849.6,185.5 865.4,185.5 865.4,178.7 840,178.7 840,185.5 846.8,185.5 
	846.8,288.5 818.5,288.5 818.5,291.3 852.6,291.3 "/>
<polygon fill="#999999" points="849.6,416.3 852.6,416.3 852.6,413.5 818.5,413.5 818.5,416.3 846.8,416.3 846.8,518.3 840,518.3 
	840,525 865.4,525 865.4,518.3 849.6,518.3 "/>
<path fill="#999999" d="M489.6,480.2h51.1v-2.6H526v-16.8h-2.6v16.8h-33.9v-56.1h33.9v7.1h2.6v-7.1v-2.8v-8.4h-2.6v8.4h-33.9v-33.5
	h33.9v8.5h2.6v-8.5v-2.6v-11.2h10.3v-2.6H377.6v2.5H400v35.6h-22.4v2.6h45.5v102.3v6.6h-12v6.8h12v28.1h6.8v-34.6h37.9l-1.3-3.3
	l-0.3-3.8h-36.3V392.3h52.9l0,119.2h-0.4l0.1,7.1h42.4l-1.1-3.5l-0.4-3.6l-33.9,0L489.6,480.2z M489.6,371.1h33.9v11.2h-33.9V371.1z
	 M423.1,406.7h-20.4v-35.6h20.4V406.7z M482.9,389.3H430v-18.1h52.9V389.3z"/>
<polygon fill="#999999" points="722.8,415.7 722.8,375.1 722.8,368.5 632.8,368.5 632.8,375.1 670.6,375.1 670.6,383.7 673.4,383.7 
	673.4,375.1 717.3,375.1 717.3,415.7 673.4,415.7 673.4,402 670.6,402 670.6,415.7 670.6,417.5 670.6,418.5 717.3,418.5 
	717.3,518.3 704.6,518.3 704.6,525 717.3,525 717.2,553.1 722.8,553.1 722.8,418.5 "/>
<polygon fill="#999999" points="276.9,328.7 270.8,328.7 270.8,335.5 289.6,335.5 289.6,328.7 283.4,328.7 283.4,149.4 276.9,149.4 
	276.9,178.7 252.1,178.7 252.1,185.5 276.9,185.5 "/>
<polygon fill="#999999" points="423.3,328.7 417.1,328.7 417.1,335.5 436.1,335.5 436.1,328.7 430.1,328.7 430.1,149.4 423.3,149.4 
	423.3,178.7 398.4,178.7 398.4,185.5 423.3,185.5 "/>
<polygon fill="#999999" points="569.7,328.7 563.7,328.7 563.7,335.5 582.5,335.5 582.5,328.7 576.5,328.7 576.5,149.4 569.7,149.4 
	569.7,178.7 544.8,178.7 544.8,185.5 569.7,185.5 "/>
<polygon fill="#999999" points="717.3,328.7 711.1,328.7 711.1,335.5 730.1,335.5 730.1,328.7 724.1,328.7 724.1,149.4 717.3,149.4 
	717.3,178.7 691.1,178.7 691.1,185.5 717.3,185.5 "/>
<polygon fill="#999999" points="796,149.4 789.3,149.4 789.3,178.7 764.6,178.7 764.6,185.5 789.3,185.5 789.3,284.6 746.5,284.6 
	746.5,287.3 750.5,287.3 750.5,302.8 753.1,302.8 753.1,287.3 789.3,287.3 789.3,328.7 753.1,328.7 753.1,319.3 750.5,319.3 
	750.5,328.7 750.5,334.8 750.5,335.5 801.1,335.5 801.1,328.7 796,328.7 796,291.3 800,291.3 800,288.6 796,288.6 796,185.5 
	810.4,185.5 810.4,178.7 796,178.7 "/>
<polygon fill="#999999" points="78.4,181 78.4,189.8 78.4,215.4 85.1,215.4 85.1,189.8 85.1,185.5 104.1,185.5 104.1,178.7 
	85.1,178.7 85.1,178.5 85.1,173 85.1,171.7 41.1,171.7 41.1,178.5 78.4,178.5 "/>
<rect x="740.7" y="518.5" fill="none" stroke="#777777" stroke-width="0.5" stroke-linecap="round" stroke-linejoin="round" stroke-miterlimit="10" width="23.9" height="6.8"/>
<rect x="761.6" y="416.8" fill="#999999" width="4.3" height="2.6"/>
<rect x="740.5" y="520.5" fill="none" stroke="#777777" stroke-width="0.5" stroke-linecap="round" stroke-linejoin="round" stroke-miterlimit="10" width="23.9" height="2.6"/>
<g>
	<path fill="none" stroke="#777777" stroke-width="0.5" stroke-miterlimit="10" d="M783.3,375.3V359c-8.9,0-16.3,7.2-16.3,16.3"/>
</g>
<g>
	<path fill="none" stroke="#777777" stroke-width="0.5" stroke-miterlimit="10" d="M783.3,416.8V433c-8.9,0-16.3-7.2-16.3-16.3"/>
</g>
<g>
	<path fill="none" stroke="#777777" stroke-width="0.5" stroke-miterlimit="10" d="M761.6,384.9h-16.3c0,8.9,7.2,16.3,16.3,16.3"/>
</g>
<polyline fill="#999999" points="796,419.5 783.3,419.5 783.3,416.9 796,416.9 "/>
<polyline fill="#999999" points="717.2,553.1 723.9,553.1 723.9,419.4 768,419.4 768,416.8 762.6,416.8 762.6,401.2 759.7,401.2 
	759.7,416.8 723.9,416.8 723.9,375.3 750.7,375.3 759.7,375.3 759.7,384.8 762.6,384.8 762.6,375.3 768,375.3 768,368.5 
	762.6,368.5 750.7,368.5 717.3,368.5 "/>
<polyline fill="#999999" points="796,368.5 783.3,368.5 783.3,375.3 789.5,375.3 789.5,518.5 764.6,518.5 764.6,525.3 789.5,525.3 
	789.5,553.1 796,553 "/>
<rect x="235.3" y="520.5" fill="none" stroke="#777777" stroke-width="0.5" stroke-linecap="round" stroke-linejoin="round" stroke-miterlimit="10" width="23.9" height="2.6"/>
<g>
	<path fill="none" stroke="#777777" stroke-width="0.5" stroke-miterlimit="10" d="M258.9,525.4c0-10.1,8.3-18.4,18.4-18.4v18.4"/>
</g>
<g>
	<path fill="none" stroke="#777777" stroke-width="0.5" stroke-miterlimit="10" d="M232.6,375.3c0-9.1-7.4-16.3-16.3-16.3v16.3"/>
</g>
<g>
	<path fill="none" stroke="#777777" stroke-width="0.5" stroke-miterlimit="10" d="M232.6,416.8c0,9.1-7.4,16.3-16.3,16.3v-16.3"/>
</g>
<g>
	<path fill="none" stroke="#777777" stroke-width="0.5" stroke-miterlimit="10" d="M238.1,401.2c9.1,0,16.3-7.4,16.3-16.3h-16.3"/>
</g>
<polyline fill="#999999" points="203.7,416.9 216.4,416.9 216.4,419.5 203.7,419.5 "/>
<polyline fill="#999999" points="283.6,368.5 250,368.5 238.1,368.5 232.6,368.5 232.6,375.3 238.1,375.3 238.1,384.8 240.9,384.8 
	240.9,375.3 250,375.3 276.8,375.3 276.8,416.8 240.9,416.8 240.9,401.2 238.1,401.2 238.1,416.8 232.6,416.8 232.6,419.4 
	276.8,419.4 276.8,553.1 283.4,553.1 "/>
<polyline fill="#999999" points="203.7,553 210.2,553.1 210.2,525.3 235.1,525.3 235.1,518.5 210.2,518.5 210.2,375.3 216.4,375.3 
	216.4,368.5 203.7,368.5 "/>
<rect x="235.3" y="518.6" fill="none" stroke="#777777" stroke-width="0.5" stroke-linecap="round" stroke-linejoin="round" stroke-miterlimit="10" width="23.9" height="6.8"/>
<line fill="#999999" x1="717.2" y1="553.1" x2="722.8" y2="553.1"/>
<rect x="429.9" y="549.8" fill="#999999" width="140.8" height="3.4"/>
<rect x="430.2" y="414.8" fill="none" stroke="#999999" stroke-width="0.9" stroke-miterlimit="10" width="52.2" height="6.5"/>
<rect x="430.2" y="421.3" fill="none" stroke="#999999" stroke-width="0.9" stroke-miterlimit="10" width="52.2" height="6.5"/>
<rect x="430.2" y="427.8" fill="none" stroke="#999999" stroke-width="0.9" stroke-miterlimit="10" width="52.2" height="6.5"/>
<rect x="430.2" y="434.3" fill="none" stroke="#999999" stroke-width="0.9" stroke-miterlimit="10" width="52.2" height="6.5"/>
<rect x="430.2" y="440.8" fill="none" stroke="#999999" stroke-width="0.9" stroke-miterlimit="10" width="52.2" height="6.5"/>
<rect x="430.2" y="447.3" fill="none" stroke="#999999" stroke-width="0.9" stroke-miterlimit="10" width="52.2" height="6.5"/>
<rect x="430.2" y="453.8" fill="none" stroke="#999999" stroke-width="0.9" stroke-miterlimit="10" width="52.2" height="6.5"/>
<rect x="430.2" y="460.3" fill="none" stroke="#999999" stroke-width="0.9" stroke-miterlimit="10" width="52.2" height="6.5"/>
<rect x="430.2" y="466.8" fill="none" stroke="#999999" stroke-width="0.9" stroke-miterlimit="10" width="52.2" height="6.5"/>
<polygon fill="none" stroke="#999999" stroke-width="0.9" stroke-miterlimit="10" points="455.3,413.2 453.7,413.2 453.7,415.1 
	453.7,488.4 455.3,488.4 455.3,415.1 456.5,415.1 456.5,488.4 458.1,488.4 458.1,415.1 458.1,413.2 456.5,413.2 "/>
<line fill="none" stroke="#999999" stroke-width="0.9" stroke-miterlimit="10" x1="469.5" y1="414.8" x2="469.5" y2="486.3"/>
<path fill="none" stroke="#999999" stroke-width="0.9" stroke-miterlimit="10" d="M469.5,484.9c-0.8,0-1.4,0.6-1.4,1.4
	c0,0.8,0.6,1.4,1.4,1.4c0.8,0,1.4-0.6,1.4-1.4C471,485.5,470.3,484.9,469.5,484.9L469.5,484.9z"/>
<line fill="none" stroke="#999999" stroke-width="0.9" stroke-miterlimit="10" x1="471.2" y1="419.5" x2="469.5" y2="414.8"/>
<line fill="none" stroke="#999999" stroke-width="0.9" stroke-miterlimit="10" x1="467.9" y1="419.5" x2="469.5" y2="414.8"/>
<line fill="none" stroke="#999999" stroke-width="0.9" stroke-miterlimit="10" x1="442.5" y1="485.6" x2="442.5" y2="414.8"/>
<path fill="none" stroke="#999999" stroke-width="0.9" stroke-miterlimit="10" d="M442.5,416.1c-0.8,0-1.4-0.6-1.4-1.4
	c0-0.8,0.6-1.4,1.4-1.4c0.8,0,1.4,0.6,1.4,1.4C443.9,415.5,443.3,416.1,442.5,416.1L442.5,416.1z"/>
<line fill="none" stroke="#999999" stroke-width="0.9" stroke-miterlimit="10" x1="444.2" y1="481.5" x2="442.5" y2="486.3"/>
<line fill="none" stroke="#999999" stroke-width="0.9" stroke-miterlimit="10" x1="440.8" y1="481.5" x2="442.5" y2="486.3"/>
<rect x="430.2" y="473.3" fill="none" stroke="#999999" stroke-width="0.9" stroke-miterlimit="10" width="52.2" height="6.5"/>
<rect x="430.2" y="479.8" fill="none" stroke="#999999" stroke-width="0.9" stroke-miterlimit="10" width="52.2" height="6.5"/>
<rect x="524.1" y="428.5" fill="none" stroke="#777777" stroke-width="0.5" stroke-linecap="round" stroke-linejoin="round" stroke-miterlimit="10" width="1.3" height="15.9"/>
<rect x="524.1" y="445" fill="none" stroke="#777777" stroke-width="0.5" stroke-linecap="round" stroke-linejoin="round" stroke-miterlimit="10" width="1.3" height="15.9"/>
<rect x="524.1" y="393.4" fill="none" stroke="#777777" stroke-width="0.5" stroke-linecap="round" stroke-linejoin="round" stroke-miterlimit="10" width="1.3" height="8.2"/>
<rect x="524.1" y="402.2" fill="none" stroke="#777777" stroke-width="0.5" stroke-linecap="round" stroke-linejoin="round" stroke-miterlimit="10" width="1.3" height="8.2"/>
<g>
	<path fill="#999999" d="M15.2,415.7c-0.1-0.8-0.2-1.8-0.2-3.2c0-1.6,0.4-2.8,1.1-3.6c0.6-0.7,1.5-1.1,2.7-1.1c1.2,0,2.1,0.3,2.7,1
		c0.9,0.9,1.4,2.3,1.4,3.9c0,0.5,0,0.9-0.1,1.3h5.1v1.7H15.2z M21.4,414.1c0.1-0.4,0.1-0.8,0.1-1.4c0-2-1-3.2-2.7-3.2
		c-1.7,0-2.5,1.2-2.5,3c0,0.7,0.1,1.3,0.1,1.6H21.4z"/>
	<path fill="#999999" d="M23.2,397.9c3.4,0,4.9,2.4,4.9,4.6c0,2.5-1.8,4.4-4.7,4.4c-3.1,0-4.9-2-4.9-4.6
		C18.5,399.7,20.4,397.9,23.2,397.9z M23.3,405.2c2,0,3.5-1.2,3.5-2.8c0-1.6-1.5-2.8-3.6-2.8c-1.6,0-3.5,0.8-3.5,2.8
		C19.7,404.3,21.6,405.2,23.3,405.2z"/>
	<path fill="#999999" d="M27.5,389.2c0.2,0.4,0.5,1.4,0.5,2.6c0,2.8-1.9,4.6-4.7,4.6c-2.8,0-4.9-1.9-4.9-4.9c0-1,0.2-1.9,0.5-2.3
		l1.3,0.4c-0.2,0.4-0.4,1-0.4,1.9c0,2.1,1.6,3.2,3.5,3.2c2.1,0,3.4-1.4,3.4-3.2c0-1-0.2-1.6-0.5-2.1L27.5,389.2z"/>
	<path fill="#999999" d="M18.7,380.7H20v2.9h7.9v1.7H20v2.9h-1.3V380.7z"/>
	<path fill="#999999" d="M23.2,371.2c3.4,0,4.9,2.4,4.9,4.6c0,2.5-1.8,4.4-4.7,4.4c-3.1,0-4.9-2-4.9-4.6
		C18.5,373,20.4,371.2,23.2,371.2z M23.3,378.5c2,0,3.5-1.2,3.5-2.8c0-1.6-1.5-2.8-3.6-2.8c-1.6,0-3.5,0.8-3.5,2.8
		C19.7,377.6,21.6,378.5,23.3,378.5z"/>
	<path fill="#999999" d="M18.8,369.1c-0.1-0.6-0.2-1.8-0.2-2.9c0-1.5,0.2-4.1,2.3-4.1c1.1,0,1.8,0.9,2.1,1.9h0
		c0.2-1.3,0.9-2.3,2.3-2.3c2.4,0,2.7,3,2.7,4.8c0,1-0.1,2.1-0.1,2.6H18.8z M22.5,367.5v-1.3c0-1.2-0.4-2.5-1.4-2.5
		c-0.9,0-1.3,0.8-1.3,2.5c0,0.6,0,0.9,0.1,1.3H22.5z M26.8,367.5c0.1-0.5,0.1-0.8,0.1-1.3c0-1.1-0.3-2.8-1.6-2.8
		c-1.3,0-1.6,1.3-1.6,2.9v1.2H26.8z"/>
	<path fill="#999999" d="M22.1,355.7h1.2v4.7h-1.2V355.7z"/>
	<path fill="#999999" d="M18.7,352.1h3.7v-4.4h-3.7v-1.7h9.2v1.7h-4.2v4.4h4.2v1.7h-9.2V352.1z"/>
	<path fill="#999999" d="M27.9,338.3l-1.2,0.1v0.1c0.7,0.5,1.4,1.5,1.4,2.8c0,1.9-1.3,2.8-2.6,2.8c-2.2,0-3.4-2-3.4-5.5h-0.2
		c-0.8,0-2.1,0.2-2.1,2.1c0,0.9,0.3,1.7,0.7,2.4l-1.1,0.4c-0.5-0.8-0.8-1.9-0.8-3c0-2.8,1.9-3.5,3.8-3.5h3.4c0.8,0,1.6,0,2.2-0.2
		V338.3z M23.2,338.5c0,1.8,0.3,3.9,2.1,3.9c1.1,0,1.6-0.7,1.6-1.6c0-1.2-0.8-2-1.5-2.2c-0.2-0.1-0.4-0.1-0.5-0.1H23.2z"/>
	<path fill="#999999" d="M22.1,330.3h1.2v4.7h-1.2V330.3z"/>
	<path fill="#999999" d="M15.1,319.6h11.5l0-1.1l4.4,0.1v1.3l-3.1,0.1v8.1l3.1,0.1v1.3l-4.4,0.1l0-1c-0.9-0.5-1.8-0.9-2.8-1.3
		c-1.5-0.4-3.2-0.6-5.4-0.6h-3.2V319.6z M18.9,325.2c2.1,0,3.8,0.2,5.2,0.6c0.9,0.3,1.7,0.7,2.4,1v-5.7H16.4v4H18.9z"/>
	<path fill="#999999" d="M23.2,308.2c3.4,0,4.9,2.4,4.9,4.6c0,2.5-1.8,4.4-4.7,4.4c-3.1,0-4.9-2-4.9-4.6
		C18.5,310,20.4,308.2,23.2,308.2z M23.3,315.5c2,0,3.5-1.2,3.5-2.8c0-1.6-1.5-2.8-3.6-2.8c-1.6,0-3.5,0.8-3.5,2.8
		S21.6,315.5,23.3,315.5z"/>
	<path fill="#999999" d="M18.7,304.5h3.7v-4.4h-3.7v-1.7h9.2v1.7h-4.2v4.4h4.2v1.7h-9.2V304.5z"/>
	<path fill="#999999" d="M18.7,295.2l5.4-2c0.6-0.2,1.3-0.4,1.9-0.6v0c-0.6-0.2-1.3-0.4-1.9-0.6l-5.4-1.8v-1.8l6.6,2.5
		c3.2,1.2,4.8,2,5.8,3.2c0.7,0.8,1,1.6,1.1,2.1l-1.4,0.4c-0.1-0.4-0.4-1-0.8-1.5c-0.4-0.5-1-1-1.9-1.4c-0.2-0.1-0.3-0.1-0.4-0.1
		s-0.2,0-0.4,0.1l-8.5,3.4V295.2z"/>
</g>
</svg>
