<svg xmlns="http://www.w3.org/2000/svg" viewBox="0 0 102 102"><defs><style>.cls-1{fill:#8991a9;}</style></defs><title>Ресурс 1</title><g id="Слой_2" data-name="Слой 2"><g id="Слой_1-2" data-name="Слой 1"><path class="cls-1" d="M51,2A49,49,0,1,1,2,51,49.05,49.05,0,0,1,51,2m0-2a51,51,0,1,0,51,51A51,51,0,0,0,51,0Z"/><path class="cls-1" d="M78.36,77.24a1.12,1.12,0,1,0,1.11,1.12A1.12,1.12,0,0,0,78.36,77.24Z"/><path class="cls-1" d="M75,37a1.11,1.11,0,0,0-1.11-1.11H72.8V28.09A1.12,1.12,0,0,0,71.68,27H68.79V23.64a1.11,1.11,0,0,0-1.11-1.11H34.32a1.11,1.11,0,0,0-1.11,1.11V27H30.32a1.12,1.12,0,0,0-1.12,1.11v7.79H28.09A1.11,1.11,0,0,0,27,37V77.24H23.64a1.12,1.12,0,0,0,0,2.23H73.91A1.09,1.09,0,0,0,75,78.17h0ZM35.43,24.76H66.57V27H35.43Zm-4,8.89H46.55a1.11,1.11,0,0,0,0-2.22H31.43V29.2H70.57v2.23H55.45a1.11,1.11,0,0,0,0,2.22H70.57v2.23H31.43Zm14,43.59H29.2V75H45.44Zm4.45,0H47.66V70.57h2.23Zm4.45,0H52.11V70.57h2.23Zm0-8.89H47.66V66.12h6.68ZM72.8,77.24H56.56V75H72.8Zm0-4.44H56.56V65a1.11,1.11,0,0,0-1.11-1.11h-8.9A1.11,1.11,0,0,0,45.44,65V72.8H29.2V38.1H72.8Z"/><path class="cls-1" d="M51,31.43a1.11,1.11,0,1,0,1.11,1.11A1.11,1.11,0,0,0,51,31.43Z"/><path class="cls-1" d="M68.79,68.35a1.11,1.11,0,1,0,1.11,1.11A1.11,1.11,0,0,0,68.79,68.35Z"/><path class="cls-1" d="M59.9,68.35A1.11,1.11,0,1,0,61,69.46,1.12,1.12,0,0,0,59.9,68.35Z"/><path class="cls-1" d="M64.34,68.35a1.11,1.11,0,1,0,1.12,1.11A1.11,1.11,0,0,0,64.34,68.35Z"/><path class="cls-1" d="M37.66,68.35a1.11,1.11,0,1,0,1.11,1.11A1.12,1.12,0,0,0,37.66,68.35Z"/><path class="cls-1" d="M42.1,68.35a1.11,1.11,0,1,0,1.12,1.11A1.11,1.11,0,0,0,42.1,68.35Z"/><path class="cls-1" d="M33.21,68.35a1.11,1.11,0,1,0,1.11,1.11A1.11,1.11,0,0,0,33.21,68.35Z"/><path class="cls-1" d="M68.79,63.9a1.11,1.11,0,0,0,0,2.22,1.11,1.11,0,0,0,0-2.22Z"/><path class="cls-1" d="M64.34,63.9A1.11,1.11,0,1,0,65.46,65,1.11,1.11,0,0,0,64.34,63.9Z"/><path class="cls-1" d="M33.21,63.9A1.11,1.11,0,1,0,34.32,65,1.11,1.11,0,0,0,33.21,63.9Z"/><path class="cls-1" d="M59.9,63.9A1.11,1.11,0,1,0,61,65,1.12,1.12,0,0,0,59.9,63.9Z"/><path class="cls-1" d="M42.1,63.9A1.11,1.11,0,1,0,43.22,65,1.11,1.11,0,0,0,42.1,63.9Z"/><path class="cls-1" d="M37.66,63.9A1.11,1.11,0,1,0,38.77,65,1.12,1.12,0,0,0,37.66,63.9Z"/><path class="cls-1" d="M51,59.45a1.12,1.12,0,1,0,1.11,1.11A1.11,1.11,0,0,0,51,59.45Z"/><path class="cls-1" d="M55.45,59.45a1.12,1.12,0,1,0,1.11,1.11A1.11,1.11,0,0,0,55.45,59.45Z"/><path class="cls-1" d="M59.9,59.45A1.12,1.12,0,1,0,61,60.56,1.12,1.12,0,0,0,59.9,59.45Z"/><path class="cls-1" d="M33.21,59.45a1.12,1.12,0,1,0,1.11,1.11A1.11,1.11,0,0,0,33.21,59.45Z"/><path class="cls-1" d="M42.1,59.45a1.12,1.12,0,1,0,1.12,1.11A1.11,1.11,0,0,0,42.1,59.45Z"/><path class="cls-1" d="M64.34,59.45a1.12,1.12,0,1,0,1.12,1.11A1.11,1.11,0,0,0,64.34,59.45Z"/><path class="cls-1" d="M37.66,59.45a1.12,1.12,0,1,0,1.11,1.11A1.12,1.12,0,0,0,37.66,59.45Z"/><path class="cls-1" d="M68.79,59.45a1.12,1.12,0,1,0,1.11,1.11A1.11,1.11,0,0,0,68.79,59.45Z"/><path class="cls-1" d="M46.55,59.45a1.12,1.12,0,1,0,1.11,1.11A1.11,1.11,0,0,0,46.55,59.45Z"/><path class="cls-1" d="M59.9,55A1.12,1.12,0,1,0,61,56.12,1.12,1.12,0,0,0,59.9,55Z"/><path class="cls-1" d="M64.34,55a1.12,1.12,0,1,0,1.12,1.12A1.12,1.12,0,0,0,64.34,55Z"/><path class="cls-1" d="M68.79,55a1.12,1.12,0,1,0,1.11,1.12A1.12,1.12,0,0,0,68.79,55Z"/><path class="cls-1" d="M55.45,55a1.12,1.12,0,1,0,1.11,1.12A1.11,1.11,0,0,0,55.45,55Z"/><path class="cls-1" d="M42.1,55a1.12,1.12,0,1,0,1.12,1.12A1.12,1.12,0,0,0,42.1,55Z"/><path class="cls-1" d="M46.55,55a1.12,1.12,0,1,0,1.11,1.12A1.12,1.12,0,0,0,46.55,55Z"/><path class="cls-1" d="M51,55a1.12,1.12,0,1,0,1.11,1.12A1.12,1.12,0,0,0,51,55Z"/><path class="cls-1" d="M33.21,55a1.12,1.12,0,1,0,1.11,1.12A1.11,1.11,0,0,0,33.21,55Z"/><path class="cls-1" d="M37.66,55a1.12,1.12,0,1,0,1.11,1.12A1.12,1.12,0,0,0,37.66,55Z"/><path class="cls-1" d="M33.21,50.56a1.11,1.11,0,1,0,0,2.22,1.11,1.11,0,0,0,0-2.22Z"/><path class="cls-1" d="M64.34,50.56a1.11,1.11,0,1,0,1.12,1.11A1.11,1.11,0,0,0,64.34,50.56Z"/><path class="cls-1" d="M46.55,50.56a1.11,1.11,0,1,0,1.11,1.11A1.11,1.11,0,0,0,46.55,50.56Z"/><path class="cls-1" d="M42.1,50.56a1.11,1.11,0,1,0,1.12,1.11A1.11,1.11,0,0,0,42.1,50.56Z"/><path class="cls-1" d="M68.79,50.56a1.11,1.11,0,1,0,1.11,1.11A1.11,1.11,0,0,0,68.79,50.56Z"/><path class="cls-1" d="M37.66,50.56a1.11,1.11,0,1,0,1.11,1.11A1.11,1.11,0,0,0,37.66,50.56Z"/><path class="cls-1" d="M55.45,50.56a1.11,1.11,0,0,0,0,2.22,1.11,1.11,0,0,0,0-2.22Z"/><path class="cls-1" d="M51,50.56a1.11,1.11,0,1,0,1.11,1.11A1.11,1.11,0,0,0,51,50.56Z"/><path class="cls-1" d="M59.9,50.56A1.11,1.11,0,1,0,61,51.67,1.11,1.11,0,0,0,59.9,50.56Z"/><path class="cls-1" d="M51,46.11a1.11,1.11,0,1,0,1.11,1.11A1.11,1.11,0,0,0,51,46.11Z"/><path class="cls-1" d="M37.66,46.11a1.11,1.11,0,1,0,1.11,1.11A1.12,1.12,0,0,0,37.66,46.11Z"/><path class="cls-1" d="M68.79,46.11a1.11,1.11,0,1,0,1.11,1.11A1.11,1.11,0,0,0,68.79,46.11Z"/><path class="cls-1" d="M33.21,46.11a1.11,1.11,0,1,0,1.11,1.11A1.11,1.11,0,0,0,33.21,46.11Z"/><path class="cls-1" d="M46.55,46.11a1.11,1.11,0,1,0,1.11,1.11A1.11,1.11,0,0,0,46.55,46.11Z"/><path class="cls-1" d="M55.45,46.11a1.11,1.11,0,1,0,1.11,1.11A1.11,1.11,0,0,0,55.45,46.11Z"/><path class="cls-1" d="M64.34,46.11a1.11,1.11,0,1,0,1.12,1.11A1.11,1.11,0,0,0,64.34,46.11Z"/><path class="cls-1" d="M59.9,46.11A1.11,1.11,0,1,0,61,47.22,1.12,1.12,0,0,0,59.9,46.11Z"/><path class="cls-1" d="M42.1,46.11a1.11,1.11,0,1,0,1.12,1.11A1.11,1.11,0,0,0,42.1,46.11Z"/><path class="cls-1" d="M68.79,41.66a1.11,1.11,0,1,0,1.11,1.11A1.11,1.11,0,0,0,68.79,41.66Z"/><path class="cls-1" d="M33.21,41.66a1.11,1.11,0,1,0,1.11,1.11A1.11,1.11,0,0,0,33.21,41.66Z"/><path class="cls-1" d="M42.1,41.66a1.11,1.11,0,1,0,1.12,1.11A1.11,1.11,0,0,0,42.1,41.66Z"/><path class="cls-1" d="M46.55,41.66a1.11,1.11,0,1,0,1.11,1.11A1.11,1.11,0,0,0,46.55,41.66Z"/><path class="cls-1" d="M64.34,41.66a1.11,1.11,0,1,0,1.12,1.11A1.11,1.11,0,0,0,64.34,41.66Z"/><path class="cls-1" d="M51,41.66a1.11,1.11,0,1,0,1.11,1.11A1.11,1.11,0,0,0,51,41.66Z"/><path class="cls-1" d="M59.9,41.66A1.11,1.11,0,1,0,61,42.77,1.12,1.12,0,0,0,59.9,41.66Z"/><path class="cls-1" d="M37.66,41.66a1.11,1.11,0,1,0,1.11,1.11A1.12,1.12,0,0,0,37.66,41.66Z"/><path class="cls-1" d="M55.45,41.66a1.11,1.11,0,1,0,1.11,1.11A1.11,1.11,0,0,0,55.45,41.66Z"/></g></g></svg>