<svg xmlns="http://www.w3.org/2000/svg" viewBox="0 0 102 102"><defs><style>.cls-1{fill:#8991a9;}</style></defs><title>Ресурс 2</title><g id="Слой_2" data-name="Слой 2"><g id="Слой_1-2" data-name="Слой 1"><path class="cls-1" d="M78.41,80.17H76.66V25a1.06,1.06,0,0,0-1.06-1H55.92a1,1,0,0,0-1.05,1v4.57H52.76V25a1.05,1.05,0,0,0-1.06-1H47.13V20.77a1,1,0,0,0-2.1,0v3.17H40.46a1.05,1.05,0,0,0-1.06,1v4.57H36.24a1.06,1.06,0,0,0-1.06,1.06V39.4H26.4a1.06,1.06,0,0,0-1.06,1.06V80.17H23.59a1.06,1.06,0,1,0,0,2.11H78.41a1.06,1.06,0,1,0,0-2.11ZM41.51,26.05h9.14v3.51H41.51ZM38,80.17h-.71V78.41a1.06,1.06,0,0,0-2.11,0v1.76h-.7V76.66H38Zm7-27.06V80.17H40.1V75.6a1,1,0,0,0-1.05-1H33.43a1.05,1.05,0,0,0-1.06,1v4.57H27.45V41.51H45v11.6Zm1-13.71H37.29V31.67H54.87V52.05H47.13V48.54H50.3a1.06,1.06,0,0,0,0-2.11H47.13V42.92H50.3a1.06,1.06,0,0,0,0-2.11H47.13v-.35A1.05,1.05,0,0,0,46.08,39.4ZM64.71,80.17H47.13v-26H64.71Zm9.84,0H66.82V51.7a1.06,1.06,0,0,0-2.11,0v.35H62.6V51.7a1.06,1.06,0,0,0-2.11,0v.35H57v-26H74.55V80.17Z"/><path class="cls-1" d="M51.7,78.06a1.05,1.05,0,0,0,1.06-1V57.33a1.06,1.06,0,1,0-2.11,0V77A1,1,0,0,0,51.7,78.06Z"/><path class="cls-1" d="M55.92,78.06a1,1,0,0,0,1-1V57.33a1.05,1.05,0,1,0-2.1,0V77A1,1,0,0,0,55.92,78.06Z"/><path class="cls-1" d="M60.14,78.06a1,1,0,0,0,1-1V57.33a1.06,1.06,0,1,0-2.11,0V77A1.06,1.06,0,0,0,60.14,78.06Z"/><path class="cls-1" d="M61.54,33.08A1.06,1.06,0,0,0,62.6,32v-1.4a1.06,1.06,0,1,0-2.11,0V32A1.06,1.06,0,0,0,61.54,33.08Z"/><path class="cls-1" d="M65.76,33.08A1.07,1.07,0,0,0,66.82,32v-1.4a1.06,1.06,0,1,0-2.11,0V32A1.06,1.06,0,0,0,65.76,33.08Z"/><path class="cls-1" d="M70,33.08A1.06,1.06,0,0,0,71,32v-1.4a1.06,1.06,0,1,0-2.11,0V32A1.07,1.07,0,0,0,70,33.08Z"/><path class="cls-1" d="M61.54,40.1a1.05,1.05,0,0,0,1.06-1.05V37.64a1.06,1.06,0,0,0-2.11,0v1.41A1,1,0,0,0,61.54,40.1Z"/><path class="cls-1" d="M65.76,40.1a1.06,1.06,0,0,0,1.06-1.05V37.64a1.06,1.06,0,0,0-2.11,0v1.41A1,1,0,0,0,65.76,40.1Z"/><path class="cls-1" d="M70,40.1a1,1,0,0,0,1-1.05V37.64a1.06,1.06,0,0,0-2.11,0v1.41A1.06,1.06,0,0,0,70,40.1Z"/><path class="cls-1" d="M61.54,47.13a1.05,1.05,0,0,0,1.06-1.05V44.67a1.06,1.06,0,0,0-2.11,0v1.41A1,1,0,0,0,61.54,47.13Z"/><path class="cls-1" d="M65.76,47.13a1.06,1.06,0,0,0,1.06-1.05V44.67a1.06,1.06,0,0,0-2.11,0v1.41A1,1,0,0,0,65.76,47.13Z"/><path class="cls-1" d="M70,47.13a1,1,0,0,0,1-1.05V44.67a1.06,1.06,0,0,0-2.11,0v1.41A1.06,1.06,0,0,0,70,47.13Z"/><path class="cls-1" d="M32,50a1.07,1.07,0,0,0,1.06-1.06v-1.4a1.06,1.06,0,1,0-2.11,0v1.4A1.06,1.06,0,0,0,32,50Z"/><path class="cls-1" d="M36.24,50a1.06,1.06,0,0,0,1-1.06v-1.4a1.06,1.06,0,1,0-2.11,0v1.4A1.07,1.07,0,0,0,36.24,50Z"/><path class="cls-1" d="M40.46,50a1.06,1.06,0,0,0,1-1.06v-1.4a1.06,1.06,0,1,0-2.11,0v1.4A1.06,1.06,0,0,0,40.46,50Z"/><path class="cls-1" d="M32,57a1.06,1.06,0,0,0,1.06-1V54.51a1.06,1.06,0,0,0-2.11,0v1.41A1,1,0,0,0,32,57Z"/><path class="cls-1" d="M36.24,57a1,1,0,0,0,1-1V54.51a1.06,1.06,0,0,0-2.11,0v1.41A1.06,1.06,0,0,0,36.24,57Z"/><path class="cls-1" d="M40.46,57a1,1,0,0,0,1-1V54.51a1.06,1.06,0,0,0-2.11,0v1.41A1.05,1.05,0,0,0,40.46,57Z"/><path class="cls-1" d="M32,64a1.06,1.06,0,0,0,1.06-1V61.54a1.06,1.06,0,0,0-2.11,0V63A1,1,0,0,0,32,64Z"/><path class="cls-1" d="M36.24,64a1,1,0,0,0,1-1V61.54a1.06,1.06,0,0,0-2.11,0V63A1.06,1.06,0,0,0,36.24,64Z"/><path class="cls-1" d="M40.46,64a1,1,0,0,0,1-1V61.54a1.06,1.06,0,0,0-2.11,0V63A1.05,1.05,0,0,0,40.46,64Z"/><path class="cls-1" d="M32,71a1.06,1.06,0,0,0,1.06-1V68.57a1.06,1.06,0,0,0-2.11,0V70A1,1,0,0,0,32,71Z"/><path class="cls-1" d="M36.24,71a1,1,0,0,0,1-1V68.57a1.06,1.06,0,0,0-2.11,0V70A1.06,1.06,0,0,0,36.24,71Z"/><path class="cls-1" d="M40.46,71a1,1,0,0,0,1-1V68.57a1.06,1.06,0,0,0-2.11,0V70A1.05,1.05,0,0,0,40.46,71Z"/><path class="cls-1" d="M70,54.16a1,1,0,0,0,1-1V51.7a1.06,1.06,0,0,0-2.11,0v1.41A1.06,1.06,0,0,0,70,54.16Z"/><path class="cls-1" d="M70,61.19a1,1,0,0,0,1-1V58.73a1.06,1.06,0,0,0-2.11,0v1.41A1.06,1.06,0,0,0,70,61.19Z"/><path class="cls-1" d="M70,68.22a1,1,0,0,0,1-1V65.76a1.06,1.06,0,0,0-2.11,0v1.41A1.06,1.06,0,0,0,70,68.22Z"/><path class="cls-1" d="M70,75.25a1,1,0,0,0,1-1V72.79a1.06,1.06,0,0,0-2.11,0V74.2A1.06,1.06,0,0,0,70,75.25Z"/><path class="cls-1" d="M51.35,36.24a1.06,1.06,0,0,0-1.05-1.06H41.86a1.06,1.06,0,0,0,0,2.11H50.3A1,1,0,0,0,51.35,36.24Z"/><path class="cls-1" d="M51,2A49,49,0,1,1,2,51,49.05,49.05,0,0,1,51,2m0-2a51,51,0,1,0,51,51A51,51,0,0,0,51,0Z"/></g></g></svg>