<svg xmlns="http://www.w3.org/2000/svg" xmlns:xlink="http://www.w3.org/1999/xlink" viewBox="0 0 193.98 193.94"><defs><style>.cls-1,.cls-23{opacity:0.3;}.cls-2{fill:url(#Безымянный_градиент_11);}.cls-3{fill:url(#Безымянный_градиент_11-2);}.cls-4{fill:url(#Безымянный_градиент_11-3);}.cls-5{fill:url(#Безымянный_градиент_11-4);}.cls-6{fill:url(#Безымянный_градиент_11-5);}.cls-7{fill:url(#Безымянный_градиент_11-6);}.cls-8{fill:url(#Безымянный_градиент_11-7);}.cls-9{fill:url(#Безымянный_градиент_11-8);}.cls-10{fill:url(#Безымянный_градиент_11-9);}.cls-11{fill:url(#Безымянный_градиент_11-10);}.cls-12{fill:url(#Безымянный_градиент_11-11);}.cls-13{fill:url(#Безымянный_градиент_11-12);}.cls-14{fill:url(#Безымянный_градиент_11-13);}.cls-15{fill:url(#Безымянный_градиент_11-14);}.cls-16{fill:url(#Безымянный_градиент_11-15);}.cls-17{fill:url(#Безымянный_градиент_11-16);}.cls-18{fill:url(#Безымянный_градиент_11-17);}.cls-19{fill:url(#Безымянный_градиент_11-18);}.cls-20{fill:url(#Безымянный_градиент_11-19);}.cls-21{fill:url(#Безымянный_градиент_11-20);}.cls-22{fill:url(#Безымянный_градиент_11-21);}.cls-23{fill:url(#Безымянный_градиент_11-22);}</style><linearGradient id="Безымянный_градиент_11" x1="74.23" y1="123.21" x2="75.73" y2="123.21" gradientUnits="userSpaceOnUse"><stop offset="0" stop-color="#99c4fc"/><stop offset="0.23" stop-color="#a2c4fc"/><stop offset="0.62" stop-color="#bcc3fc"/><stop offset="0.99" stop-color="#dac3fc"/></linearGradient><linearGradient id="Безымянный_градиент_11-2" x1="71.65" y1="123.21" x2="73.16" y2="123.21" xlink:href="#Безымянный_градиент_11"/><linearGradient id="Безымянный_градиент_11-3" x1="79.38" y1="123.21" x2="80.88" y2="123.21" xlink:href="#Безымянный_градиент_11"/><linearGradient id="Безымянный_градиент_11-4" x1="76.8" y1="123.21" x2="78.31" y2="123.21" xlink:href="#Безымянный_градиент_11"/><linearGradient id="Безымянный_градиент_11-5" x1="72.16" y1="126.95" x2="80.37" y2="126.95" xlink:href="#Безымянный_градиент_11"/><linearGradient id="Безымянный_градиент_11-6" x1="71.14" y1="129.78" x2="81.39" y2="129.78" xlink:href="#Безымянный_градиент_11"/><linearGradient id="Безымянный_градиент_11-7" x1="72.16" y1="130.29" x2="80.37" y2="130.29" xlink:href="#Безымянный_градиент_11"/><linearGradient id="Безымянный_градиент_11-8" x1="70.11" y1="128.22" x2="82.44" y2="128.22" xlink:href="#Безымянный_градиент_11"/><linearGradient id="Безымянный_градиент_11-9" x1="64.09" y1="128.24" x2="88.48" y2="128.24" xlink:href="#Безымянный_градиент_11"/><linearGradient id="Безымянный_градиент_11-10" x1="50.08" y1="96.97" x2="143.91" y2="96.97" xlink:href="#Безымянный_градиент_11"/><linearGradient id="Безымянный_градиент_11-11" x1="121.54" y1="86.6" x2="131.89" y2="86.6" xlink:href="#Безымянный_градиент_11"/><linearGradient id="Безымянный_градиент_11-12" x1="120.69" y1="83.3" x2="132.72" y2="83.3" xlink:href="#Безымянный_градиент_11"/><linearGradient id="Безымянный_градиент_11-13" x1="125.24" y1="86.6" x2="128.2" y2="86.6" xlink:href="#Безымянный_градиент_11"/><linearGradient id="Безымянный_градиент_11-14" x1="114.52" y1="83.3" x2="138.92" y2="83.3" xlink:href="#Безымянный_градиент_11"/><linearGradient id="Безымянный_градиент_11-15" x1="95.29" y1="81.07" x2="97.53" y2="81.07" xlink:href="#Безымянный_градиент_11"/><linearGradient id="Безымянный_градиент_11-16" x1="93.07" y1="81.49" x2="93.63" y2="81.49" xlink:href="#Безымянный_градиент_11"/><linearGradient id="Безымянный_градиент_11-17" x1="93.07" y1="82.61" x2="93.63" y2="82.61" xlink:href="#Безымянный_градиент_11"/><linearGradient id="Безымянный_градиент_11-18" x1="93.07" y1="80.37" x2="93.63" y2="80.37" xlink:href="#Безымянный_градиент_11"/><linearGradient id="Безымянный_градиент_11-19" x1="84.94" y1="83.31" x2="101.7" y2="83.31" xlink:href="#Безымянный_градиент_11"/><linearGradient id="Безымянный_градиент_11-20" x1="89.14" y1="81.07" x2="91.36" y2="81.07" xlink:href="#Безымянный_градиент_11"/><linearGradient id="Безымянный_градиент_11-21" x1="81.16" y1="83.3" x2="105.56" y2="83.3" xlink:href="#Безымянный_градиент_11"/><linearGradient id="Безымянный_градиент_11-22" x1="0" y1="96.97" x2="193.98" y2="96.97" xlink:href="#Безымянный_градиент_11"/></defs><title>Ресурс 1</title><g id="Слой_2" data-name="Слой 2"><g id="Слой_1-2" data-name="Слой 1"><g class="cls-1"><path class="cls-2" d="M75.23,122.62v-.05a.25.25,0,0,0-.5,0v.05a.77.77,0,0,0-.5.72.75.75,0,1,0,1.5,0A.77.77,0,0,0,75.23,122.62Zm-.25,1a.27.27,0,0,1-.28-.28.3.3,0,0,1,.28-.28.28.28,0,0,1,0,.56Z"/><path class="cls-3" d="M72.65,122.62v-.05a.23.23,0,0,0-.24-.24.24.24,0,0,0-.25.24v.05a.76.76,0,0,0,.25,1.48.76.76,0,0,0,.75-.76A.77.77,0,0,0,72.65,122.62Zm-.24,1a.27.27,0,0,1-.28-.28.29.29,0,0,1,.28-.28.28.28,0,0,1,0,.56Z"/><path class="cls-4" d="M80.37,122.62v-.05a.23.23,0,0,0-.24-.24.24.24,0,0,0-.25.24v.05a.77.77,0,0,0-.5.72.75.75,0,1,0,1.5,0A.77.77,0,0,0,80.37,122.62Zm-.24,1a.27.27,0,0,1-.28-.28.3.3,0,0,1,.28-.28.28.28,0,0,1,0,.56Z"/><path class="cls-5" d="M77.8,122.62v-.05a.24.24,0,0,0-.25-.24.23.23,0,0,0-.24.24v.05a.77.77,0,0,0-.51.72.75.75,0,0,0,.75.76.76.76,0,0,0,.25-1.48Zm-.25,1a.28.28,0,0,1-.28-.28.3.3,0,0,1,.28-.28.28.28,0,0,1,0,.56Z"/><path class="cls-6" d="M72.41,127.19h7.72a.23.23,0,0,0,.24-.24.24.24,0,0,0-.24-.25H72.41a.25.25,0,0,0-.25.25A.24.24,0,0,0,72.41,127.19Z"/><path class="cls-7" d="M71.64,133.88H80.9a.48.48,0,0,0,.49-.49v-7.21a.48.48,0,0,0-.49-.51H71.64a.5.5,0,0,0-.5.51v7.21A.49.49,0,0,0,71.64,133.88Zm0-7.72s0,0,0,0H80.9s0,0,0,0v7.22h-9.3Z"/><path class="cls-8" d="M72.41,132.85h7.72a.23.23,0,0,0,.24-.24V128a.23.23,0,0,0-.24-.24H72.41a.24.24,0,0,0-.25.24v4.63A.24.24,0,0,0,72.41,132.85Zm.24-4.64H79.9v4.15H72.65Z"/><path class="cls-9" d="M81.93,121.56h-.52v-.28a.51.51,0,0,0-.49-.51H77.31a.51.51,0,0,0-.51.51v.28H75.73v-.28a.5.5,0,0,0-.49-.51h-3.6a.5.5,0,0,0-.5.51v.28h-.52a.5.5,0,0,0-.51.49v13.13a.5.5,0,0,0,.51.49h.51a.51.51,0,0,0,.51-.49v-.28h9.29v.28a.49.49,0,0,0,.49.49h.51a.51.51,0,0,0,.51-.49V122.05A.5.5,0,0,0,81.93,121.56Zm-4.64-.28s0,0,0,0H80.9a0,0,0,0,1,0,0v.28H77.29Zm-5.67,0s0,0,0,0h3.6a0,0,0,0,1,0,0v.28H71.62ZM81.93,135.2h-.51v-.53a.24.24,0,0,0-.25-.24H71.37a.23.23,0,0,0-.24.24v.51l0,0H70.6a0,0,0,0,1,0,0V125.13H82Zm0-10.56H70.58v-2.59l0,0H81.93s0,0,0,0Z"/><path class="cls-10" d="M76.28,116a12,12,0,0,0-8.62,3.57A12.2,12.2,0,1,0,76.28,116Zm8,20.16a11.27,11.27,0,1,1,3.3-8A11.21,11.21,0,0,1,84.24,136.2Z"/><path class="cls-11" d="M140.51,50.46h-7.22v3.38h7.22v57.54h-3v-5.83h-.24a7.55,7.55,0,0,0-7.34,5.83H112.77V53.84h20.51v-.76H116V51.19h17.27v-.75H116v0H102v0H84.86v0H74.54V45.87H50.08v67.21h4.5v35H124v-9.6h7V137a7.55,7.55,0,0,0,7.29,5.65h.25v-4.14h5.46v-88Zm-55.65.73H102v1.89H84.86ZM74.54,53.84h36.53v57.54H109v-5.83h-.25a7.53,7.53,0,0,0-7.33,5.83H74.54v-21h4.12v-.25A7.54,7.54,0,0,0,73,82.84h1.53v-29Zm-.75,16.83V82.08H71.88V70.67Zm-23,39V46.62H71.13v1.89H52.72v61.16h.76V49.27H71.13V82.84h0v.25a7,7,0,0,1,7,6.78h-7v.25h0v19.56Zm4.52,27.13V119.26h1.89v17.55Zm65.23-1.73v9.59H96.73V125.41h10.34a7.53,7.53,0,0,0,7.33,5.83h.25v-5.83h5.91Zm19.95,0H138v7a7,7,0,0,1-6.79-7h-8.9V123.71h-8.11v7a7,7,0,0,1-6.79-7H95v21H58V113.08h43.69a7,7,0,0,1,6.79-7v7H130.2a7,7,0,0,1,6.79-7v7h3.52Z"/><path class="cls-12" d="M121.79,89.09h9.86a.25.25,0,0,0,.24-.25V84.36a.24.24,0,0,0-.24-.24h-9.86a.25.25,0,0,0-.25.24v4.48A.25.25,0,0,0,121.79,89.09Zm.24-4.47h9.36v4H122Z"/><path class="cls-13" d="M124.29,75.48l-1,5.27a.23.23,0,0,0,0,.21.28.28,0,0,0,.2.09H126v1.28h-5.08a.24.24,0,0,0-.24.24v.83h0v6.4a.24.24,0,0,0,.24.24h.33v1a.24.24,0,0,0,.25.24h.86a.23.23,0,0,0,.24-.24v-1h8.2v1a.24.24,0,0,0,.24.24h.84a.24.24,0,0,0,.25-.24v-1h.33a.25.25,0,0,0,.25-.24V82.57c0-.14-.09-.24-.23-.24h-5.08V81.05h2.43A.25.25,0,0,0,130,81a.23.23,0,0,0,.05-.21l-1-5.27a.26.26,0,0,0-.25-.21h-4.34A.26.26,0,0,0,124.29,75.48Zm8,14.06h-.35a.24.24,0,0,0-.24.25v1h-.35v-1a.26.26,0,0,0-.25-.25h-8.69a.24.24,0,0,0-.24.25v1h-.35v-1a.25.25,0,0,0-.25-.25h-.33V83.66h11Zm0-6.7v.33H121.19v-.33h11.05Zm-3.55-7.06.87,4.76h-2.38a.24.24,0,0,0-.24.25v1.52h-.39V80.79a.33.33,0,0,0-.28-.25h-2.38l.88-4.76Z"/><path class="cls-14" d="M128,86.36h-2.47a.23.23,0,0,0-.24.24.24.24,0,0,0,.24.25H128a.26.26,0,0,0,.25-.25A.25.25,0,0,0,128,86.36Z"/><path class="cls-15" d="M118.09,74.68a12.18,12.18,0,1,0,8.62-3.58A12.15,12.15,0,0,0,118.09,74.68ZM138,83.31a11.3,11.3,0,1,1-3.31-8A11.24,11.24,0,0,1,138,83.31Z"/><path class="cls-16" d="M95.63,80.68a.81.81,0,0,0,0,.77l-.27.27a.3.3,0,0,0,0,.38.28.28,0,0,0,.19.09.25.25,0,0,0,.2-.09l.26-.26a1,1,0,0,0,.38.09,1,1,0,0,0,.39-.09l.26.26a.33.33,0,0,0,.2.09.22.22,0,0,0,.19-.09.3.3,0,0,0,0-.4l-.25-.25a.81.81,0,0,0,0-.77l.25-.24a.3.3,0,0,0,0-.4.27.27,0,0,0-.39,0l-.26.26a.87.87,0,0,0-.77,0L95.77,80a.3.3,0,0,0-.41,0,.3.3,0,0,0,0,.4Zm.56.18a.39.39,0,0,1,.22-.09.24.24,0,0,1,.23.09.31.31,0,0,1,0,.44.33.33,0,0,1-.45,0A.3.3,0,0,1,96.19,80.86Z"/><path class="cls-17" d="M93.35,81.91a.27.27,0,0,0,.28-.28v-.28a.28.28,0,0,0-.56,0v.28A.27.27,0,0,0,93.35,81.91Z"/><path class="cls-18" d="M93.35,83a.27.27,0,0,0,.28-.28v-.28a.28.28,0,0,0-.56,0v.28A.27.27,0,0,0,93.35,83Z"/><path class="cls-19" d="M93.35,80.79a.27.27,0,0,0,.28-.28v-.28a.28.28,0,1,0-.56,0v.28A.27.27,0,0,0,93.35,80.79Z"/><path class="cls-20" d="M86.35,88.34h2v-.56h10v.56h1.94V84.12a1.68,1.68,0,0,0,1.4-1.65,1.65,1.65,0,0,0-1.38-1.65v-1.4a1.14,1.14,0,0,0-1.14-1.14h-4.5a2.11,2.11,0,0,0-1.35.48A2.2,2.2,0,0,0,92,78.28h-4.5a1.13,1.13,0,0,0-1.13,1.14v1.4a1.67,1.67,0,0,0,0,3.3Zm12-1.13H93.63v-.84a.28.28,0,0,0-.56,0v.84H88.32v-2H98.38Zm0-2.5H88.32v-.84h4.12a.54.54,0,0,1,.42.18l.51.5.51-.5a.55.55,0,0,1,.42-.18h4.11Zm1.65-3.36a1.13,1.13,0,0,1,1.12,1.12,1.17,1.17,0,0,1-.86,1.09V82.47a.28.28,0,0,0-.56,0v5.31h-.82V82.47A1.12,1.12,0,0,1,100.06,81.35ZM87.5,78.84H92a1.69,1.69,0,0,1,1.16.48l.19.19.19-.19a1.6,1.6,0,0,1,1.16-.48h4.5a.59.59,0,0,1,.58.58v1.4h0a1.49,1.49,0,0,0-.25.07l0,0-.23.11h0c-.07.06-.16.11-.21.16s-.13.12-.2.18h0l-.16.21s0,0,0,0a.58.58,0,0,0-.1.23s0,0,0,0a1.27,1.27,0,0,0-.07.24v0a1.23,1.23,0,0,0,0,.28v.84H94.3a1.12,1.12,0,0,0-.81.33l-.11.11-.1-.11a1.16,1.16,0,0,0-.81-.33H88.36v-.84c0-.11,0-.19,0-.28v0a1,1,0,0,0-.07-.24s0,0,0,0-.07-.16-.1-.23,0,0,0,0a1.46,1.46,0,0,0-.16-.21h0c-.06-.07-.13-.13-.2-.2L87.55,81s0,0,0,0a.8.8,0,0,0-.23-.11h0a.78.78,0,0,0-.25-.07h0V79.42h-.07A.59.59,0,0,1,87.5,78.84Zm-2,3.63a1.12,1.12,0,0,1,2.24,0v5.31h-.84V82.47a.27.27,0,0,0-.28-.28.28.28,0,0,0-.28.28v1.09A1.15,1.15,0,0,1,85.52,82.47Z"/><path class="cls-21" d="M89.48,80.68a.87.87,0,0,0,0,.77l-.26.27a.29.29,0,0,0,0,.38.33.33,0,0,0,.2.09.22.22,0,0,0,.19-.09l.25-.26a1,1,0,0,0,.38.09,1.16,1.16,0,0,0,.39-.09l.26.26a.28.28,0,0,0,.19.09.22.22,0,0,0,.19-.09.28.28,0,0,0,0-.4L91,81.45a.87.87,0,0,0,0-.77l.26-.24a.28.28,0,0,0,0-.4.26.26,0,0,0-.38,0l-.26.26a.87.87,0,0,0-.77,0L89.62,80a.28.28,0,0,0-.4.4Zm.58.18a.34.34,0,0,1,.23-.09.22.22,0,0,1,.21.09.31.31,0,1,1-.44,0Z"/><path class="cls-22" d="M93.35,95.5a12.19,12.19,0,1,0-8.62-3.57A12.17,12.17,0,0,0,93.35,95.5Zm-8-20.16a11.25,11.25,0,0,1,15.94,0A11.27,11.27,0,0,1,85.38,91.28a11.25,11.25,0,0,1,0-15.94Z"/></g><path class="cls-23" d="M97,193.94c-1.72,0-3.47-.05-5.19-.14l.1-2a95.9,95.9,0,0,0,11.87-.1l.14,2C101.61,193.86,99.29,193.94,97,193.94Zm-17.23-1.53A97,97,0,0,1,68,189.53l.6-1.91a92.6,92.6,0,0,0,11.52,2.82Zm36.16-.32-.39-2a92.64,92.64,0,0,0,11.47-3l.63,1.9A96.54,96.54,0,0,1,115.91,192.09Zm-59.24-6.9A96.93,96.93,0,0,1,46,179.47l1-1.7a95.52,95.52,0,0,0,10.46,5.6Zm82.18-.73-.86-1.8a97.14,97.14,0,0,0,10.35-5.78l1.08,1.68A96.81,96.81,0,0,1,138.85,184.46Zm-102.75-12a97.38,97.38,0,0,1-8.93-8.18l1.44-1.39a96.14,96.14,0,0,0,8.75,8Zm123.08-1.08-1.29-1.53a93.63,93.63,0,0,0,8.61-8.17l1.47,1.37A98.81,98.81,0,0,1,159.18,171.38ZM19.32,155.06a98.13,98.13,0,0,1-6.65-10.13l1.74-1a94.09,94.09,0,0,0,6.51,9.92Zm156.34-1.37L174,152.52a96.9,96.9,0,0,0,6.34-10l1.75,1A97.58,97.58,0,0,1,175.66,153.69ZM7.34,134.06A96.13,96.13,0,0,1,3.42,122.6l1.92-.53A96.55,96.55,0,0,0,9.19,133.3Zm179.93-1.59-1.86-.74a95.21,95.21,0,0,0,3.65-11.29l1.93.49A95.16,95.16,0,0,1,187.27,132.47ZM1,110.74A97.06,97.06,0,0,1,0,98.67l2,0a97.08,97.08,0,0,0,.94,11.83ZM193.24,109l-2-.25A95.28,95.28,0,0,0,192,96.94c0-1.13,0-2.26,0-3.38l2-.07q.06,1.71.06,3.45A99.46,99.46,0,0,1,193.24,109ZM2.52,86.78l-2-.21a97.92,97.92,0,0,1,2-11.94l1.95.46A95.75,95.75,0,0,0,2.52,86.78Zm188.26-5a94.93,94.93,0,0,0-2.62-11.57l1.92-.57a97.56,97.56,0,0,1,2.67,11.82ZM8,63.72,6.08,63A97,97,0,0,1,11,52l1.77.93A95.34,95.34,0,0,0,8,63.72ZM184.12,59a97.15,97.15,0,0,0-5.41-10.55l1.72-1A96.74,96.74,0,0,1,186,58.22ZM19,42.74,17.31,41.6a98.19,98.19,0,0,1,7.52-9.49l1.49,1.33A96.71,96.71,0,0,0,19,42.74ZM172,38.68a94.78,94.78,0,0,0-7.85-8.9l1.41-1.41a97.2,97.2,0,0,1,8,9.08ZM34.79,25.13l-1.31-1.51a97.81,97.81,0,0,1,9.62-7.35l1.11,1.66A95,95,0,0,0,34.79,25.13Zm120.49-3.21a96.22,96.22,0,0,0-9.8-6.69l1-1.72a98.69,98.69,0,0,1,10,6.83ZM54.46,12l-.89-1.78A94.2,94.2,0,0,1,64.72,5.44l.66,1.88A95.13,95.13,0,0,0,54.46,12Zm80.46-2.14a96,96,0,0,0-11.16-4.06l.57-1.92A98.72,98.72,0,0,1,135.72,8ZM76.79,4.09l-.42-2a96.45,96.45,0,0,1,12-1.81l.17,2A94.89,94.89,0,0,0,76.79,4.09Zm35.4-.94A96.76,96.76,0,0,0,100.38,2l.07-2a98.87,98.87,0,0,1,12.06,1.17Z"/></g></g></svg>