<?xml version="1.0" encoding="utf-8"?>
<!-- Generator: Adobe Illustrator 18.0.0, SVG Export Plug-In . SVG Version: 6.00 Build 0)  -->
<!DOCTYPE svg PUBLIC "-//W3C//DTD SVG 1.1//EN" "http://www.w3.org/Graphics/SVG/1.1/DTD/svg11.dtd">
<svg version="1.1" id="Layer_1" xmlns="http://www.w3.org/2000/svg" xmlns:xlink="http://www.w3.org/1999/xlink" x="0px" y="0px"
	 viewBox="0 0 710 710" enable-background="new 0 0 710 710" xml:space="preserve">
<path fill-rule="evenodd" clip-rule="evenodd" fill="#989999" d="M681.4,576.8H662H436.2v-19.4h115.1v-24.9h9.7v24.9H662V455.1
	H561.1v35.7h-9.7v-35.7h-16.4v-9.7h127V170.5h-6.8v-19.4h6.8v-53h-10.6V78.7H662h5.4h14v478.7V576.8z M266.3,455.1h-7.1v10.3h-9.7
	v-10.3H145.8h-19.4H67.4v30.1H48v-30.1H28.6v-29.5H48v10.1h19.4h58.9v-79.1h19.4v79.1v9.7h113.4h7.1V455.1z M318.2,455.1h-10.3v-9.7
	h10.3V170.5h-40.5v-19.4h66.6v19.4h-16.4v274.9h83.8v9.7h-83.8H318.2z M493.3,455.1H483v16.2h-19.4v-16.2h-10.3v-9.7h10.3V170.5
	h-37.4v-19.4h37.4v-53V78.7H483h7.8v19.4H483v53h67.9v19.4H483v274.9h10.3V455.1z M192.9,151.1v19.4h-47.2v79.6h-19.4v-79.6v-19.4
	v-12.4h19.4v12.4H192.9z M384.8,611.8v19.4h-19.4H67.4H48v-19.4v-43.3h19.4v43.3h182.1v-44.7v-9.7v-50.3h9.7v50.3h19.5v9.7h-19.5
	v44.7h106.1v-35v-9.7h-45v-9.7h45h19.4h9.8v19.4h-9.8V611.8z"/>
<path fill-rule="evenodd" clip-rule="evenodd" fill="#989999" d="M43.8,158.1v-4.3h82.6v4.3H48v267.5h-4.3V158.1z M32.9,425.6h-4.3
	V138.7h4.3h93.5v4.3H32.9V425.6z"/>
<path fill-rule="evenodd" clip-rule="evenodd" fill="#989999" d="M662,78.7V83H490.8v-4.3H662z M662,93.9v4.3H490.8v-4.3H662z"/>
<polygon fill-rule="evenodd" clip-rule="evenodd" fill="#989999" points="613.6,151.1 613.6,155.4 613.6,166.3 613.6,170.5 
	609.3,170.5 550.9,170.5 550.9,166.3 609.3,166.3 609.3,155.4 550.9,155.4 550.9,151.1 609.3,151.1 "/>
<path fill-rule="evenodd" clip-rule="evenodd" fill="#989999" d="M426.2,151.1v4.3h-81.9v-4.3H426.2z M426.2,166.3v4.3h-81.9v-4.3
	H426.2z"/>
<path fill-rule="evenodd" clip-rule="evenodd" fill="#989999" d="M277.7,151.1v4.3h-84.7v-4.3H277.7z M277.7,166.3v4.3h-84.7v-4.3
	H277.7z"/>
<path fill-rule="evenodd" clip-rule="evenodd" fill="#989999" d="M48,485.3h4.3v83.3H48V485.3z M63.2,485.3h4.3v83.3h-4.3V485.3z"/>
<polygon fill-rule="evenodd" clip-rule="evenodd" fill="#989999" points="126.4,315 130.6,315 141.5,315 145.8,315 145.8,310.7 
	145.8,250.1 141.5,250.1 141.5,310.7 130.6,310.7 130.6,250.1 126.4,250.1 126.4,310.7 "/>
<path fill="none" stroke="#989999" stroke-width="2.8346" stroke-miterlimit="10" d="M320.4,557.4c0,23-18.6,41.6-41.6,41.6v-41.6"
	/>
<path fill="none" stroke="#989999" stroke-width="2.8346" stroke-miterlimit="10" d="M259.2,507.1c-23,0-41.6-18.6-41.6-41.6h41.6"
	/>
<path fill="none" stroke="#989999" stroke-width="2.8346" stroke-miterlimit="10" d="M436.2,557.4c0,23-18.7,41.6-41.6,41.6v-41.6"
	/>
<path fill="none" stroke="#989999" stroke-width="2.8346" stroke-miterlimit="10" d="M561.1,532.5c-23,0-41.6-18.6-41.6-41.6h41.6"
	/>
<path fill="none" stroke="#989999" stroke-width="2.8346" stroke-miterlimit="10" d="M534.9,455.1c0-23-18.6-41.6-41.6-41.6v41.6"/>
<path fill="none" stroke="#989999" stroke-width="2.8346" stroke-miterlimit="10" d="M411.7,455.1c0-23,18.6-41.6,41.6-41.6v41.6"/>
<path fill="none" stroke="#989999" stroke-width="2.8346" stroke-miterlimit="10" d="M266.2,455.1c0-23,18.7-41.6,41.6-41.6v41.6"/>
<path fill="none" stroke="#989999" stroke-width="2.8346" stroke-miterlimit="10" d="M126.4,356.6c23,0,41.6-18.6,41.6-41.6h-41.6"
	/>
<g>
	<path fill-rule="evenodd" clip-rule="evenodd" fill="#818282" d="M143.5,509.9c2.4,0,4.3-2,4.3-4.3c0-1.9-1.2-3.5-2.9-4.1v-0.3
		c0-0.8-0.6-1.4-1.4-1.4c-0.8,0-1.4,0.6-1.4,1.4v0.3c-1.7,0.6-2.9,2.2-2.9,4.1C139.1,508,141.1,509.9,143.5,509.9L143.5,509.9z
		 M143.5,504c0.9,0,1.6,0.7,1.6,1.6c0,0.9-0.7,1.6-1.6,1.6c-0.9,0-1.6-0.7-1.6-1.6C141.9,504.7,142.6,504,143.5,504L143.5,504z"/>
	<path fill-rule="evenodd" clip-rule="evenodd" fill="#818282" d="M128.8,509.9c2.4,0,4.3-2,4.3-4.3c0-1.9-1.2-3.5-2.9-4.1v-0.3
		c0-0.8-0.6-1.4-1.4-1.4c-0.8,0-1.4,0.6-1.4,1.4v0.3c-1.7,0.6-2.9,2.2-2.9,4.1C124.4,508,126.4,509.9,128.8,509.9L128.8,509.9z
		 M128.8,504c0.9,0,1.6,0.7,1.6,1.6c0,0.9-0.7,1.6-1.6,1.6c-0.9,0-1.6-0.7-1.6-1.6C127.2,504.7,127.9,504,128.8,504L128.8,504z"/>
	<path fill-rule="evenodd" clip-rule="evenodd" fill="#818282" d="M172.8,509.9c2.4,0,4.3-2,4.3-4.3c0-1.9-1.2-3.5-2.9-4.1v-0.3
		c0-0.8-0.6-1.4-1.4-1.4c-0.8,0-1.4,0.6-1.4,1.4v0.3c-1.7,0.6-2.9,2.2-2.9,4.1C168.5,508,170.5,509.9,172.8,509.9L172.8,509.9z
		 M172.8,504c0.9,0,1.6,0.7,1.6,1.6c0,0.9-0.7,1.6-1.6,1.6c-0.9,0-1.6-0.7-1.6-1.6C171.3,504.7,172,504,172.8,504L172.8,504z"/>
	<path fill-rule="evenodd" clip-rule="evenodd" fill="#818282" d="M158.2,509.9c2.4,0,4.3-2,4.3-4.3c0-1.9-1.2-3.5-2.9-4.1v-0.3
		c0-0.8-0.6-1.4-1.4-1.4c-0.8,0-1.4,0.6-1.4,1.4v0.3c-1.7,0.6-2.9,2.2-2.9,4.1C153.8,508,155.8,509.9,158.2,509.9L158.2,509.9z
		 M158.2,504c0.9,0,1.6,0.7,1.6,1.6c0,0.9-0.7,1.6-1.6,1.6c-0.9,0-1.6-0.7-1.6-1.6C156.6,504.7,157.3,504,158.2,504L158.2,504z"/>
	<path fill-rule="evenodd" clip-rule="evenodd" fill="#818282" d="M172.8,524.8h-44.1c-0.8,0-1.4,0.6-1.4,1.4s0.6,1.4,1.4,1.4h44.1
		c0.8,0,1.4-0.6,1.4-1.4S173.6,524.8,172.8,524.8L172.8,524.8z"/>
	<path fill-rule="evenodd" clip-rule="evenodd" fill="#818282" d="M177.3,518.9h-52.9c-1.6,0-2.8,1.3-2.8,2.9v41.2
		c0,1.6,1.3,2.8,2.8,2.8h52.9c1.6,0,2.8-1.3,2.8-2.8v-41.2C180.1,520.2,178.8,518.9,177.3,518.9L177.3,518.9z M177.4,562.9
		C177.4,562.9,177.3,563,177.4,562.9l-53,0.1c-0.1,0-0.1-0.1-0.1-0.1v-41.2c0-0.1,0-0.1,0.1-0.1h52.9c0.1,0,0.1,0,0.1,0.1V562.9z"/>
	<path fill-rule="evenodd" clip-rule="evenodd" fill="#818282" d="M172.8,530.7h-44.1c-0.8,0-1.4,0.6-1.4,1.4v26.4
		c0,0.8,0.6,1.4,1.4,1.4h44.1c0.8,0,1.4-0.6,1.4-1.4v-26.4C174.2,531.3,173.6,530.7,172.8,530.7L172.8,530.7z M171.5,557.1h-41.4
		v-23.7h41.4V557.1z"/>
	<path fill-rule="evenodd" clip-rule="evenodd" fill="#818282" d="M183.1,495.4h-3v-1.6c0-1.6-1.3-2.9-2.8-2.9h-20.6
		c-1.6,0-2.9,1.3-2.9,2.9v1.6h-6.1v-1.6c0-1.6-1.3-2.9-2.8-2.9h-20.6c-1.6,0-2.8,1.3-2.8,2.9v1.6h-3c-1.6,0-2.9,1.3-2.9,2.8v75
		c0,1.6,1.3,2.8,2.9,2.8h2.9c1.6,0,2.9-1.3,2.9-2.8v-1.6h53.1v1.6c0,1.6,1.3,2.8,2.8,2.8h2.9c1.6,0,2.9-1.3,2.9-2.8v-75
		C186,496.7,184.7,495.4,183.1,495.4L183.1,495.4z M156.6,493.8c0-0.1,0-0.1,0.1-0.1h20.6c0.1,0,0.1,0.1,0.1,0.1v1.6h-20.7V493.8z
		 M124.3,493.8c0-0.1,0-0.1,0.1-0.1h20.6c0.1,0,0.1,0.1,0.1,0.1v1.6h-20.7V493.8z M118.5,498.1h64.7c0.1,0,0.1,0,0.1,0.1V513h-64.9
		v-14.8C118.4,498.2,118.4,498.1,118.5,498.1L118.5,498.1z M183.1,573.3h-2.9c0,0-0.1-0.1-0.1-0.1v-2.9c0-0.8-0.6-1.4-1.4-1.4h-55.9
		c-0.8,0-1.4,0.6-1.4,1.4v2.9c0,0-0.1,0.1-0.1,0.1h-2.9c-0.1,0-0.1-0.1-0.1-0.1v-57.4h64.9L183.1,573.3
		C183.2,573.2,183.2,573.3,183.1,573.3L183.1,573.3z"/>
	<path fill="#818282" d="M150.8,463.9c19.2,0,36.7,7.8,49.3,20.4c12.6,12.6,20.4,30,20.4,49.3c0,19.2-7.8,36.6-20.4,49.2
		c-12.6,12.6-30,20.4-49.3,20.4c-19.2,0-36.6-7.8-49.2-20.4c-12.6-12.6-20.4-30-20.4-49.2c0-19.2,7.8-36.7,20.4-49.3
		C114.2,471.6,131.6,463.9,150.8,463.9L150.8,463.9z M196.3,488c-11.7-11.6-27.8-18.8-45.5-18.8s-33.8,7.2-45.5,18.8
		c-11.7,11.7-18.9,27.8-18.9,45.5c0,17.7,7.2,33.8,18.9,45.5c11.7,11.7,27.7,18.9,45.5,18.9s33.9-7.2,45.5-18.9
		c11.6-11.7,18.8-27.8,18.8-45.5C215.1,515.8,207.9,499.7,196.3,488L196.3,488z"/>
</g>
<g>
	<path fill-rule="evenodd" clip-rule="evenodd" fill="#818282" d="M261.9,281.6h-56.3c-0.8,0-1.4,0.7-1.4,1.4v25.6
		c0,0.8,0.7,1.4,1.4,1.4h56.3c0.8,0,1.4-0.7,1.4-1.4V283C263.3,282.2,262.7,281.6,261.9,281.6L261.9,281.6z M260.4,307.2H207v-22.7
		h53.4V307.2z"/>
	<path fill-rule="evenodd" clip-rule="evenodd" fill="#818282" d="M226.8,297.2h14c0.8,0,1.4-0.7,1.4-1.4s-0.7-1.4-1.4-1.4h-14
		c-0.8,0-1.4,0.6-1.4,1.4S226,297.2,226.8,297.2L226.8,297.2z"/>
	<g>
		<path fill-rule="evenodd" clip-rule="evenodd" fill="#818282" d="M266.7,271.4h-29v-7.3h13.9c0.4,0,0.8-0.2,1.1-0.5
			c0.3-0.3,0.4-0.8,0.3-1.2l-5.5-30.1c-0.1-0.7-0.7-1.2-1.4-1.2h-24.8c-0.7,0-1.3,0.5-1.4,1.2l-5.5,30.1c-0.1,0.4,0.1,0.8,0.3,1.2
			c0.3,0.3,0.7,0.5,1.1,0.5h13.9v7.3h-29c-0.8,0-1.4,0.7-1.4,1.4v4.7v0.1v36.5c0,0.8,0.6,1.4,1.4,1.4h1.9v5.9c0,0.8,0.7,1.4,1.4,1.4
			h4.8c0.8,0,1.4-0.6,1.4-1.4v-5.9h46.7v5.9c0,0.8,0.6,1.4,1.4,1.4h4.9c0.8,0,1.4-0.6,1.4-1.4v-5.9h1.9c0.8,0,1.4-0.7,1.4-1.4v-36.5
			v0v-4.8C268.2,272,267.6,271.4,266.7,271.4L266.7,271.4z M231.2,261.2h-13.6l5-27.2h22.4l5,27.2h-13.6c-0.8,0-1.4,0.6-1.4,1.4v8.7
			h-2.3v-8.7C232.6,261.9,232,261.2,231.2,261.2L231.2,261.2z M231.2,274.2h5.1h29v1.9h-63.2v-1.9H231.2z M263.4,312.6
			c-0.8,0-1.4,0.7-1.4,1.4v5.9h-2v-5.9c0-0.8-0.6-1.4-1.4-1.4h-49.6c-0.8,0-1.4,0.7-1.4,1.4v5.9h-2v-5.9c0-0.8-0.6-1.4-1.4-1.4h-1.9
			V279h63.2v33.6H263.4z"/>
		<path fill="#818282" d="M233.7,207.3c19.2,0,36.7,7.8,49.2,20.4c12.6,12.6,20.4,30,20.4,49.2c0,19.2-7.8,36.7-20.4,49.3
			c-12.6,12.6-30,20.4-49.2,20.4c-19.2,0-36.7-7.8-49.3-20.4c-12.6-12.6-20.4-30-20.4-49.3c0-19.2,7.8-36.7,20.4-49.2
			C197.1,215.1,214.5,207.3,233.7,207.3L233.7,207.3z M279.2,231.5c-11.7-11.7-27.7-18.9-45.5-18.9s-33.9,7.2-45.5,18.9
			c-11.7,11.7-18.9,27.7-18.9,45.5c0,17.8,7.2,33.9,18.9,45.5c11.6,11.7,27.7,18.9,45.5,18.9s33.8-7.2,45.5-18.9
			c11.7-11.6,18.9-27.7,18.9-45.5C298.1,259.2,290.9,243.1,279.2,231.5L279.2,231.5z"/>
	</g>
</g>
<path fill="none" stroke="#989999" stroke-width="2.8346" stroke-miterlimit="10" d="M613.6,151.1c0,23,18.6,41.6,41.6,41.6v-41.6"
	/>
<g>
	<path fill-rule="evenodd" clip-rule="evenodd" fill="#818282" d="M585.3,270.1c0.3,0.3,0.7,0.5,1.1,0.5c0.4,0,0.8-0.1,1.1-0.5
		l1.5-1.5c0.7,0.3,1.4,0.5,2.2,0.5c0.8,0,1.5-0.2,2.2-0.5l1.4,1.5c0.3,0.3,0.7,0.5,1.1,0.5c0.4,0,0.8-0.1,1.1-0.5
		c0.6-0.6,0.6-1.6,0-2.3l-1.5-1.4c0.7-1.4,0.7-3,0-4.4l1.5-1.5c0.6-0.6,0.6-1.6,0-2.2c-0.6-0.6-1.6-0.6-2.3,0l-1.4,1.5
		c-1.4-0.7-3-0.7-4.4,0l-1.5-1.5c-0.6-0.6-1.6-0.6-2.2,0c-0.6,0.6-0.6,1.6,0,2.2l1.5,1.5c-0.7,1.4-0.7,3,0,4.4l-1.5,1.4
		C584.7,268.5,584.7,269.5,585.3,270.1L585.3,270.1z M592.5,263c0.7,0.7,0.7,1.8,0,2.5c-0.7,0.7-1.8,0.7-2.5,0
		c-0.7-0.7-0.7-1.8,0-2.5c0.3-0.4,0.8-0.5,1.2-0.5C591.7,262.4,592.1,262.6,592.5,263L592.5,263z"/>
	<path fill-rule="evenodd" clip-rule="evenodd" fill="#818282" d="M550.3,270.1c0.3,0.3,0.7,0.5,1.1,0.5c0.4,0,0.8-0.1,1.1-0.5
		l1.5-1.5c0.7,0.3,1.4,0.5,2.2,0.5c0.8,0,1.5-0.2,2.2-0.5l1.5,1.5c0.3,0.3,0.7,0.5,1.1,0.5c0.4,0,0.8-0.1,1.1-0.5
		c0.6-0.6,0.6-1.6,0-2.3l-1.5-1.4c0.7-1.4,0.7-3,0-4.4l1.5-1.5c0.6-0.6,0.6-1.6,0-2.2c-0.6-0.6-1.6-0.6-2.3,0l-1.5,1.5
		c-1.4-0.7-3-0.7-4.4,0l-1.5-1.5c-0.6-0.6-1.6-0.6-2.2,0c-0.6,0.6-0.6,1.6,0,2.2l1.4,1.5c-0.7,1.4-0.7,3,0,4.4l-1.4,1.4
		C549.6,268.5,549.6,269.5,550.3,270.1L550.3,270.1z M557.4,263c0.7,0.7,0.7,1.8,0,2.5c-0.7,0.7-1.8,0.7-2.5,0
		c-0.7-0.7-0.7-1.8,0-2.5c0.3-0.4,0.8-0.5,1.2-0.5S557.1,262.6,557.4,263L557.4,263z"/>
	<path fill-rule="evenodd" clip-rule="evenodd" fill="#818282" d="M573.7,269c0.9,0,1.6-0.7,1.6-1.6v-1.6c0-0.9-0.7-1.6-1.6-1.6
		c-0.9,0-1.6,0.7-1.6,1.6v1.6C572.1,268.3,572.8,269,573.7,269L573.7,269z"/>
	<path fill-rule="evenodd" clip-rule="evenodd" fill="#818282" d="M573.7,275.4c0.9,0,1.6-0.7,1.6-1.6v-1.6c0-0.9-0.7-1.6-1.6-1.6
		c-0.9,0-1.6,0.7-1.6,1.6v1.6C572.1,274.7,572.8,275.4,573.7,275.4L573.7,275.4z"/>
	<path fill-rule="evenodd" clip-rule="evenodd" fill="#818282" d="M573.7,262.6c0.9,0,1.6-0.7,1.6-1.6v-1.6c0-0.9-0.7-1.6-1.6-1.6
		c-0.9,0-1.6,0.7-1.6,1.6v1.6C572.1,261.9,572.8,262.6,573.7,262.6L573.7,262.6z"/>
	<g>
		<path fill-rule="evenodd" clip-rule="evenodd" fill="#818282" d="M613.5,262.8v-8c0-3.6-2.9-6.5-6.5-6.5h-25.7
			c-2.8,0-5.5,0.9-7.7,2.7c-2.2-1.7-4.9-2.7-7.7-2.7h-25.7c-3.6,0-6.5,2.9-6.5,6.5v8c-4.5,0.8-8,4.7-8,9.4c0,4.7,3.4,8.6,8,9.4v24.1
			H545v-3.2h57.4v3.2h11.2v-24.1c4.5-0.8,8-4.7,8-9.4C621.5,267.5,618.1,263.5,613.5,262.8L613.5,262.8z M537,254.8
			c0-1.8,1.5-3.3,3.3-3.3H566c2.5,0,4.8,1,6.6,2.7l1.1,1.1l1.1-1.1c1.7-1.7,4.1-2.7,6.5-2.7h25.7c1.8,0,3.3,1.5,3.3,3.3v8
			c0,0-0.1,0-0.1,0c-0.5,0.1-1,0.2-1.4,0.4c-0.1,0-0.1,0.1-0.2,0.1c-0.5,0.2-0.9,0.4-1.3,0.6c-0.1,0-0.1,0.1-0.2,0.1
			c-0.4,0.3-0.9,0.5-1.2,0.9l0,0c-0.4,0.3-0.8,0.7-1.1,1.1c-0.1,0-0.1,0.1-0.1,0.1c-0.3,0.4-0.6,0.8-0.9,1.2
			c-0.1,0.1-0.1,0.1-0.1,0.2c-0.2,0.4-0.4,0.9-0.6,1.3c0,0.1-0.1,0.2-0.1,0.3c-0.2,0.5-0.3,0.9-0.4,1.4c0,0.1,0,0.1,0,0.2
			c-0.1,0.5-0.1,1-0.1,1.6v4.8h-23.5c-1.7,0-3.4,0.7-4.6,1.9l-0.6,0.6l-0.6-0.6c-1.2-1.2-2.9-1.9-4.6-1.9H545v-4.8
			c0-0.6-0.1-1.1-0.1-1.6c0-0.1,0-0.1,0-0.2c-0.1-0.5-0.2-1-0.4-1.4c0-0.1-0.1-0.2-0.1-0.3c-0.2-0.5-0.4-0.9-0.6-1.3
			c0-0.1-0.1-0.1-0.1-0.2c-0.3-0.4-0.5-0.8-0.9-1.2c-0.1,0-0.1-0.1-0.1-0.1c-0.3-0.4-0.7-0.7-1.1-1.1h0c-0.4-0.3-0.8-0.6-1.2-0.9
			c-0.1,0-0.1-0.1-0.2-0.1c-0.4-0.3-0.9-0.5-1.3-0.6c-0.1,0-0.1-0.1-0.2-0.1c-0.5-0.2-0.9-0.3-1.4-0.4c0,0-0.1,0-0.1,0V254.8z
			 M602.4,284.9H545v-4.8h23.5c0.9,0,1.7,0.3,2.4,1l2.9,2.9l2.9-2.9c0.6-0.6,1.5-1,2.4-1h23.5V284.9z M537,302.5v-22.3v-1.6v-6.4
			c0-0.9-0.7-1.6-1.6-1.6s-1.6,0.7-1.6,1.6v6.2c-2.7-0.7-4.8-3.2-4.8-6.2c0-3.5,2.9-6.4,6.4-6.4s6.4,2.9,6.4,6.4v4.8v8v3.2v14.3H537
			z M575.3,299.3v-4.8c0-0.9-0.7-1.6-1.6-1.6c-0.9,0-1.6,0.7-1.6,1.6v4.8H545v-11.2h57.4v11.2H575.3z M613.5,278.4v-6.2
			c0-0.9-0.7-1.6-1.6-1.6c-0.9,0-1.6,0.7-1.6,1.6v6.4v1.6v22.3h-4.8v-14.3v-3.2v-8v-4.8c0-3.5,2.8-6.4,6.3-6.4
			c3.5,0,6.4,2.9,6.4,6.4C618.3,275.2,616.3,277.6,613.5,278.4L613.5,278.4z"/>
		<path fill="#818282" d="M573.7,207.3c19.2,0,36.7,7.8,49.2,20.4c12.6,12.6,20.4,30,20.4,49.2c0,19.2-7.8,36.7-20.4,49.3
			c-12.6,12.6-30,20.4-49.2,20.4c-19.2,0-36.7-7.8-49.3-20.4c-12.6-12.6-20.4-30-20.4-49.3c0-19.2,7.8-36.7,20.4-49.2
			C537,215.1,554.4,207.3,573.7,207.3L573.7,207.3z M619.2,231.5c-11.7-11.7-27.7-18.9-45.5-18.9c-17.8,0-33.9,7.2-45.5,18.9
			c-11.7,11.7-18.9,27.7-18.9,45.5c0,17.8,7.2,33.9,18.9,45.5c11.6,11.7,27.7,18.9,45.5,18.9c17.8,0,33.8-7.2,45.5-18.9
			c11.7-11.6,18.9-27.7,18.9-45.5C638,259.2,630.8,243.1,619.2,231.5L619.2,231.5z"/>
	</g>
</g>
<g>
	<path fill-rule="evenodd" clip-rule="evenodd" fill="#818282" d="M423.9,281.6h-56.3c-0.8,0-1.4,0.7-1.4,1.4v25.6
		c0,0.8,0.7,1.4,1.4,1.4h56.3c0.8,0,1.4-0.7,1.4-1.4V283C425.3,282.2,424.7,281.6,423.9,281.6L423.9,281.6z M422.4,307.2H369v-22.7
		h53.4V307.2z"/>
	<path fill-rule="evenodd" clip-rule="evenodd" fill="#818282" d="M388.8,297.2h14c0.8,0,1.4-0.7,1.4-1.4s-0.7-1.4-1.4-1.4h-14
		c-0.8,0-1.4,0.6-1.4,1.4S388,297.2,388.8,297.2L388.8,297.2z"/>
	<g>
		<path fill-rule="evenodd" clip-rule="evenodd" fill="#818282" d="M428.7,271.4h-29v-7.3h13.9c0.4,0,0.8-0.2,1.1-0.5
			c0.3-0.3,0.4-0.8,0.3-1.2l-5.5-30.1c-0.1-0.7-0.7-1.2-1.4-1.2h-24.8c-0.7,0-1.3,0.5-1.4,1.2l-5.5,30.1c-0.1,0.4,0.1,0.8,0.3,1.2
			c0.3,0.3,0.7,0.5,1.1,0.5h13.9v7.3h-29c-0.8,0-1.4,0.7-1.4,1.4v4.7v0.1v36.5c0,0.8,0.7,1.4,1.4,1.4h1.9v5.9c0,0.8,0.7,1.4,1.4,1.4
			h4.8c0.8,0,1.4-0.6,1.4-1.4v-5.9h46.7v5.9c0,0.8,0.6,1.4,1.4,1.4h4.9c0.8,0,1.4-0.6,1.4-1.4v-5.9h1.9c0.8,0,1.4-0.7,1.4-1.4v-36.5
			v0v-4.8C430.2,272,429.6,271.4,428.7,271.4L428.7,271.4z M393.2,261.2h-13.6l5-27.2h22.4l5,27.2h-13.6c-0.8,0-1.4,0.6-1.4,1.4v8.7
			h-2.3v-8.7C394.6,261.9,394,261.2,393.2,261.2L393.2,261.2z M393.2,274.2h5.1h29v1.9h-63.2v-1.9H393.2z M425.4,312.6
			c-0.8,0-1.4,0.7-1.4,1.4v5.9h-2v-5.9c0-0.8-0.6-1.4-1.4-1.4h-49.6c-0.8,0-1.4,0.7-1.4,1.4v5.9h-2v-5.9c0-0.8-0.6-1.4-1.4-1.4h-1.9
			V279h63.2v33.6H425.4z"/>
		<path fill="#818282" d="M395.7,207.3c19.2,0,36.7,7.8,49.2,20.4c12.6,12.6,20.4,30,20.4,49.2c0,19.2-7.8,36.7-20.4,49.3
			c-12.6,12.6-30,20.4-49.2,20.4c-19.2,0-36.7-7.8-49.3-20.4c-12.6-12.6-20.4-30-20.4-49.3c0-19.2,7.8-36.7,20.4-49.2
			C359.1,215.1,376.5,207.3,395.7,207.3L395.7,207.3z M441.2,231.5c-11.7-11.7-27.7-18.9-45.5-18.9c-17.8,0-33.9,7.2-45.5,18.9
			c-11.7,11.7-18.9,27.7-18.9,45.5c0,17.8,7.2,33.9,18.9,45.5c11.6,11.7,27.7,18.9,45.5,18.9c17.8,0,33.8-7.2,45.5-18.9
			c11.7-11.6,18.9-27.7,18.9-45.5C460.1,259.2,452.9,243.1,441.2,231.5L441.2,231.5z"/>
	</g>
</g>
<g>
	<rect x="192.9" y="155.4" fill-rule="evenodd" clip-rule="evenodd" fill="#AFDBF1" width="84.7" height="10.9"/>
</g>
<g>
	<rect x="344.3" y="155.4" fill-rule="evenodd" clip-rule="evenodd" fill="#AFDBF1" width="81.9" height="10.9"/>
</g>
<g>
	<rect x="550.9" y="155.4" fill-rule="evenodd" clip-rule="evenodd" fill="#AFDBF1" width="58.5" height="10.9"/>
</g>
<g>
	<rect x="490.8" y="83" fill-rule="evenodd" clip-rule="evenodd" fill="#AFDBF1" width="160.6" height="10.9"/>
</g>
<g>
	<rect x="130.6" y="250.1" fill-rule="evenodd" clip-rule="evenodd" fill="#AFDBF1" width="10.9" height="60.6"/>
</g>
<g>
	<rect x="52.3" y="485.3" fill-rule="evenodd" clip-rule="evenodd" fill="#AFDBF1" width="10.9" height="83.3"/>
</g>
<polygon fill-rule="evenodd" clip-rule="evenodd" fill="#AFDBF1" points="126.4,143 32.9,143 32.9,143.1 32.9,153.9 32.9,425.6 
	43.8,425.6 43.8,153.9 126.4,153.9 "/>
</svg>
