<?xml version="1.0" encoding="utf-8"?>
<!-- Generator: Adobe Illustrator 21.1.0, SVG Export Plug-In . SVG Version: 6.00 Build 0)  -->
<svg version="1.1" id="Layer_1" xmlns="http://www.w3.org/2000/svg" xmlns:xlink="http://www.w3.org/1999/xlink" x="0px" y="0px"
	 viewBox="0 0 720 720" style="enable-background:new 0 0 720 720;" xml:space="preserve">
<style type="text/css">
	.st0{fill:none;stroke:#818282;stroke-width:1.4173;stroke-miterlimit:10;}
	.st1{fill-rule:evenodd;clip-rule:evenodd;fill:#989999;}
	.st2{fill:none;stroke:#989999;stroke-width:2.8346;stroke-miterlimit:10;}
	.st3{fill:#4E4E4E;}
	.st4{fill-rule:evenodd;clip-rule:evenodd;fill:#818282;}
	.st5{fill:#818282;}
	.st6{fill:#AFDBF1;}
	.st7{fill:#989999;}
	.st8{fill:none;stroke:#818282;stroke-width:1.4173;stroke-linejoin:bevel;stroke-miterlimit:10;}
	.st9{fill:none;}
	.st10{fill-rule:evenodd;clip-rule:evenodd;fill:#AFDBF1;}
	.st11{fill:#FFFFFF;stroke:#818282;stroke-width:1.4173;stroke-miterlimit:10;}
</style>
<path class="st1" d="M232.2,128.1v-4.3h255.5v4.3H232.2z M232.2,112.9v-4.3h255.5v4.3H232.2z"/>
<polygon class="st1" points="271.5,201.2 271.5,196.9 271.5,186 271.5,181.8 275.5,181.8 425.8,181.8 425.8,186 275.5,186 
	275.5,196.9 425.8,196.9 425.8,201.2 275.5,201.2 "/>
<path class="st2" d="M371.8,529.4c-26.8,0-48.6,21.7-48.6,48.4h48.6"/>
<path class="st3" d="M301.5,334.1v6h-1.3v-6l-0.4-0.3l-5.3,6.3h-1.7l6.2-7.2l-5.7-5.8h1.7l5.2,5.5v-5.5h1.3v5.5l5.2-5.5h1.7
	l-5.7,5.8l6.2,7.2h-1.7l-5.3-6.3L301.5,334.1z M311.9,330.6v7.1l7-7.1h0.1v9.6h-1.2v-7l-7,7h-0.1v-9.6H311.9z M329.8,340.1h-1.3
	l-3.2-7l-3.2,7h-1.3l4.4-9.6h0.2L329.8,340.1z M341.2,330.6v9.6H340v-1.6c-0.5,0.6-1.1,1.1-1.8,1.4c-0.6,0.3-1.3,0.5-2.1,0.5
	c-1.3,0-2.5-0.5-3.5-1.5c-1-1-1.4-2.2-1.4-3.6c0-1.4,0.5-2.6,1.4-3.5c1-1,2.1-1.5,3.5-1.5c0.8,0,1.5,0.2,2.1,0.5
	c0.6,0.3,1.2,0.8,1.7,1.5v-1.8H341.2z M336.3,331.5c-0.7,0-1.3,0.2-1.9,0.5c-0.6,0.3-1,0.8-1.4,1.4c-0.3,0.6-0.5,1.2-0.5,1.9
	c0,0.7,0.2,1.3,0.5,1.9c0.3,0.6,0.8,1.1,1.4,1.4c0.6,0.3,1.2,0.5,1.9,0.5c0.7,0,1.3-0.2,1.9-0.5c0.6-0.3,1.1-0.8,1.4-1.4
	c0.3-0.6,0.5-1.2,0.5-2c0-1.1-0.4-2-1.1-2.7C338.2,331.9,337.3,331.5,336.3,331.5L336.3,331.5z M348.1,335.9h-0.9l-2.7,4.3h-1.3
	l2.9-4.4c-0.7-0.1-1.3-0.4-1.8-0.8c-0.5-0.5-0.7-1-0.7-1.7c0-0.8,0.3-1.5,0.8-2c0.5-0.5,1.2-0.7,2-0.7h2.9v9.6h-1.2V335.9z
	 M348.1,331.6h-0.8c-0.8,0-1.3,0.1-1.6,0.1c-0.3,0.1-0.5,0.3-0.7,0.5c-0.2,0.2-0.3,0.6-0.3,1s0.1,0.7,0.3,1c0.2,0.3,0.5,0.4,0.7,0.5
	c0.3,0.1,0.7,0.1,1.5,0.1h0.8V331.6z M357,330.6h1.2v4l4.5-4h1.7l-4.8,4.4l5.2,5.2H363l-4.4-4.4l-0.4,0.3v4.1H357V330.6z
	 M370.6,330.3c1.5,0,2.7,0.5,3.7,1.6c0.9,1,1.3,2.1,1.3,3.4s-0.5,2.5-1.4,3.5c-0.9,1-2.1,1.5-3.6,1.5c-1.5,0-2.7-0.5-3.6-1.5
	c-0.9-1-1.4-2.2-1.4-3.5c0-1.3,0.5-2.5,1.3-3.4C367.8,330.9,369.1,330.3,370.6,330.3L370.6,330.3z M370.5,331.6
	c-1,0-1.9,0.4-2.6,1.1c-0.7,0.7-1.1,1.7-1.1,2.7c0,0.7,0.2,1.3,0.5,1.9c0.3,0.6,0.8,1,1.4,1.4c0.6,0.3,1.2,0.5,1.9,0.5
	c0.7,0,1.3-0.2,1.9-0.5c0.6-0.3,1-0.8,1.4-1.4c0.3-0.6,0.5-1.2,0.5-1.9c0-1-0.4-2-1.1-2.7C372.4,331.9,371.6,331.6,370.5,331.6
	L370.5,331.6z M388.2,330.6h0.3l3.2,9.6h-1.3l-2.4-7l-3.7,7h-0.2l-3.7-7.1l-2.4,7.1h-1.3l3.3-9.6h0.3l3.9,7.5L388.2,330.6z
	 M400.4,335.5h-5.6v4.6h-1.2v-9.6h1.2v3.8h5.6v-3.8h1.2v9.6h-1.2V335.5z M413.9,330.6v9.6h-1.2v-1.6c-0.5,0.6-1.1,1.1-1.7,1.4
	c-0.7,0.3-1.3,0.5-2.1,0.5c-1.4,0-2.5-0.5-3.5-1.5c-1-1-1.4-2.2-1.4-3.6c0-1.4,0.5-2.6,1.4-3.5c1-1,2.1-1.5,3.5-1.5
	c0.8,0,1.5,0.2,2.1,0.5c0.7,0.3,1.2,0.8,1.7,1.5v-1.8H413.9z M409,331.5c-0.7,0-1.3,0.2-1.9,0.5c-0.6,0.3-1,0.8-1.4,1.4
	c-0.3,0.6-0.5,1.2-0.5,1.9c0,0.7,0.2,1.3,0.5,1.9c0.3,0.6,0.8,1.1,1.4,1.4c0.6,0.3,1.2,0.5,1.9,0.5c0.7,0,1.3-0.2,1.9-0.5
	c0.6-0.3,1-0.8,1.4-1.4c0.3-0.6,0.5-1.2,0.5-2c0-1.1-0.4-2-1.1-2.7C411,331.9,410,331.5,409,331.5L409,331.5z M415.6,330.6h6.3v1
	h-2.5v8.5h-1.2v-8.5h-2.5V330.6z M433.1,330.6v9.6h-1.2v-1.6c-0.5,0.6-1.1,1.1-1.7,1.4c-0.7,0.3-1.3,0.5-2.1,0.5
	c-1.4,0-2.5-0.5-3.5-1.5c-1-1-1.4-2.2-1.4-3.6c0-1.4,0.5-2.6,1.4-3.5c1-1,2.1-1.5,3.5-1.5c0.8,0,1.5,0.2,2.1,0.5s1.2,0.8,1.7,1.5
	v-1.8H433.1z M428.2,331.5c-0.7,0-1.3,0.2-1.9,0.5c-0.6,0.3-1,0.8-1.4,1.4c-0.3,0.6-0.5,1.2-0.5,1.9c0,0.7,0.2,1.3,0.5,1.9
	c0.3,0.6,0.8,1.1,1.4,1.4c0.6,0.3,1.2,0.5,1.9,0.5c0.7,0,1.3-0.2,1.9-0.5c0.6-0.3,1.1-0.8,1.4-1.4c0.3-0.6,0.5-1.2,0.5-2
	c0-1.1-0.4-2-1.1-2.7C430.1,331.9,429.2,331.5,428.2,331.5L428.2,331.5z"/>
<path class="st3" d="M386.6,395.6h3.4v17.2h-1.7v-15.6h-2.7L386.6,395.6z M404.2,395.2l1.4,0.9l-4.6,7.1c0.6-0.2,1.2-0.3,1.8-0.3
	c1.4,0,2.5,0.5,3.5,1.5c1,1,1.4,2.2,1.4,3.7c0,1-0.2,1.9-0.7,2.7c-0.5,0.8-1.1,1.4-2,1.9c-0.9,0.5-1.8,0.7-2.7,0.7
	c-0.9,0-1.8-0.2-2.6-0.7c-0.8-0.5-1.4-1.1-1.9-1.9c-0.5-0.8-0.7-1.7-0.7-2.7c0-0.7,0.1-1.4,0.4-2.2c0.3-0.8,0.8-1.7,1.5-2.8
	L404.2,395.2z M402.3,404.4c-1,0-1.8,0.4-2.6,1.1c-0.7,0.7-1,1.6-1,2.6s0.3,1.8,1,2.6c0.7,0.7,1.6,1.1,2.6,1.1c1,0,1.9-0.4,2.6-1.1
	c0.7-0.7,1-1.6,1-2.6s-0.3-1.8-1-2.6C404.2,404.7,403.4,404.4,402.3,404.4L402.3,404.4z M412.2,409.7l1.6,0.8l-2.4,4.4l-1.2-0.5
	L412.2,409.7z M419.8,395.6h3.4v17.2h-1.7v-15.6h-2.7L419.8,395.6z M429.4,404.3c0-2.3,0.3-4,0.7-5.3c0.5-1.2,1.2-2.2,2.1-2.8
	c0.9-0.7,1.9-1,3-1c1.1,0,2.1,0.3,3,1c0.9,0.7,1.6,1.6,2.1,2.9c0.5,1.3,0.8,3,0.8,5.2c0,2.2-0.3,3.9-0.8,5.2
	c-0.5,1.3-1.2,2.3-2.2,2.9c-0.9,0.7-1.9,1-3,1c-1.1,0-2.1-0.3-3-0.9c-0.9-0.7-1.6-1.6-2.1-2.8C429.7,408.3,429.4,406.5,429.4,404.3
	L429.4,404.3z M431.1,404.3c0,2,0.2,3.4,0.5,4.4c0.4,1,0.9,1.8,1.6,2.3c0.7,0.5,1.4,0.8,2.2,0.8s1.5-0.3,2.1-0.8
	c0.7-0.5,1.2-1.2,1.5-2.3c0.4-1.2,0.7-2.7,0.7-4.4s-0.2-3.1-0.6-4.3c-0.4-1.1-0.9-1.9-1.6-2.4c-0.7-0.5-1.4-0.8-2.1-0.8
	c-0.8,0-1.5,0.3-2.2,0.8c-0.7,0.5-1.2,1.3-1.5,2.3C431.2,400.9,431.1,402.3,431.1,404.3L431.1,404.3z"/>
<path class="st3" d="M261.1,528.3l-0.8,0.6c-0.4-0.5-0.9-1-1.5-1.2c-0.6-0.3-1.2-0.4-1.9-0.4c-0.8,0-1.5,0.2-2.2,0.6
	s-1.2,0.9-1.5,1.5c-0.4,0.6-0.5,1.3-0.5,2.1c0,1.2,0.4,2.2,1.2,3c0.8,0.8,1.8,1.2,3.1,1.2c1.4,0,2.5-0.5,3.4-1.6l0.8,0.6
	c-0.5,0.6-1.1,1.1-1.8,1.4c-0.7,0.3-1.5,0.5-2.4,0.5c-1.7,0-3-0.6-4-1.7c-0.8-1-1.2-2.1-1.2-3.5c0-1.4,0.5-2.6,1.5-3.6
	c1-1,2.2-1.4,3.7-1.4c0.9,0,1.7,0.2,2.5,0.5C260,527.1,260.6,527.7,261.1,528.3L261.1,528.3z M267.3,526.3l-4,11.3h-1l4-11.3H267.3z
	 M268,529h1l2.5,5.5l2.4-5.5h1l-4.3,9.8h-1l1.4-3.2L268,529z"/>
<path class="st3" d="M252.8,544.6h-1.3c0.2-1,0.7-1.9,1.4-2.5c0.7-0.6,1.5-0.9,2.4-0.9c0.7,0,1.3,0.1,1.9,0.5c0.6,0.3,1,0.7,1.4,1.2
	c0.3,0.5,0.5,1.1,0.5,1.6c0,1.1-0.6,2-1.6,2.6c0.6,0.3,1.1,0.6,1.5,1.1c0.6,0.7,0.9,1.4,0.9,2.3c0,0.7-0.2,1.4-0.6,2.1
	c-0.4,0.7-0.9,1.2-1.6,1.6c-0.7,0.3-1.4,0.5-2.2,0.5c-1.1,0-2-0.3-2.8-1c-0.7-0.7-1.2-1.6-1.5-2.8h1.3c0.2,0.8,0.5,1.4,1,1.8
	c0.5,0.5,1.2,0.7,2,0.7c1,0,1.7-0.3,2.3-0.8c0.6-0.6,0.9-1.2,0.9-2c0-0.5-0.1-1-0.4-1.4c-0.3-0.4-0.7-0.8-1.1-1
	c-0.5-0.2-1.2-0.3-2.2-0.4v-1.2c0.6,0,1.1-0.1,1.6-0.3c0.5-0.2,0.8-0.5,1-0.8c0.2-0.3,0.3-0.7,0.3-1.1c0-0.5-0.2-1-0.7-1.4
	c-0.5-0.4-1-0.6-1.7-0.6c-0.5,0-1,0.2-1.4,0.5S253.1,543.8,252.8,544.6L252.8,544.6z M263,552.1l1.2,0.5l-1.8,3.3l-0.9-0.4
	L263,552.1z M273,541.3h0.3v9h1.6v1.2h-1.6v3H272v-3h-6.2L273,541.3z M272,550.3v-5.4l-3.8,5.4H272z M283,541.3h0.3v9h1.6v1.2h-1.6
	v3H282v-3h-6.2L283,541.3z M282,550.3v-5.4l-3.8,5.4H282z"/>
<path class="st3" d="M365.7,162.2h-1.8c0.3-1.4,0.9-2.5,1.8-3.3c0.9-0.8,2-1.2,3.2-1.2c0.9,0,1.7,0.2,2.5,0.6c0.8,0.4,1.4,1,1.8,1.6
	c0.4,0.7,0.7,1.4,0.7,2.2c0,1.5-0.7,2.7-2.2,3.5c0.8,0.3,1.5,0.8,2,1.5c0.7,0.9,1.1,1.9,1.1,3.1c0,1-0.3,1.9-0.8,2.8
	c-0.5,0.9-1.2,1.6-2.1,2c-0.9,0.5-1.9,0.7-3,0.7c-1.5,0-2.7-0.4-3.7-1.3c-1-0.9-1.6-2.1-2-3.8h1.7c0.3,1.1,0.7,1.9,1.3,2.4
	c0.7,0.6,1.6,0.9,2.7,0.9c1.2,0,2.3-0.4,3-1.1c0.8-0.8,1.2-1.6,1.2-2.6c0-0.7-0.2-1.3-0.6-1.9c-0.4-0.6-0.9-1-1.5-1.3
	c-0.7-0.3-1.6-0.5-2.9-0.6V165c0.8,0,1.5-0.1,2.2-0.4s1.1-0.6,1.4-1.1c0.3-0.4,0.4-0.9,0.4-1.4c0-0.8-0.3-1.4-0.9-2
	c-0.6-0.5-1.4-0.8-2.3-0.8c-0.7,0-1.4,0.2-1.9,0.6C366.5,160.5,366.1,161.2,365.7,162.2L365.7,162.2z M379.3,172.2l1.6,0.7l-2.4,4.5
	l-1.2-0.5L379.3,172.2z M384.2,158.2h10.9l-9.2,17.7l-1.4-0.7l8-15.3h-8.2V158.2z M398.5,163.6h-1.7c0.1-1.7,0.6-3.1,1.7-4.2
	c1.1-1.1,2.4-1.6,4-1.6s2.9,0.5,3.9,1.5c1,1,1.5,2.2,1.5,3.6c0,1-0.3,1.9-0.7,2.7c-0.5,0.9-1.4,2-2.7,3.5l-4.3,4.6h8v1.6h-11.7
	l6.5-7.1c1.3-1.4,2.2-2.5,2.6-3.2c0.4-0.7,0.6-1.4,0.6-2.2c0-1-0.3-1.8-1.1-2.5c-0.7-0.7-1.6-1-2.6-1c-1.1,0-2,0.4-2.7,1.1
	C399,161.2,398.6,162.2,398.5,163.6L398.5,163.6z"/>
<path class="st3" d="M400.7,569.8h1.5l3.1,5l3.1-5h1.5L406,576l4.1,6.7h-1.5l-3.4-5.4l-3.4,5.4h-1.5l4.1-6.7L400.7,569.8z
	 M416.6,572.9c1.5,0,2.7,0.5,3.7,1.6c0.9,1,1.3,2.1,1.3,3.5s-0.5,2.5-1.4,3.5c-0.9,1-2.1,1.5-3.6,1.5c-1.5,0-2.7-0.5-3.6-1.5
	c-0.9-1-1.4-2.2-1.4-3.5s0.4-2.5,1.3-3.4C413.9,573.5,415.1,572.9,416.6,572.9L416.6,572.9z M416.6,574.1c-1,0-1.9,0.4-2.6,1.1
	c-0.7,0.8-1.1,1.7-1.1,2.7c0,0.7,0.2,1.3,0.5,1.9c0.3,0.6,0.8,1,1.4,1.4c0.6,0.3,1.2,0.5,1.9,0.5c0.7,0,1.3-0.1,1.9-0.5
	c0.6-0.3,1-0.8,1.4-1.4c0.3-0.6,0.5-1.2,0.5-1.9c0-1.1-0.4-2-1.1-2.7C418.5,574.5,417.6,574.1,416.6,574.1L416.6,574.1z M432,582.7
	h-1.3l-3.2-7l-3.2,7H423l4.4-9.6h0.2L432,582.7z M442,582.7h-1.3l-3.2-7l-3.2,7h-1.3l4.4-9.6h0.2L442,582.7z"/>
<path class="st3" d="M436.9,532h-1.8c0.3-1.4,0.9-2.5,1.8-3.3c0.9-0.8,2-1.1,3.2-1.1c0.9,0,1.7,0.2,2.5,0.6c0.8,0.4,1.4,0.9,1.8,1.6
	c0.4,0.7,0.6,1.4,0.6,2.2c0,1.5-0.7,2.7-2.2,3.5c0.8,0.3,1.5,0.8,2,1.5c0.8,0.9,1.1,2,1.1,3.1c0,1-0.3,1.9-0.8,2.8
	c-0.5,0.9-1.2,1.6-2.1,2.1c-0.9,0.5-1.9,0.7-3,0.7c-1.5,0-2.7-0.4-3.7-1.3c-1-0.9-1.6-2.1-1.9-3.8h1.7c0.3,1.1,0.7,1.9,1.3,2.4
	c0.7,0.7,1.6,1,2.7,1c1.2,0,2.2-0.4,3-1.1c0.7-0.7,1.1-1.6,1.1-2.6c0-0.7-0.2-1.3-0.6-1.9c-0.4-0.6-0.9-1-1.5-1.3
	c-0.6-0.3-1.6-0.5-2.9-0.5v-1.6c0.8,0,1.5-0.1,2.2-0.4c0.7-0.3,1.1-0.6,1.4-1c0.3-0.4,0.4-0.9,0.4-1.4c0-0.7-0.3-1.4-0.9-1.9
	s-1.4-0.8-2.3-0.8c-0.7,0-1.4,0.2-1.9,0.6C437.7,530.3,437.2,531,436.9,532L436.9,532z M450.4,542.1l1.6,0.8l-2.4,4.4l-1.2-0.5
	L450.4,542.1z M456.4,533.4h-1.7c0.1-1.7,0.6-3.1,1.7-4.2c1.1-1.1,2.4-1.6,4-1.6s2.9,0.5,3.9,1.5c1,1,1.5,2.2,1.5,3.6
	c0,1-0.3,1.9-0.7,2.7c-0.5,0.9-1.4,2-2.7,3.5l-4.3,4.6h8v1.6h-11.7l6.6-7.1c1.3-1.4,2.2-2.5,2.6-3.2c0.4-0.7,0.6-1.4,0.6-2.2
	c0-1-0.3-1.8-1.1-2.5c-0.7-0.7-1.6-1.1-2.6-1.1c-1.1,0-2,0.4-2.7,1.1C456.9,531,456.5,532.1,456.4,533.4L456.4,533.4z M475.7,527.6
	l1.4,0.9l-4.6,7.1c0.6-0.2,1.2-0.3,1.8-0.3c1.4,0,2.5,0.5,3.5,1.5s1.4,2.2,1.4,3.7c0,1-0.2,1.9-0.7,2.7c-0.5,0.8-1.1,1.4-2,1.9
	c-0.9,0.5-1.8,0.7-2.7,0.7c-0.9,0-1.8-0.2-2.6-0.7c-0.8-0.5-1.4-1.1-1.9-1.9s-0.7-1.7-0.7-2.7c0-0.7,0.1-1.4,0.4-2.2
	c0.3-0.8,0.8-1.7,1.6-2.8L475.7,527.6z M473.8,536.7c-1,0-1.8,0.4-2.6,1.1c-0.7,0.7-1,1.6-1,2.6c0,1,0.3,1.9,1,2.6
	c0.7,0.7,1.6,1,2.6,1c1,0,1.8-0.3,2.6-1c0.7-0.7,1-1.6,1-2.6c0-1-0.3-1.8-1-2.6C475.7,537.1,474.8,536.7,473.8,536.7L473.8,536.7z"
	/>
<rect x="222.3" y="440.7" class="st0" width="26.2" height="32.6"/>
<rect x="248.5" y="440.7" class="st0" width="54.5" height="32.6"/>
<rect x="303" y="440.7" class="st0" width="31.2" height="32.6"/>
<path class="st0" d="M276.4,449.4v13c0,3.4-2.7,6.2-6.2,6.2h-13c-3.4,0-6.2-2.7-6.2-6.2v-13c0-3.4,2.8-6.2,6.2-6.2h13
	C273.7,443.2,276.4,446,276.4,449.4L276.4,449.4z"/>
<path class="st0" d="M257.4,463.7c0,0.9-0.7,1.6-1.6,1.6c-0.9,0-1.6-0.7-1.6-1.6c0-0.9,0.7-1.6,1.6-1.6
	C256.7,462.1,257.4,462.8,257.4,463.7L257.4,463.7z"/>
<line class="st0" x1="297.4" y1="443.5" x2="297.4" y2="468.7"/>
<line class="st0" x1="294.7" y1="443.5" x2="294.7" y2="468.7"/>
<line class="st0" x1="292" y1="443.5" x2="292" y2="468.7"/>
<line class="st0" x1="289.3" y1="443.5" x2="289.3" y2="468.7"/>
<line class="st0" x1="286.5" y1="443.5" x2="286.5" y2="468.7"/>
<line class="st0" x1="283.8" y1="443.5" x2="283.8" y2="468.7"/>
<line class="st0" x1="281.1" y1="443.5" x2="281.1" y2="468.7"/>
<rect x="305.4" y="443" class="st0" width="25.6" height="25.7"/>
<path class="st0" d="M329.6,444.7v4.5h-3.1c-0.2-0.6-0.7-1.1-1.3-1.4v-3.1H329.6z"/>
<path class="st0" d="M329.6,450.6v4.5h-4.5V452c0.6-0.3,1.1-0.7,1.3-1.4H329.6z"/>
<path class="st0" d="M323.6,444.7v3.1c-0.6,0.2-1.1,0.7-1.3,1.4h-3.1v-4.5H323.6z"/>
<path class="st0" d="M323.6,452v3.1h-4.5v-4.5h3.1C322.5,451.2,323,451.7,323.6,452L323.6,452z"/>
<path class="st0" d="M326.6,449.9c0,1.2-1,2.2-2.2,2.2c-1.2,0-2.2-1-2.2-2.2c0-1.2,1-2.2,2.2-2.2
	C325.6,447.6,326.6,448.6,326.6,449.9L326.6,449.9z"/>
<path class="st0" d="M317.2,444.7v4.5h-3.1c-0.2-0.6-0.7-1.1-1.3-1.4v-3.1H317.2z"/>
<path class="st0" d="M317.2,450.6v4.5h-4.5V452c0.6-0.3,1.1-0.7,1.3-1.4H317.2z"/>
<path class="st0" d="M311.2,444.7v3.1c-0.6,0.2-1.1,0.7-1.3,1.4h-3.1v-4.5H311.2z"/>
<path class="st0" d="M311.2,452v3.1h-4.5v-4.5h3.1C310.1,451.2,310.6,451.7,311.2,452L311.2,452z"/>
<path class="st0" d="M314.2,449.9c0,1.2-1,2.2-2.2,2.2c-1.2,0-2.2-1-2.2-2.2c0-1.2,1-2.2,2.2-2.2
	C313.2,447.6,314.2,448.6,314.2,449.9L314.2,449.9z"/>
<path class="st0" d="M329.6,456.6v4.5h-3.1c-0.2-0.6-0.7-1.1-1.3-1.4v-3.1H329.6z"/>
<path class="st0" d="M329.6,462.6v4.5h-4.5v-3.1c0.6-0.2,1.1-0.7,1.3-1.4H329.6z"/>
<path class="st0" d="M323.6,456.6v3.1c-0.6,0.2-1.1,0.7-1.3,1.4h-3.1v-4.5H323.6z"/>
<path class="st0" d="M323.6,463.9v3.1h-4.5v-4.5h3.1C322.5,463.2,323,463.7,323.6,463.9L323.6,463.9z"/>
<path class="st0" d="M326.6,461.8c0,1.2-1,2.2-2.2,2.2c-1.2,0-2.2-1-2.2-2.2c0-1.2,1-2.2,2.2-2.2
	C325.6,459.6,326.6,460.6,326.6,461.8L326.6,461.8z"/>
<path class="st0" d="M317.2,456.6v4.5h-3.1c-0.2-0.6-0.7-1.1-1.3-1.4v-3.1H317.2z"/>
<path class="st0" d="M317.2,462.6v4.5h-4.5v-3.1c0.6-0.2,1.1-0.7,1.3-1.4H317.2z"/>
<path class="st0" d="M311.2,456.6v3.1c-0.6,0.2-1.1,0.7-1.3,1.4h-3.1v-4.5H311.2z"/>
<path class="st0" d="M311.2,463.9v3.1h-4.5v-4.5h3.1C310.1,463.2,310.6,463.7,311.2,463.9L311.2,463.9z"/>
<path class="st0" d="M314.2,461.8c0,1.2-1,2.2-2.2,2.2c-1.2,0-2.2-1-2.2-2.2c0-1.2,1-2.2,2.2-2.2
	C313.2,459.6,314.2,460.6,314.2,461.8L314.2,461.8z"/>
<line class="st0" x1="268.1" y1="470.8" x2="258.8" y2="470.8"/>
<line class="st0" x1="260.8" y1="472.7" x2="260.8" y2="468.6"/>
<line class="st0" x1="265.9" y1="473.3" x2="265.9" y2="468.6"/>
<line class="st0" x1="263.9" y1="470.8" x2="272.2" y2="460.1"/>
<rect x="222.3" y="410.8" class="st0" width="26.2" height="29.9"/>
<rect x="222.3" y="296.3" class="st0" width="24.4" height="27"/>
<rect x="222.3" y="269.4" class="st0" width="24.4" height="27"/>
<rect x="222.3" y="242.4" class="st0" width="24.4" height="27"/>
<line class="st0" x1="234.5" y1="250.6" x2="234.5" y2="315.1"/>
<polygon class="st0" points="409.6,450.1 409.6,473.3 368.9,473.3 368.9,440.7 400.2,440.7 "/>
<rect x="334.2" y="440.7" class="st0" width="34.7" height="32.6"/>
<path class="st0" d="M233.1,557.9c-6.3,0-11.3-7.3-11.3-16.4c0-9,5.1-16.4,11.3-16.4c6.3,0,11.3,7.3,11.3,16.4
	C244.4,550.6,239.3,557.9,233.1,557.9L233.1,557.9z"/>
<path class="st0" d="M222.3,554.3h3.7c-1.7-2-3-4.7-3.7-7.7V554.3z M226,528.8h-3.7v7.8C223,533.5,224.3,530.8,226,528.8L226,528.8z
	"/>
<path class="st0" d="M244.1,545.2c0,0-4.1,7.2-8.4,6.3c-4.2-1-3.2-4-6.2-5.8c-3-1.9-6.4-0.8-7.7-6.9"/>
<path class="st0" d="M231.8,534.4c-1.2,0-2.2-1-2.2-2.2c0-1.2,1-2.2,2.2-2.2c1.2,0,2.2,1,2.2,2.2C234,533.4,233,534.4,231.8,534.4
	L231.8,534.4z"/>
<path class="st0" d="M245.8,587.1c-5.8,0-10.1-1.9-12.6-4.8l0.8-0.3v-11.8l-0.8-0.3c2.5-2.9,6.8-4.7,12.6-4.7
	c9.4,0,19.2,6.5,19.2,11S255.3,587.1,245.8,587.1L245.8,587.1z"/>
<rect x="226.8" y="572.8" class="st0" width="9.4" height="7.5"/>
<polygon class="st0" points="234.1,582.1 223.2,586.4 223.2,565.8 234.1,570.2 234.1,572.8 226.8,572.8 226.8,580.2 234.1,580.2 "/>
<rect x="222.3" y="483" class="st0" width="95.9" height="36.9"/>
<path class="st0" d="M310.1,517.1h-79.7c-2.7,0-4.8-1.8-4.8-4.1v-23.1c0-2.3,2.2-4.1,4.8-4.1h79.7c2.7,0,4.9,1.8,4.9,4.1V513
	C315,515.2,312.8,517.1,310.1,517.1L310.1,517.1z"/>
<path class="st0" d="M298.2,517.1c0,0,13.2-4.1,13.2-15.7c0-11.6-12.7-15.6-12.7-15.6"/>
<path class="st0" d="M236.2,503.9c-1.3,0-2.4-1.1-2.4-2.4c0-1.3,1.1-2.4,2.4-2.4c1.3,0,2.4,1.1,2.4,2.4
	C238.6,502.8,237.5,503.9,236.2,503.9L236.2,503.9z"/>
<rect x="306" y="360.2" class="st0" width="44" height="43.6"/>
<path class="st0" d="M350,393.7L363,392v-20.6l-12.9-1.7V393.7z M361,371.2v21.1"/>
<path class="st0" d="M306,393.7l-12.9-1.7v-20.6l12.9-1.7V393.7z M295,371.2v21.1"/>
<rect x="222.3" y="380.9" class="st0" width="26.2" height="29.9"/>
<path class="st0" d="M321.8,262.2l18.3-18.5c1.6-1.7,1.6-4.3,0-6l-16.3-16.1c-1.7-1.6-4.4-1.6-6,0l-18.3,18.5
	c-1.6,1.7-1.6,4.3,0.1,6l16.3,16.1C317.5,263.9,320.2,263.8,321.8,262.2L321.8,262.2z"/>
<path class="st0" d="M341.4,236.3L341.4,236.3c0.8-0.8,0.7-2,0-2.7l-13.5-13.4c-0.8-0.7-2-0.7-2.7,0l0,0c-0.8,0.8-0.8,2,0,2.7
	l13.5,13.4C339.4,237.1,340.7,237.1,341.4,236.3L341.4,236.3z"/>
<path class="st0" d="M314.5,263.6L314.5,263.6c0.7-0.8,0.7-2,0-2.7l-13.5-13.4c-0.7-0.7-2-0.7-2.7,0l0,0c-0.7,0.8-0.7,2,0,2.7
	l13.5,13.4C312.5,264.4,313.7,264.4,314.5,263.6L314.5,263.6z"/>
<path class="st0" d="M321.2,220c0.9-0.3,1.3-1.2,1-2.1c-0.3-0.9-1.2-1.3-2.1-1c-3,1-5.8,2.4-8.4,4.1c-2.6,1.7-5.1,3.6-7.3,5.8
	c-2.2,2.2-4.1,4.6-5.7,7.3s-2.9,5.4-3.9,8.4c-0.3,0.9,0.2,1.8,1,2.1c0.9,0.3,1.8-0.2,2.1-1c0.9-2.7,2.1-5.3,3.6-7.7
	c1.5-2.4,3.2-4.6,5.2-6.7c2-2,4.3-3.9,6.7-5.4C315.9,222.2,318.5,220.9,321.2,220L321.2,220z"/>
<path class="st0" d="M370.8,249.5c11.3,0,20.5,9.2,20.5,20.5c0,11.3-9.2,20.5-20.5,20.5c-11.3,0-20.5-9.2-20.5-20.5
	C350.3,258.7,359.5,249.5,370.8,249.5L370.8,249.5z"/>
<rect x="421.2" y="265.8" class="st0" width="21.1" height="21.5"/>
<rect x="411" y="220.3" class="st0" width="67.5" height="29.6"/>
<path class="st0" d="M478.4,249.9h-29.6v29.6h18.5c0,0,0-0.1,0-0.1c0.6-4.4,1.7-6.8,2.9-6.8c0.9,0,2.2,3.6,3,6.9h5.2V249.9z"/>
<path class="st0" d="M478.4,279.4h-5.2c0.4,1.5,0.7,2.9,0.8,4c0.4,3.3,0.8,6.8-1.5,8.4c0,0-5.8-8-5.2-12.4h-18.5v26.4h29.6V279.4z"
	/>
<path class="st0" d="M478.4,220.3h-44.5v5.5h3.1c-0.6-0.9-0.8-1.7-0.5-2.2c0.6-1.1,8.1,0.9,11,2.2h9.2c1.8-0.2,3.7-0.2,4.9-0.1
	c0.5,0,1,0.1,1.5,0.1h15.4V220.3z"/>
<path class="st0" d="M473.1,225.8v1c1.1,1.3,2,8.1,1.9,11.1c-0.1,2.9-0.2,6-1.9,7.6v4.4h5.4v-24.1H473.1z"/>
<path class="st0" d="M473.1,249.9v6.9c0.7,2.5,1.3,7.1,1.2,9.5c-0.1,2.4-0.2,5-1.2,6.7v5.9c0.1,0.2,0.1,0.4,0.1,0.6h5.2v-29.6H473.1
	z"/>
<path class="st0" d="M473.1,291.4v14.4h5.4v-26.4h-5.2c0.4,1.5,0.7,2.9,0.8,4C474.4,286.4,474.7,289.6,473.1,291.4L473.1,291.4z"/>
<path class="st0" d="M453.8,231.4c0,0-9.8,0.9-13.2-1.8c-3.4-2.8-4.8-4.9-4.2-6c0.6-1.1,8.1,0.9,11,2.2
	C450.5,227.1,453.6,228.6,453.8,231.4L453.8,231.4z"/>
<path class="st0" d="M469.4,228.8c0,0-8.9,4.3-13,2.8c-4.1-1.4-6.2-3-6-4.2c0.2-1.2,7.9-2,11.1-1.7
	C464.8,225.9,468.3,226.2,469.4,228.8L469.4,228.8z"/>
<path class="st0" d="M472.3,245.9c0,0-4.6-8.9-3.4-13.1c1.2-4.2,2.6-6.4,3.9-6.3c1.2,0.2,2.3,8,2.2,11.3
	C474.9,241.1,474.7,244.7,472.3,245.9L472.3,245.9z"/>
<path class="st0" d="M471.6,274.3c0,0-4.6-8.9-3.4-13.1c1.2-4.2,2.6-6.5,3.8-6.3s2.3,8,2.2,11.3C474.2,269.5,474,273,471.6,274.3
	L471.6,274.3z"/>
<path class="st0" d="M472.5,291.8c0,0-5.8-8.1-5.2-12.5c0.6-4.4,1.7-6.8,2.9-6.8c1.2,0,3.5,7.5,3.9,10.8
	C474.4,286.7,474.8,290.2,472.5,291.8L472.5,291.8z"/>
<path class="st0" d="M465.2,306c0,0-0.6-8.6,1.8-11.4s4.2-4.1,5.1-3.5c0.9,0.6-0.9,7-2,9.6C468.9,303.2,467.6,305.9,465.2,306
	L465.2,306z"/>
<line class="st0" x1="222.3" y1="69.5" x2="222.3" y2="108.7"/>
<line class="st0" x1="497.7" y1="69.5" x2="497.7" y2="108.7"/>
<polygon class="st4" points="219.8,86.3 219.2,85.9 224.1,76.4 225.4,77 220.4,86.6 219.8,86.3 "/>
<rect x="222.3" y="80.8" class="st5" width="275.4" height="1.4"/>
<polygon class="st4" points="495.2,86.3 495.9,86.6 500.8,77 499.6,76.4 494.6,85.9 495.2,86.3 "/>
<path class="st3" d="M336.6,64.1h-1.8c0.3-1.4,0.9-2.5,1.8-3.3c0.9-0.8,2-1.2,3.2-1.2c0.9,0,1.7,0.2,2.5,0.6c0.8,0.4,1.4,1,1.8,1.6
	c0.4,0.7,0.7,1.4,0.7,2.2c0,1.5-0.7,2.7-2.2,3.5c0.8,0.3,1.5,0.9,2,1.5c0.7,0.9,1.1,1.9,1.1,3.1c0,1-0.3,1.9-0.8,2.8
	c-0.5,0.9-1.2,1.6-2.1,2.1c-0.9,0.5-1.9,0.7-3,0.7c-1.5,0-2.7-0.4-3.7-1.3s-1.6-2.1-2-3.8h1.7c0.3,1.1,0.7,1.9,1.3,2.4
	c0.7,0.6,1.6,0.9,2.7,0.9c1.2,0,2.3-0.4,3-1.1c0.8-0.8,1.1-1.6,1.1-2.6c0-0.7-0.2-1.3-0.6-1.9c-0.4-0.6-0.9-1-1.5-1.3
	c-0.7-0.3-1.6-0.5-2.9-0.6V67c0.8,0,1.5-0.1,2.2-0.4c0.6-0.3,1.1-0.6,1.4-1.1c0.3-0.4,0.5-0.9,0.5-1.4c0-0.8-0.3-1.4-0.9-2
	c-0.6-0.5-1.3-0.8-2.2-0.8c-0.7,0-1.4,0.2-1.9,0.7C337.4,62.4,336.9,63.1,336.6,64.1L336.6,64.1z M356.9,59.7h0.3v12h2.1v1.6h-2.1v4
	h-1.7v-4h-8.2L356.9,59.7z M355.5,71.7v-7.2l-5.1,7.2H355.5z M364.4,60.1h3.4v17.2h-1.7V61.8h-2.7L364.4,60.1z M374,68.7
	c0-2.3,0.3-4,0.7-5.2c0.5-1.2,1.2-2.2,2.1-2.8c0.9-0.7,1.9-1,3-1c1.1,0,2.1,0.3,3,1c0.9,0.7,1.6,1.6,2.2,2.9c0.5,1.3,0.8,3,0.8,5.2
	c0,2.2-0.3,3.9-0.8,5.2c-0.5,1.3-1.2,2.2-2.1,2.9c-0.9,0.7-1.9,1-3.1,1c-1.1,0-2.1-0.3-3-0.9c-0.9-0.6-1.6-1.6-2.1-2.8
	C374.3,72.8,374,71,374,68.7L374,68.7z M375.7,68.8c0,1.9,0.2,3.4,0.5,4.4s0.9,1.8,1.5,2.3c0.7,0.5,1.4,0.8,2.2,0.8
	c0.7,0,1.5-0.2,2.1-0.7c0.7-0.5,1.2-1.3,1.5-2.3c0.4-1.2,0.6-2.7,0.6-4.4c0-1.8-0.2-3.2-0.6-4.3c-0.4-1.1-0.9-1.9-1.6-2.4
	c-0.7-0.5-1.4-0.8-2.1-0.8c-0.8,0-1.5,0.3-2.2,0.8c-0.7,0.5-1.2,1.2-1.5,2.3C375.9,65.4,375.7,66.8,375.7,68.8L375.7,68.8z"/>
<rect x="232.2" y="112.9" class="st6" width="255.5" height="10.9"/>
<rect x="275.4" y="186" class="st6" width="150.1" height="10.9"/>
<polyline class="st7" points="328.6,483 429.6,483 429.6,473.3 222.3,473.3 222.3,201.2 223.1,201.2 223.3,181.8 222.3,181.8 
	222.3,128.1 232.2,128.1 232.2,108.7 222.3,108.7 202.9,108.7 202.9,591.9 202.9,611.3 322.4,611.3 328.6,611.3 431,611.3 
	428.6,591.9 328.6,591.9 328.6,591.9 318.9,591.9 318.9,591.9 222.3,591.9 222.3,483 318.9,483 "/>
<path class="st7" d="M497.7,108.7h-9.9v19.4h9.9v53.7h-72.2v19.4h72.2v272.1h-21l-0.1,9.7l21.1,0V592l-21.3,0l-0.7,19.4l41.4,0
	c0-167.6,0-335.1,0-502.7H497.7z"/>
<rect x="363.9" y="483" class="st7" width="7.9" height="45.8"/>
<rect x="364" y="577" class="st7" width="7.9" height="15.7"/>
<rect x="319.1" y="483.7" class="st0" width="44.4" height="36.1"/>
<line class="st0" x1="363.4" y1="483.7" x2="319.4" y2="519.1"/>
<line class="st0" x1="363.7" y1="519.8" x2="319.2" y2="484.7"/>
<rect id="_x3C_Slice_x3E_" x="-151" y="-103" class="st9" width="996" height="912"/>
<line class="st0" x1="156.1" y1="591.8" x2="203.1" y2="591.8"/>
<line class="st0" x1="156.1" y1="127.9" x2="203.1" y2="127.9"/>
<polygon class="st4" points="161.3,594.2 161.6,594.9 171.2,589.9 170.6,588.7 161,593.6 161.3,594.2 "/>
<rect x="165.4" y="127.9" class="st5" width="1.4" height="463.9"/>
<polygon class="st4" points="161.3,130.4 161,129.8 170.6,124.8 171.2,126 161.6,131 161.3,130.4 "/>
<path class="st3" d="M153,377.2c0.6-1.2,1.2-2,2-2.5c0.7-0.5,1.6-0.8,2.5-0.8c1.3,0,2.5,0.5,3.5,1.3c1.2,1.1,1.9,2.6,1.9,4.6
	c0,1.9-0.5,3.3-1.6,4.3c-1.1,1-2.3,1.5-3.6,1.5c-1,0-1.8-0.3-2.6-0.8c-0.8-0.5-1.5-1.4-2.1-2.6c-0.4,0.9-1,1.5-1.6,1.9
	s-1.4,0.6-2.1,0.6c-0.7,0-1.5-0.2-2.2-0.7c-0.7-0.4-1.3-1-1.7-1.8c-0.4-0.8-0.6-1.6-0.6-2.6c0-0.9,0.2-1.7,0.6-2.5
	c0.4-0.8,1-1.4,1.7-1.8c0.7-0.4,1.4-0.7,2.2-0.7c0.8,0,1.5,0.2,2.1,0.6C152,375.8,152.6,376.4,153,377.2L153,377.2z M146.5,379.8
	c0,1,0.3,1.7,0.9,2.4c0.5,0.6,1.2,0.9,2,0.9c0.8,0,1.4-0.3,2.1-1c0.6-0.7,0.9-1.4,0.9-2.3c0-0.6-0.1-1.1-0.4-1.6
	c-0.3-0.5-0.7-0.9-1.2-1.2c-0.5-0.3-1-0.4-1.4-0.4c-0.7,0-1.3,0.3-1.9,0.9C146.8,377.9,146.5,378.7,146.5,379.8L146.5,379.8z
	 M153.9,379.7c0,1.2,0.4,2.2,1.1,3c0.8,0.8,1.7,1.2,2.7,1.2c0.7,0,1.2-0.2,1.8-0.5c0.5-0.3,1-0.8,1.3-1.4c0.3-0.6,0.5-1.3,0.5-2.2
	c0-1.2-0.4-2.2-1.1-3c-0.7-0.8-1.6-1.1-2.6-1.1c-1,0-1.8,0.4-2.6,1.2C154.2,377.6,153.9,378.6,153.9,379.7L153.9,379.7z
	 M144.8,364.3l0.9-1.4l7.1,4.6c-0.2-0.6-0.3-1.2-0.3-1.8c0-1.4,0.5-2.5,1.5-3.5c1-1,2.2-1.4,3.7-1.4c1,0,1.9,0.2,2.7,0.7
	c0.8,0.5,1.4,1.1,1.9,2c0.5,0.9,0.7,1.8,0.7,2.7c0,0.9-0.2,1.8-0.7,2.6c-0.5,0.8-1.1,1.4-1.9,1.9c-0.8,0.5-1.7,0.7-2.7,0.7
	c-0.7,0-1.4-0.1-2.2-0.4c-0.8-0.3-1.7-0.8-2.8-1.5L144.8,364.3z M154,366.2c0,1,0.4,1.8,1.1,2.6c0.7,0.7,1.6,1,2.6,1s1.9-0.3,2.6-1
	c0.7-0.7,1.1-1.6,1.1-2.6c0-1-0.4-1.9-1.1-2.6c-0.7-0.7-1.6-1-2.6-1s-1.8,0.3-2.6,1C154.3,364.4,154,365.2,154,366.2L154,366.2z
	 M153.8,345.8c-2.3,0-4-0.3-5.3-0.7c-1.2-0.5-2.2-1.2-2.8-2.1c-0.7-0.9-1-1.9-1-3c0-1.1,0.3-2.1,1-3c0.7-0.9,1.6-1.6,2.9-2.2
	c1.3-0.5,3-0.8,5.2-0.8s3.9,0.3,5.2,0.8c1.3,0.5,2.3,1.2,2.9,2.1c0.7,0.9,1,1.9,1,3.1c0,1.1-0.3,2.1-0.9,3c-0.7,0.9-1.6,1.6-2.8,2.1
	C157.9,345.5,156.1,345.8,153.8,345.8L153.8,345.8z M153.9,344.1c2,0,3.4-0.2,4.4-0.5s1.8-0.9,2.3-1.5c0.5-0.7,0.8-1.4,0.8-2.2
	c0-0.7-0.3-1.5-0.8-2.1c-0.5-0.7-1.2-1.2-2.3-1.5c-1.2-0.5-2.7-0.7-4.4-0.7c-1.7,0-3.1,0.2-4.3,0.6c-1.1,0.4-1.9,0.9-2.4,1.6
	c-0.5,0.7-0.8,1.4-0.8,2.1c0,0.8,0.3,1.5,0.8,2.2c0.5,0.7,1.3,1.2,2.3,1.5C150.4,344,151.9,344.1,153.9,344.1L153.9,344.1z"/>
<path class="st3" d="M149.3,356.4l0,1.8c-1.4-0.3-2.5-0.9-3.3-1.8c-0.8-0.9-1.2-2-1.2-3.2c0-0.9,0.2-1.7,0.6-2.5
	c0.4-0.8,1-1.4,1.6-1.8c0.7-0.4,1.4-0.7,2.2-0.7c1.5,0,2.7,0.7,3.5,2.2c0.3-0.8,0.9-1.5,1.5-2c0.9-0.7,1.9-1.1,3.1-1.1
	c1,0,1.9,0.3,2.8,0.8c0.9,0.5,1.6,1.2,2.1,2.1c0.5,0.9,0.7,1.9,0.7,3c0,1.5-0.4,2.7-1.3,3.7c-0.9,1-2.1,1.6-3.8,2l0-1.7
	c1.1-0.3,1.9-0.7,2.4-1.3c0.6-0.7,0.9-1.6,0.9-2.7c0-1.2-0.4-2.3-1.1-3c-0.8-0.8-1.6-1.1-2.6-1.1c-0.7,0-1.3,0.2-1.9,0.6
	c-0.6,0.4-1,0.9-1.3,1.5c-0.3,0.7-0.5,1.6-0.6,2.9l-1.6,0c0-0.8-0.1-1.5-0.4-2.2c-0.3-0.6-0.6-1.1-1.1-1.4c-0.4-0.3-0.9-0.5-1.4-0.5
	c-0.8,0-1.4,0.3-2,0.9c-0.5,0.6-0.8,1.3-0.8,2.2c0,0.7,0.2,1.4,0.7,1.9C147.5,355.6,148.2,356,149.3,356.4L149.3,356.4z"/>
<path class="st2" d="M429.6,483c0-26.8,21.7-48.6,48.4-48.6V483"/>
<path class="st2" d="M428,591.9c0,26.8,21.7,48.6,48.4,48.6v-48.6"/>
<path class="st2" d="M272.9,181.8c0,26.8-21.7,48.6-48.4,48.6v-48.6"/>
<rect id="_x3C_Slice_x3E__1_" x="-99" y="-51" class="st9" width="928" height="832"/>
<g>
	<path class="st3" d="M238.2,141.6c0,2.3-1.6,3.3-3.1,3.3c-1.7,0-3-1.2-3-3.2c0-2.1,1.4-3.3,3.1-3.3
		C237,138.3,238.2,139.6,238.2,141.6z M233.2,141.6c0,1.4,0.8,2.4,1.9,2.4c1.1,0,1.9-1,1.9-2.4c0-1.1-0.5-2.4-1.9-2.4
		C233.8,139.2,233.2,140.4,233.2,141.6z"/>
	<path class="st3" d="M244.4,136.3c-0.3,0.1-0.9,0.2-1.3,0.3c-1,0.2-1.8,0.5-2.2,1.2c-0.4,0.6-0.6,1.4-0.7,2.1h0
		c0.4-0.9,1.3-1.4,2.2-1.4c1.5,0,2.7,1.1,2.7,3.1c0,2.1-1.1,3.3-2.9,3.3c-2.2,0-2.9-2.1-2.9-4.2c0-1.4,0.3-2.6,1-3.5
		c0.6-0.9,1.5-1.3,2.7-1.5c0.5-0.1,1.1-0.2,1.6-0.3L244.4,136.3z M242.2,139.3c-0.7,0-1.2,0.4-1.4,0.9c-0.2,0.4-0.3,0.8-0.3,1.3
		c0,1,0.5,2.5,1.8,2.5c1.3,0,1.7-1.2,1.7-2.4C243.9,140.6,243.5,139.3,242.2,139.3z"/>
	<path class="st3" d="M247.6,138.5v5.4h2.2v-5.4h1.1v5.4h2.2v-5.4h1.1v5.4l0.6,0l-0.1,2.8h-0.9l-0.1-2h-7.4v-6.3H247.6z"/>
	<path class="st3" d="M259.7,144.8l-0.1-0.8h0c-0.4,0.5-1,0.9-1.9,0.9c-1.3,0-1.9-0.9-1.9-1.8c0-1.5,1.4-2.4,3.8-2.3v-0.1
		c0-0.5-0.1-1.5-1.4-1.5c-0.6,0-1.2,0.2-1.6,0.5l-0.3-0.8c0.5-0.3,1.3-0.6,2.1-0.6c1.9,0,2.4,1.3,2.4,2.6v2.4c0,0.5,0,1.1,0.1,1.5
		H259.7z M259.6,141.5c-1.2,0-2.7,0.2-2.7,1.4c0,0.7,0.5,1.1,1.1,1.1c0.8,0,1.3-0.5,1.5-1.1c0-0.1,0.1-0.2,0.1-0.4V141.5z"/>
	<path class="st3" d="M267.2,144.8h-1.1v-2.6h-0.8c-0.5,0-0.8,0.1-1.1,0.4c-0.5,0.4-0.6,1.2-0.9,1.8c-0.1,0.2-0.2,0.4-0.3,0.5h-1.2
		c0.1-0.2,0.3-0.4,0.4-0.7c0.3-0.6,0.4-1.4,1-1.9c0.2-0.2,0.4-0.3,0.7-0.4v0c-0.8-0.1-1.7-0.6-1.7-1.6c0-0.7,0.4-1.1,0.8-1.4
		c0.5-0.3,1.3-0.4,2.1-0.4c0.8,0,1.5,0.1,2,0.1V144.8z M266.1,139.2c-0.3,0-0.5-0.1-0.9-0.1c-0.8,0-1.7,0.2-1.7,1.1
		c0,0.8,1,1.1,1.7,1.1c0.5,0,0.7,0,1,0V139.2z"/>
	<path class="st3" d="M277,138.5v6.3h-1.1v-5.4h-2.9v5.4h-1.1v-6.3H277z"/>
	<path class="st3" d="M283.6,138.5v6.3h-1.1v-5.4h-2.2v1.6c0,1.8-0.2,3-1,3.5c-0.3,0.2-0.7,0.4-1.2,0.4L278,144
		c0.2,0,0.5-0.1,0.6-0.3c0.6-0.4,0.6-1.3,0.6-2.7v-2.5H283.6z"/>
	<path class="st3" d="M291.2,141.6c0,2.3-1.6,3.3-3.1,3.3c-1.7,0-3-1.2-3-3.2c0-2.1,1.4-3.3,3.1-3.3
		C290,138.3,291.2,139.6,291.2,141.6z M286.2,141.6c0,1.4,0.8,2.4,1.9,2.4c1.1,0,1.9-1,1.9-2.4c0-1.1-0.5-2.4-1.9-2.4
		C286.8,139.2,286.2,140.4,286.2,141.6z"/>
	<path class="st3" d="M293.7,138.5v5.4h2.2v-5.4h1.1v5.4h2.2v-5.4h1.1v5.4l0.6,0l-0.1,2.8H300l-0.1-2h-7.4v-6.3H293.7z"/>
	<path class="st3" d="M305.8,144.8l-0.1-0.8h0c-0.4,0.5-1,0.9-1.9,0.9c-1.3,0-1.9-0.9-1.9-1.8c0-1.5,1.4-2.4,3.8-2.3v-0.1
		c0-0.5-0.1-1.5-1.4-1.5c-0.6,0-1.2,0.2-1.6,0.5l-0.3-0.8c0.5-0.3,1.3-0.6,2.1-0.6c1.9,0,2.4,1.3,2.4,2.6v2.4c0,0.5,0,1.1,0.1,1.5
		H305.8z M305.7,141.5c-1.2,0-2.7,0.2-2.7,1.4c0,0.7,0.5,1.1,1.1,1.1c0.8,0,1.3-0.5,1.5-1.1c0-0.1,0.1-0.2,0.1-0.4V141.5z"/>
	<path class="st3" d="M313.5,138.5v5.4l0.7,0l-0.1,2.8h-0.9l-0.1-2h-4.4l-0.1,2h-0.9l-0.1-2.8l0.5,0c0.3-0.4,0.5-0.8,0.6-1.3
		c0.2-0.8,0.4-1.6,0.4-2.5v-1.6H313.5z M310.3,140.4c0,0.8-0.1,1.6-0.3,2.3c-0.1,0.4-0.3,0.8-0.5,1.2h2.9v-4.5h-2.1V140.4z"/>
	<path class="st3" d="M316.6,138.5v2.1c0.3-0.1,0.7-0.1,1-0.1c1.4,0,2.9,0.4,2.9,2.1c0,0.7-0.3,1.1-0.7,1.4
		c-0.7,0.6-1.8,0.7-2.7,0.7c-0.6,0-1.2,0-1.7-0.1v-6.3H316.6z M316.6,144c0.2,0,0.5,0.1,0.8,0.1c0.9,0,2-0.3,2-1.3
		c0-1.1-1.1-1.3-2-1.3c-0.3,0-0.6,0-0.8,0.1V144z"/>
	<path class="st3" d="M232.7,171.8v-1.4l1.8-1.7c4.3-4.1,6.3-6.3,6.3-8.8c0-1.7-0.8-3.3-3.4-3.3c-1.5,0-2.8,0.8-3.6,1.4l-0.7-1.6
		c1.2-1,2.8-1.7,4.8-1.7c3.6,0,5.2,2.5,5.2,4.9c0,3.1-2.3,5.6-5.8,9.1l-1.4,1.2v0.1h7.6v1.9H232.7z"/>
	<path class="st3" d="M257,154.8v1.5l-7.4,15.4h-2.4l7.3-15v-0.1h-8.3v-1.9H257z"/>
	<path class="st3" d="M260.3,159.2h2.8l2.3,6.3c0.3,0.9,0.9,2.5,1.1,3.5h0.1c0.3-0.9,1-2.9,1.5-4.3l2-5.5h2.8l0.9,12.6h-2.2l-0.3-6
		c-0.1-1.4-0.2-3-0.2-4.5H271c-0.3,1.1-0.7,2.2-1.4,4.1l-2.4,6.3h-1.7l-2.2-6.2c-0.4-1.2-0.9-3-1.2-4.2H262
		c-0.1,1.5-0.1,3.1-0.2,4.5l-0.3,6h-2.1L260.3,159.2z"/>
	<path class="st3" d="M275.2,163.9l1.6-1.5c2.2-2,3.3-3.2,3.3-4.5c0-1-0.6-1.8-2-1.8c-0.9,0-1.7,0.5-2.2,0.8l-0.5-1.2
		c0.7-0.6,1.9-1.1,3.2-1.1c2.4,0,3.5,1.5,3.5,2.9c0,2-1.5,3.4-3.5,5.1l-0.8,0.7v0.1h4.4v1.4h-7V163.9z"/>
</g>
</svg>
